{
.appVersion = "1098";
classes = (
{
code = "b h hbar hcircumflex k kcommaaccent lacute lcaron lcommaaccent ldot lj lslash thorn ";
name = arriba;
}
);
copyright = "Copyright (c) 2011-2018, Eduardo Tunni (http://www.tipo.net.ar), with Reserved Font Name \"Arapey\"";
customParameters = (
{
name = fsType;
value = (
);
},
{
name = "Use Typo Metrics";
value = 1;
},
{
name = "Disable Last Change";
value = 1;
},
{
name = licenseURL;
value = "http://scripts.sil.org/OFL";
},
{
name = description;
value = "Arapey (Ah-ra-pay) is a contemporary modern typeface with some features of a Bodoni, but the structures, soft lines, and finishes leave a calm and distinguished feeling. The first sketches were made during a vacation in Arapey, a small town the north of Uruguay. The italics are gentle, rhythmic, and bring a special glamour to both text use and titles.";
},
{
name = trademark;
value = "Arapey is a trademark of Eduardo Rodriguez Tunni.";
},
{
name = license;
value = "This Font Software is licensed under the SIL Open Font License, Version 1.1. This license is available with a FAQ at: http://scripts.sil.org/OFL";
},
{
name = openTypeOS2VendorID;
value = TIPO;
},
{
name = vendorID;
value = TIPO;
}
);
date = "2017-11-17 13:52:31 +0000";
designer = "Eduardo Rodriguez Tunni";
designerURL = "http://www.tipo.net.ar";
disablesNiceNames = 1;
familyName = Arapey;
featurePrefixes = (
{
automatic = 1;
code = "languagesystem DFLT dflt;\012languagesystem latn dflt;\012languagesystem latn CAT;\012languagesystem latn ROM;\012languagesystem latn MOL;\012languagesystem latn KAZ;\012languagesystem latn TAT;\012languagesystem latn TRK;\012languagesystem latn CRT;\012languagesystem latn AZE;\012";
name = Languagesystems;
}
);
features = (
{
automatic = 1;
code = "feature ccmp;\012feature locl;\012feature sinf;\012feature sups;\012feature numr;\012feature dnom;\012feature frac;\012feature ordn;\012feature pnum;\012feature tnum;\012feature case;\012";
name = aalt;
},
{
automatic = 1;

glyphs = (
{
glyphname = A;
layers = (
{
anchors = (
{
name = bottom;
position = "{232, 0}";
},
{
name = ogonek;
position = "{514, 0}";
},
{
name = top;
position = "{367, 630}";
}
);
background = {
paths = (
{
closed = 1;
nodes = (
"548 0 LINE",
"551 18 LINE",
"516 18 LINE SMOOTH",
"506 18 OFFCURVE",
"503 24 OFFCURVE",
"501 32 CURVE",
"419 630 LINE",
"387 630 LINE",
"51 32 LINE SMOOTH",
"47 24 OFFCURVE",
"40 18 OFFCURVE",
"30 18 CURVE SMOOTH",
"-5 18 LINE",
"-9 0 LINE",
"135 0 LINE",
"138 18 LINE",
"76 18 LINE",
"184 211 LINE",
"393 211 LINE",
"418 18 LINE",
"356 18 LINE",
"353 0 LINE"
);
},
{
closed = 1;
nodes = (
"353 512 LINE",
"389 239 LINE",
"200 239 LINE"
);
},
{
closed = 1;
nodes = (
"370 457 OFFCURVE",
"386 441 OFFCURVE",
"405 441 CURVE SMOOTH",
"424 441 OFFCURVE",
"440 457 OFFCURVE",
"440 476 CURVE SMOOTH",
"440 495 OFFCURVE",
"424 511 OFFCURVE",
"405 511 CURVE SMOOTH",
"386 511 OFFCURVE",
"370 495 OFFCURVE",
"370 476 CURVE SMOOTH"
);
},
{
closed = 1;
nodes = (
"426 46 OFFCURVE",
"442 30 OFFCURVE",
"461 30 CURVE SMOOTH",
"480 30 OFFCURVE",
"496 46 OFFCURVE",
"496 65 CURVE SMOOTH",
"496 84 OFFCURVE",
"480 100 OFFCURVE",
"461 100 CURVE SMOOTH",
"442 100 OFFCURVE",
"426 84 OFFCURVE",
"426 65 CURVE SMOOTH"
);
},
{
closed = 1;
nodes = (
"426 46 OFFCURVE",
"442 30 OFFCURVE",
"461 30 CURVE SMOOTH",
"480 30 OFFCURVE",
"496 46 OFFCURVE",
"496 65 CURVE SMOOTH",
"496 84 OFFCURVE",
"480 100 OFFCURVE",
"461 100 CURVE SMOOTH",
"442 100 OFFCURVE",
"426 84 OFFCURVE",
"426 65 CURVE SMOOTH"
);
}
);
};
hints = (
{
horizontal = 1;
place = "{-9, -192}";
},
{
horizontal = 1;
place = "{-220, 21}";
target = up;
type = BottomGhost;
},
{
horizontal = 1;
place = "{410, -20}";
target = down;
type = TopGhost;
}
);
layerId = UUID0;
paths = (
{
closed = 1;
nodes = (
"398 18 LINE",
"336 18 LINE",
"333 0 LINE",
"514 0 LINE",
"517 18 LINE",
"482 18 LINE SMOOTH",
"472 18 OFFCURVE",
"468 24 OFFCURVE",
"467 32 CURVE SMOOTH",
"385 630 LINE",
"353 630 LINE",
"17 32 LINE SMOOTH",
"13 24 OFFCURVE",
"6 18 OFFCURVE",
"-4 18 CURVE SMOOTH",
"-39 18 LINE",
"-43 0 LINE",
"101 0 LINE",
"104 18 LINE",
"42 18 LINE",
"340 549 LINE",
"325 552 LINE"
);
},
{
closed = 1;
nodes = (
"374 239 LINE",
"157 239 LINE",
"142 211 LINE",
"378 211 LINE"
);
}
);
width = 563;
}
);
leftKerningGroup = A;
rightKerningGroup = A;
unicode = 0041;
},
{
glyphname = AE;
layers = (
{
anchors = (
{
name = bottom;
position = "{421, 0}";
},
{
name = top;
position = "{555, 630}";
}
);
background = {
paths = (
{
closed = 1;
nodes = (
"384 607 LINE",
"404 607 LINE",
"404 604 OFFCURVE",
"393 555 OFFCURVE",
"342 311 CURVE",
"170 311 LINE"
);
},
{
closed = 1;
nodes = (
"405 286 LINE",
"605 286 LINE SMOOTH",
"613 286 OFFCURVE",
"616 280 OFFCURVE",
"616 272 CURVE",
"607 210 LINE",
"624 210 LINE",
"663 390 LINE",
"646 390 LINE",
"626 328 LINE SMOOTH",
"624 321 OFFCURVE",
"619 315 OFFCURVE",
"612 314 CURVE",
"410 314 LINE",
"472 607 LINE",
"683 607 LINE SMOOTH",
"696 607 OFFCURVE",
"705 604 OFFCURVE",
"705 590 CURVE",
"692 463 LINE",
"714 463 LINE",
"724 510 LINE SMOOTH",
"736 565 OFFCURVE",
"752 621 OFFCURVE",
"760 639 CURVE",
"742 634 OFFCURVE",
"706 630 OFFCURVE",
"652 630 CURVE SMOOTH",
"308 630 LINE",
"305 612 LINE",
"338 612 LINE SMOOTH",
"343 612 OFFCURVE",
"345 609 OFFCURVE",
"345 606 CURVE SMOOTH",
"345 600 OFFCURVE",
"341 596 OFFCURVE",
"338 592 CURVE",
"338 592 OFFCURVE",
"338 591 OFFCURVE",
"-67 32 CURVE SMOOTH",
"-72 25 OFFCURVE",
"-77 18 OFFCURVE",
"-88 18 CURVE SMOOTH",
"-122 18 LINE",
"-126 0 LINE",
"20 0 LINE",
"23 18 LINE",
"-39 18 LINE",
"154 289 LINE",
"337 289 LINE",
"283 33 LINE SMOOTH",
"281 23 OFFCURVE",
"277 18 OFFCURVE",
"267 18 CURVE SMOOTH",
"221 18 LINE",
"218 0 LINE",
"533 0 LINE SMOOTH",
"586 0 OFFCURVE",
"620 -4 OFFCURVE",
"636 -9 CURVE",
"636 10 OFFCURVE",
"643 64 OFFCURVE",
"655 120 CURVE SMOOTH",
"665 167 LINE",
"643 167 LINE",
"601 45 LINE SMOOTH",
"595 27 OFFCURVE",
"585 23 OFFCURVE",
"570 23 CURVE SMOOTH",
"349 23 LINE"
);
}
);
};
hints = (
{
horizontal = 1;
origin = "{2, 31}";
target = "{2, 30}";
},
{
horizontal = 1;
origin = "{1, 2}";
target = "{1, 1}";
},
{
horizontal = 1;
origin = "{2, 35}";
target = "{2, 15}";
},
{
horizontal = 1;
origin = "{2, 31}";
target = "{2, 56}";
},
{
horizontal = 1;
origin = "{2, 11}";
target = "{2, 35}";
},
{
place = "{572.5, 12.5}";
}
);
layerId = UUID0;
paths = (
{
closed = 1;
nodes = (
"398 286 LINE",
"605 286 LINE SMOOTH",
"613 286 OFFCURVE",
"617 280 OFFCURVE",
"616 272 CURVE SMOOTH",
"607 210 LINE",
"624 210 LINE",
"663 390 LINE",
"646 390 LINE",
"626 328 LINE SMOOTH",
"624 321 OFFCURVE",
"619 315 OFFCURVE",
"612 314 CURVE",
"403 314 LINE"
);
},
{
closed = 1;
nodes = (
"349 314 LINE",
"163 314 LINE",
"143 286 LINE",
"343 286 LINE"
);
},
{
closed = 1;
nodes = (
"477 631 LINE",
"448 607 LINE",
"683 607 LINE SMOOTH",
"696 607 OFFCURVE",
"705 604 OFFCURVE",
"705 590 CURVE",
"692 463 LINE",
"714 463 LINE",
"724 510 LINE SMOOTH",
"736 565 OFFCURVE",
"752 621 OFFCURVE",
"760 639 CURVE",
"742 634 OFFCURVE",
"706 630 OFFCURVE",
"652 630 CURVE SMOOTH",
"308 630 LINE",
"305 612 LINE",
"338 612 LINE SMOOTH",
"343 612 OFFCURVE",
"345 609 OFFCURVE",
"345 606 CURVE SMOOTH",
"345 600 OFFCURVE",
"341 596 OFFCURVE",
"338 592 CURVE",
"338 592 OFFCURVE",
"338 591 OFFCURVE",
"-67 32 CURVE SMOOTH",
"-72 25 OFFCURVE",
"-77 18 OFFCURVE",
"-88 18 CURVE SMOOTH",
"-122 18 LINE",
"-126 0 LINE",
"20 0 LINE",
"23 18 LINE",
"-39 18 LINE",
"384 607 LINE",
"404 607 LINE",
"283 33 LINE SMOOTH",
"281 23 OFFCURVE",
"277 18 OFFCURVE",
"267 18 CURVE SMOOTH",
"221 18 LINE",
"218 0 LINE",
"533 0 LINE SMOOTH",
"586 0 OFFCURVE",
"620 -4 OFFCURVE",
"636 -9 CURVE",
"636 10 OFFCURVE",
"643 64 OFFCURVE",
"655 120 CURVE SMOOTH",
"665 167 LINE",
"643 167 LINE",
"601 45 LINE SMOOTH",
"595 27 OFFCURVE",
"585 23 OFFCURVE",
"570 23 CURVE SMOOTH",
"325 23 LINE",
"344 -1 LINE"
);
}
);
width = 735;
}
);
leftKerningGroup = AE;
rightMetricsKey = E;
unicode = 00C6;
},
{
glyphname = B;
layers = (
{
anchors = (
{
name = bottom;
position = "{198, 0}";
},
{
name = top;
position = "{332, 630}";
}
);
background = {
paths = (
{
closed = 1;
nodes = (
"122 0 LINE",
"190 0 LINE",
"323 630 LINE",
"255 630 LINE"
);
},
{
closed = 1;
nodes = (
"194 612 LINE",
"239 612 LINE SMOOTH",
"246 612 OFFCURVE",
"249 606 OFFCURVE",
"249 598 CURVE",
"255 630 LINE",
"255 630 OFFCURVE",
"197 630 OFFCURVE",
"197 630 CURVE"
);
},
{
closed = 1;
nodes = (
"64 0 LINE",
"64 0 OFFCURVE",
"122 0 OFFCURVE",
"122 0 CURVE",
"129 32 LINE SMOOTH",
"128 24 OFFCURVE",
"120 18 OFFCURVE",
"113 18 CURVE SMOOTH",
"67 18 LINE"
);
},
{
closed = 1;
nodes = (
"211 341 LINE",
"206 321 LINE",
"347 321 LINE SMOOTH",
"457 321 OFFCURVE",
"564 404 OFFCURVE",
"564 512 CURVE SMOOTH",
"564 584 OFFCURVE",
"494 630 OFFCURVE",
"413 630 CURVE SMOOTH",
"271 630 LINE",
"265 607 LINE",
"388 607 LINE SMOOTH",
"467 607 OFFCURVE",
"501 560 OFFCURVE",
"501 506 CURVE SMOOTH",
"501 431 OFFCURVE",
"435 341 OFFCURVE",
"331 341 CURVE SMOOTH"
);
},
{
closed = 1;
nodes = (
"181 23 LINE",
"176 0 LINE",
"310 0 LINE SMOOTH",
"421 0 OFFCURVE",
"543 81 OFFCURVE",
"543 210 CURVE SMOOTH",
"543 295 OFFCURVE",
"473 341 OFFCURVE",
"383 341 CURVE SMOOTH",
"249 341 LINE",
"244 321 LINE",
"374 321 LINE SMOOTH",
"439 321 OFFCURVE",
"467 271 OFFCURVE",
"467 212 CURVE SMOOTH",
"467 128 OFFCURVE",
"404 23 OFFCURVE",
"311 23 CURVE SMOOTH"
);
}
);
};
hints = (
{
horizontal = 1;
origin = "{0, 12}";
target = "{1, 18}";
},
{
horizontal = 1;
origin = "{1, 10}";
target = "{1, 9}";
},
{
horizontal = 1;
origin = "{0, 27}";
target = "{1, 1}";
},
{
horizontal = 1;
origin = "{0, 12}";
target = "{0, 11}";
},
{
horizontal = 1;
origin = "{0, 27}";
target = "{0, 0}";
},
{
origin = "{1, 14}";
target = "{0, 16}";
},
{
origin = "{1, 5}";
target = "{0, 23}";
}
);
layerId = UUID0;
paths = (
{
closed = 1;
nodes = (
"119 612 LINE",
"163 612 LINE SMOOTH",
"168 612 OFFCURVE",
"174 610 OFFCURVE",
"174 604 CURVE SMOOTH",
"174 600 OFFCURVE",
"163 549 OFFCURVE",
"54 33 CURVE SMOOTH",
"52 23 OFFCURVE",
"48 18 OFFCURVE",
"38 18 CURVE SMOOTH",
"-8 18 LINE",
"-11 0 LINE",
"235 0 LINE SMOOTH",
"346 0 OFFCURVE",
"468 81 OFFCURVE",
"468 210 CURVE SMOOTH",
"468 285 OFFCURVE",
"412 331 OFFCURVE",
"337 339 CURVE",
"339 331 LINE",
"422 356 OFFCURVE",
"489 426 OFFCURVE",
"489 512 CURVE SMOOTH",
"489 584 OFFCURVE",
"419 630 OFFCURVE",
"338 630 CURVE SMOOTH",
"122 630 LINE"
);
},
{
closed = 1;
nodes = (
"246 622 LINE",
"219 607 LINE",
"313 607 LINE SMOOTH",
"392 607 OFFCURVE",
"426 560 OFFCURVE",
"426 506 CURVE SMOOTH",
"426 431 OFFCURVE",
"360 341 OFFCURVE",
"256 341 CURVE SMOOTH",
"182 341 LINE",
"178 321 LINE",
"299 321 LINE SMOOTH",
"364 321 OFFCURVE",
"392 271 OFFCURVE",
"392 212 CURVE SMOOTH",
"392 128 OFFCURVE",
"329 23 OFFCURVE",
"236 23 CURVE SMOOTH",
"96 23 LINE",
"117 10 LINE"
);
}
);
width = 512;
}
);
leftMetricsKey = H;
unicode = 0042;
},
{
glyphname = C;
layers = (
{
anchors = (
{
name = bottom;
position = "{266, 0}";
},
{
name = top;
position = "{400, 630}";
}
);
background = {
paths = (
{
closed = 1;
nodes = (
"519 0 LINE",
"537 0 LINE",
"572 167 LINE",
"555 167 LINE",
"519 58 OFFCURVE",
"434 17 OFFCURVE",
"348 17 CURVE SMOOTH",
"259 17 OFFCURVE",
"202 83 OFFCURVE",
"202 204 CURVE SMOOTH",
"202 358 OFFCURVE",
"292 613 OFFCURVE",
"478 613 CURVE SMOOTH",
"557 613 OFFCURVE",
"619 578 OFFCURVE",
"619 486 CURVE SMOOTH",
"619 479 OFFCURVE",
"619 471 OFFCURVE",
"618 463 CURVE",
"635 463 LINE",
"672 636 LINE",
"654 636 LINE",
"648 616 LINE SMOOTH",
"643 601 OFFCURVE",
"637 595 OFFCURVE",
"629 595 CURVE SMOOTH",
"606 595 OFFCURVE",
"576 642 OFFCURVE",
"487 642 CURVE SMOOTH",
"261 642 OFFCURVE",
"133 406 OFFCURVE",
"133 216 CURVE SMOOTH",
"133 70 OFFCURVE",
"218 -12 OFFCURVE",
"348 -12 CURVE SMOOTH",
"437 -12 OFFCURVE",
"487 35 OFFCURVE",
"510 35 CURVE SMOOTH",
"516 35 OFFCURVE",
"521 31 OFFCURVE",
"521 22 CURVE SMOOTH",
"521 20 OFFCURVE",
"520 17 OFFCURVE",
"520 14 CURVE SMOOTH"
);
}
);
};
hints = (
{
horizontal = 1;
origin = "{0, 0}";
target = up;
type = BottomGhost;
},
{
horizontal = 1;
origin = "{0, 28}";
target = "{0, 12}";
},
{
horizontal = 1;
origin = "{0, 34}";
target = "{0, 6}";
},
{
horizontal = 1;
origin = "{0, 21}";
target = down;
type = TopGhost;
},
{
origin = "{0, 31}";
target = "{0, 9}";
},
{
origin = "{0, 43}";
target = "{0, 1}";
},
{
origin = "{0, 15}";
target = "{0, 19}";
}
);
layerId = UUID0;
paths = (
{
closed = 1;
nodes = (
"443 0 LINE",
"461 0 LINE",
"496 167 LINE",
"479 167 LINE",
"443 58 OFFCURVE",
"358 17 OFFCURVE",
"272 17 CURVE SMOOTH",
"183 17 OFFCURVE",
"126 83 OFFCURVE",
"126 204 CURVE SMOOTH",
"126 358 OFFCURVE",
"216 613 OFFCURVE",
"402 613 CURVE SMOOTH",
"481 613 OFFCURVE",
"543 578 OFFCURVE",
"543 486 CURVE SMOOTH",
"543 479 OFFCURVE",
"543 471 OFFCURVE",
"542 463 CURVE",
"559 463 LINE",
"596 636 LINE",
"578 636 LINE",
"572 616 LINE SMOOTH",
"567 601 OFFCURVE",
"561 595 OFFCURVE",
"553 595 CURVE SMOOTH",
"530 595 OFFCURVE",
"500 642 OFFCURVE",
"411 642 CURVE SMOOTH",
"185 642 OFFCURVE",
"57 406 OFFCURVE",
"57 216 CURVE SMOOTH",
"57 70 OFFCURVE",
"142 -12 OFFCURVE",
"272 -12 CURVE SMOOTH",
"361 -12 OFFCURVE",
"411 35 OFFCURVE",
"434 35 CURVE SMOOTH",
"440 35 OFFCURVE",
"445 31 OFFCURVE",
"445 22 CURVE SMOOTH",
"445 20 OFFCURVE",
"444 17 OFFCURVE",
"444 14 CURVE SMOOTH"
);
}
);
width = 565;
}
);
leftKerningGroup = O;
leftMetricsKey = O;
unicode = 0043;
},
{
glyphname = D;
layers = (
{
anchors = (
{
name = bottom;
position = "{239, 0}";
},
{
name = center;
position = "{181, 315}";
},
{
name = top;
position = "{373, 630}";
}
);
background = {
paths = (
{
closed = 1;
nodes = (
"134 0 LINE",
"202 0 LINE",
"335 630 LINE",
"267 630 LINE"
);
},
{
closed = 1;
nodes = (
"206 612 LINE",
"251 612 LINE SMOOTH",
"257 612 OFFCURVE",
"261 607 OFFCURVE",
"261 600 CURVE SMOOTH",
"261 600 OFFCURVE",
"261 599 OFFCURVE",
"261 598 CURVE",
"267 630 LINE",
"267 630 OFFCURVE",
"209 630 OFFCURVE",
"209 630 CURVE"
);
},
{
closed = 1;
nodes = (
"445 607 LINE SMOOTH",
"534 607 OFFCURVE",
"596 539 OFFCURVE",
"596 417 CURVE SMOOTH",
"596 265 OFFCURVE",
"503 23 OFFCURVE",
"323 23 CURVE SMOOTH",
"165 23 LINE",
"160 0 LINE",
"318 0 LINE SMOOTH",
"537 0 OFFCURVE",
"667 221 OFFCURVE",
"667 408 CURVE SMOOTH",
"667 550 OFFCURVE",
"582 630 OFFCURVE",
"451 630 CURVE SMOOTH",
"293 630 LINE",
"287 607 LINE"
);
},
{
closed = 1;
nodes = (
"76 0 LINE",
"76 0 OFFCURVE",
"134 0 OFFCURVE",
"134 0 CURVE",
"140 32 LINE SMOOTH",
"139 24 OFFCURVE",
"131 18 OFFCURVE",
"124 18 CURVE SMOOTH",
"79 18 LINE"
);
}
);
};
hints = (
{
place = "{76, -383}";
},
{
horizontal = 1;
place = "{-454, -431}";
},
{
horizontal = 1;
place = "{153, -431}";
}
);
layerId = UUID0;
paths = (
{
closed = 1;
nodes = (
"231 0 LINE SMOOTH",
"450 0 OFFCURVE",
"580 221 OFFCURVE",
"580 408 CURVE SMOOTH",
"580 550 OFFCURVE",
"495 630 OFFCURVE",
"364 630 CURVE SMOOTH",
"122 630 LINE",
"119 612 LINE",
"163 612 LINE SMOOTH",
"168 612 OFFCURVE",
"174 610 OFFCURVE",
"174 604 CURVE SMOOTH",
"174 600 OFFCURVE",
"163 549 OFFCURVE",
"54 33 CURVE SMOOTH",
"52 23 OFFCURVE",
"48 18 OFFCURVE",
"38 18 CURVE SMOOTH",
"-8 18 LINE",
"-11 0 LINE"
);
},
{
closed = 1;
nodes = (
"246 621 LINE",
"219 607 LINE",
"358 607 LINE SMOOTH",
"447 607 OFFCURVE",
"509 539 OFFCURVE",
"509 417 CURVE SMOOTH",
"509 265 OFFCURVE",
"416 23 OFFCURVE",
"236 23 CURVE SMOOTH",
"96 23 LINE",
"117 10 LINE"
);
}
);
width = 596;
}
);
leftMetricsKey = H;
rightKerningGroup = O;
rightMetricsKey = O;
unicode = 0044;
},
{
glyphname = E;
layers = (
{
anchors = (
{
name = bottom;
position = "{222, 0}";
},
{
name = ogonek;
position = "{398, 0}";
},
{
name = top;
position = "{346, 630}";
},
{
name = topleft;
position = "{87, 630}";
}
);
background = {
paths = (
{
closed = 1;
nodes = (
"454 303 LINE SMOOTH",
"462 303 OFFCURVE",
"465 297 OFFCURVE",
"465 289 CURVE",
"456 225 LINE",
"473 225 LINE",
"512 405 LINE",
"495 405 LINE",
"475 340 LINE SMOOTH",
"473 333 OFFCURVE",
"468 327 OFFCURVE",
"461 326 CURVE",
"259 326 LINE",
"318 607 LINE",
"529 607 LINE SMOOTH",
"542 607 OFFCURVE",
"551 604 OFFCURVE",
"551 590 CURVE SMOOTH",
"538 463 LINE",
"560 463 LINE",
"570 510 LINE SMOOTH",
"582 565 OFFCURVE",
"598 621 OFFCURVE",
"606 639 CURVE",
"588 634 OFFCURVE",
"552 630 OFFCURVE",
"498 630 CURVE SMOOTH",
"197 630 LINE",
"194 612 LINE",
"239 612 LINE SMOOTH",
"244 612 OFFCURVE",
"248 607 OFFCURVE",
"249 601 CURVE",
"127 25 LINE",
"124 20 OFFCURVE",
"119 18 OFFCURVE",
"114 18 CURVE SMOOTH",
"67 18 LINE",
"64 0 LINE",
"379 0 LINE SMOOTH",
"432 0 OFFCURVE",
"466 -4 OFFCURVE",
"482 -9 CURVE",
"482 10 OFFCURVE",
"489 64 OFFCURVE",
"501 120 CURVE SMOOTH",
"511 167 LINE",
"489 167 LINE",
"447 45 LINE SMOOTH",
"441 27 OFFCURVE",
"431 23 OFFCURVE",
"416 23 CURVE SMOOTH",
"195 23 LINE",
"254 303 LINE"
);
},
{
closed = 1;
nodes = (
"130 32 LINE SMOOTH",
"130 30 OFFCURVE",
"129 29 OFFCURVE",
"129 28 CURVE"
);
},
{
closed = 1;
nodes = (
"259 301 LINE",
"454 301 LINE SMOOTH",
"462 301 OFFCURVE",
"466 295 OFFCURVE",
"466 287 CURVE",
"456 225 LINE",
"473 225 LINE",
"512 405 LINE",
"495 405 LINE",
"477 343 LINE SMOOTH",
"475 335 OFFCURVE",
"469 330 OFFCURVE",
"462 329 CURVE",
"265 329 LINE"
);
}
);
};
hints = (
{
horizontal = 1;
place = "{-406, -383}";
},
{
horizontal = 1;
place = "{-105, -378}";
},
{
horizontal = 1;
place = "{201, -383}";
},
{
horizontal = 1;
place = "{-415, 21}";
target = up;
type = BottomGhost;
},
{
horizontal = 1;
place = "{233, -20}";
target = down;
type = TopGhost;
}
);
layerId = UUID0;
paths = (
{
closed = 1;
nodes = (
"172 301 LINE",
"379 301 LINE SMOOTH",
"387 301 OFFCURVE",
"390 295 OFFCURVE",
"390 287 CURVE",
"381 225 LINE",
"398 225 LINE",
"437 405 LINE",
"420 405 LINE",
"400 343 LINE SMOOTH",
"398 336 OFFCURVE",
"393 330 OFFCURVE",
"386 329 CURVE",
"177 329 LINE"
);
},
{
closed = 1;
nodes = (
"246 621 LINE",
"219 607 LINE",
"454 607 LINE SMOOTH",
"467 607 OFFCURVE",
"476 604 OFFCURVE",
"476 590 CURVE SMOOTH",
"463 463 LINE",
"485 463 LINE",
"495 510 LINE SMOOTH",
"507 565 OFFCURVE",
"523 621 OFFCURVE",
"531 639 CURVE",
"513 634 OFFCURVE",
"477 630 OFFCURVE",
"423 630 CURVE SMOOTH",
"122 630 LINE",
"119 612 LINE",
"163 612 LINE SMOOTH",
"168 612 OFFCURVE",
"174 610 OFFCURVE",
"174 604 CURVE SMOOTH",
"174 600 OFFCURVE",
"163 549 OFFCURVE",
"54 33 CURVE SMOOTH",
"52 23 OFFCURVE",
"48 18 OFFCURVE",
"38 18 CURVE SMOOTH",
"-8 18 LINE",
"-11 0 LINE",
"304 0 LINE SMOOTH",
"357 0 OFFCURVE",
"391 -4 OFFCURVE",
"407 -9 CURVE",
"407 10 OFFCURVE",
"414 64 OFFCURVE",
"426 120 CURVE SMOOTH",
"436 167 LINE",
"414 167 LINE",
"372 45 LINE SMOOTH",
"366 27 OFFCURVE",
"356 23 OFFCURVE",
"341 23 CURVE SMOOTH",
"96 23 LINE",
"117 8 LINE"
);
}
);
width = 506;
}
);
leftMetricsKey = H;
unicode = 0045;
},
{
glyphname = F;
layers = (
{
anchors = (
{
name = bottom;
position = "{167, 0}";
},
{
name = top;
position = "{301, 630}";
}
);
background = {
paths = (
{
closed = 1;
nodes = (
"122 0 LINE",
"190 0 LINE",
"323 630 LINE",
"255 630 LINE"
);
},
{
closed = 1;
nodes = (
"194 612 LINE",
"239 612 LINE SMOOTH",
"245 612 OFFCURVE",
"249 607 OFFCURVE",
"249 600 CURVE SMOOTH",
"249 600 OFFCURVE",
"249 599 OFFCURVE",
"249 598 CURVE",
"255 630 LINE",
"255 630 OFFCURVE",
"197 630 OFFCURVE",
"197 630 CURVE"
);
},
{
closed = 1;
nodes = (
"128 32 LINE",
"127 24 OFFCURVE",
"119 18 OFFCURVE",
"112 18 CURVE SMOOTH",
"67 18 LINE",
"64 0 LINE",
"286 0 LINE",
"289 18 LINE",
"206 18 LINE SMOOTH",
"200 18 OFFCURVE",
"196 23 OFFCURVE",
"196 29 CURVE SMOOTH",
"196 30 OFFCURVE",
"196 31 OFFCURVE",
"196 32 CURVE"
);
},
{
closed = 1;
nodes = (
"271 602 LINE",
"521 602 LINE SMOOTH",
"534 602 OFFCURVE",
"543 599 OFFCURVE",
"543 586 CURVE SMOOTH",
"543 584 OFFCURVE",
"543 582 OFFCURVE",
"543 580 CURVE SMOOTH",
"533 463 LINE",
"555 463 LINE",
"565 510 LINE SMOOTH",
"577 565 OFFCURVE",
"592 621 OFFCURVE",
"600 639 CURVE",
"582 634 OFFCURVE",
"546 630 OFFCURVE",
"493 630 CURVE SMOOTH",
"277 630 LINE"
);
},
{
closed = 1;
nodes = (
"242 301 LINE",
"457 301 LINE",
"463 329 LINE",
"248 329 LINE"
);
},
{
closed = 1;
nodes = (
"448 301 LINE",
"456 301 OFFCURVE",
"460 295 OFFCURVE",
"460 287 CURVE",
"450 225 LINE",
"467 225 LINE",
"506 405 LINE",
"489 405 LINE",
"471 343 LINE SMOOTH",
"469 335 OFFCURVE",
"462 329 OFFCURVE",
"454 329 CURVE"
);
}
);
};
hints = (
{
horizontal = 1;
place = "{-105, -378}";
},
{
horizontal = 1;
place = "{196, -378}";
},
{
horizontal = 1;
place = "{-406, 21}";
target = up;
type = BottomGhost;
},
{
horizontal = 1;
place = "{233, -20}";
target = down;
type = TopGhost;
}
);
layerId = UUID0;
paths = (
{
closed = 1;
nodes = (
"122 630 LINE",
"119 612 LINE",
"163 612 LINE SMOOTH",
"168 612 OFFCURVE",
"174 610 OFFCURVE",
"174 604 CURVE SMOOTH",
"174 600 OFFCURVE",
"163 549 OFFCURVE",
"54 33 CURVE SMOOTH",
"52 23 OFFCURVE",
"48 18 OFFCURVE",
"38 18 CURVE SMOOTH",
"-8 18 LINE",
"-11 0 LINE",
"211 0 LINE",
"214 18 LINE",
"131 18 LINE SMOOTH",
"125 18 OFFCURVE",
"121 23 OFFCURVE",
"121 28 CURVE",
"178 301 LINE",
"373 301 LINE SMOOTH",
"381 301 OFFCURVE",
"385 295 OFFCURVE",
"385 287 CURVE",
"375 225 LINE",
"392 225 LINE",
"431 405 LINE",
"414 405 LINE",
"396 343 LINE SMOOTH",
"394 335 OFFCURVE",
"388 330 OFFCURVE",
"381 329 CURVE",
"184 329 LINE",
"242 602 LINE",
"446 602 LINE SMOOTH",
"459 602 OFFCURVE",
"468 599 OFFCURVE",
"468 586 CURVE",
"458 463 LINE",
"480 463 LINE",
"490 510 LINE SMOOTH",
"502 565 OFFCURVE",
"517 621 OFFCURVE",
"525 639 CURVE",
"507 634 OFFCURVE",
"471 630 OFFCURVE",
"418 630 CURVE SMOOTH"
);
}
);
width = 477;
}
);
leftMetricsKey = H;
rightKerningGroup = F;
unicode = 0046;
},
{
glyphname = G;
layers = (
{
anchors = (
{
name = bottom;
position = "{283, 0}";
},
{
name = top;
position = "{401, 630}";
}
);
background = {
paths = (
{
closed = 1;
nodes = (
"539 188 LINE SMOOTH",
"515 83 OFFCURVE",
"464 17 OFFCURVE",
"353 17 CURVE SMOOTH",
"260 17 OFFCURVE",
"202 83 OFFCURVE",
"202 204 CURVE SMOOTH",
"202 358 OFFCURVE",
"292 613 OFFCURVE",
"478 613 CURVE SMOOTH",
"557 613 OFFCURVE",
"619 578 OFFCURVE",
"619 486 CURVE SMOOTH",
"619 479 OFFCURVE",
"619 471 OFFCURVE",
"618 463 CURVE",
"635 463 LINE",
"672 636 LINE",
"654 636 LINE",
"648 616 LINE SMOOTH",
"643 601 OFFCURVE",
"637 595 OFFCURVE",
"629 595 CURVE SMOOTH",
"606 595 OFFCURVE",
"576 642 OFFCURVE",
"487 642 CURVE SMOOTH",
"261 642 OFFCURVE",
"133 406 OFFCURVE",
"133 216 CURVE SMOOTH",
"133 70 OFFCURVE",
"218 -12 OFFCURVE",
"348 -12 CURVE SMOOTH",
"474 -12 OFFCURVE",
"582 73 OFFCURVE",
"607 192 CURVE SMOOTH",
"621 258 LINE",
"552 258 LINE"
);
},
{
closed = 1;
nodes = (
"615 226 LINE",
"616 234 OFFCURVE",
"624 240 OFFCURVE",
"632 240 CURVE SMOOTH",
"657 240 LINE",
"660 258 LINE",
"477 258 LINE",
"474 240 LINE",
"537 240 LINE SMOOTH",
"544 240 OFFCURVE",
"548 235 OFFCURVE",
"548 228 CURVE SMOOTH",
"548 227 OFFCURVE",
"548 227 OFFCURVE",
"548 226 CURVE"
);
}
);
};
hints = (
{
place = "{-386, -367}";
},
{
horizontal = 1;
place = "{-448, -407}";
},
{
horizontal = 1;
place = "{177, -407}";
},
{
horizontal = 1;
place = "{200, -20}";
target = down;
type = TopGhost;
}
);
layerId = UUID0;
paths = (
{
closed = 1;
nodes = (
"538 226 LINE SMOOTH",
"540 234 OFFCURVE",
"548 240 OFFCURVE",
"556 240 CURVE SMOOTH",
"581 240 LINE",
"584 258 LINE",
"401 258 LINE",
"398 240 LINE",
"461 240 LINE SMOOTH",
"466 240 OFFCURVE",
"471 236 OFFCURVE",
"471 229 CURVE",
"447 84 OFFCURVE",
"391 17 OFFCURVE",
"277 17 CURVE SMOOTH",
"184 17 OFFCURVE",
"126 83 OFFCURVE",
"126 204 CURVE SMOOTH",
"126 358 OFFCURVE",
"216 613 OFFCURVE",
"402 613 CURVE SMOOTH",
"481 613 OFFCURVE",
"543 578 OFFCURVE",
"543 486 CURVE SMOOTH",
"543 479 OFFCURVE",
"543 471 OFFCURVE",
"542 463 CURVE",
"559 463 LINE",
"596 636 LINE",
"578 636 LINE",
"572 616 LINE SMOOTH",
"567 601 OFFCURVE",
"561 595 OFFCURVE",
"553 595 CURVE SMOOTH",
"530 595 OFFCURVE",
"500 642 OFFCURVE",
"411 642 CURVE SMOOTH",
"185 642 OFFCURVE",
"57 406 OFFCURVE",
"57 216 CURVE SMOOTH",
"57 70 OFFCURVE",
"142 -12 OFFCURVE",
"272 -12 CURVE SMOOTH",
"398 -12 OFFCURVE",
"506 73 OFFCURVE",
"531 192 CURVE SMOOTH"
);
}
);
width = 604;
}
);
leftKerningGroup = O;
leftMetricsKey = O;
unicode = 0047;
},
{
glyphname = H;
layers = (
{
anchors = (
{
name = bottom;
position = "{264, 0}";
},
{
name = center;
position = "{363, 466}";
},
{
name = top;
position = "{398, 630}";
},
{
name = topleft;
position = "{87, 630}";
}
);
background = {
paths = (
{
closed = 1;
nodes = (
"208 41 OFFCURVE",
"255 262 OFFCURVE",
"328 598 CURVE SMOOTH",
"331 610 OFFCURVE",
"338 612 OFFCURVE",
"345 612 CURVE SMOOTH",
"390 612 LINE",
"393 630 LINE",
"209 630 LINE",
"206 612 LINE",
"250 612 LINE SMOOTH",
"255 612 OFFCURVE",
"261 610 OFFCURVE",
"261 604 CURVE SMOOTH",
"261 600 OFFCURVE",
"250 549 OFFCURVE",
"141 33 CURVE SMOOTH",
"139 23 OFFCURVE",
"135 18 OFFCURVE",
"125 18 CURVE SMOOTH",
"79 18 LINE",
"76 0 LINE",
"260 0 LINE",
"263 18 LINE",
"219 18 LINE SMOOTH",
"214 18 OFFCURVE",
"208 21 OFFCURVE",
"208 28 CURVE SMOOTH"
);
},
{
closed = 1;
nodes = (
"507 33 LINE SMOOTH",
"505 23 OFFCURVE",
"501 18 OFFCURVE",
"491 18 CURVE SMOOTH",
"445 18 LINE",
"442 0 LINE",
"626 0 LINE",
"629 18 LINE",
"585 18 LINE SMOOTH",
"580 18 OFFCURVE",
"574 21 OFFCURVE",
"574 28 CURVE SMOOTH",
"574 38 OFFCURVE",
"653 408 OFFCURVE",
"694 598 CURVE SMOOTH",
"697 610 OFFCURVE",
"704 612 OFFCURVE",
"711 612 CURVE SMOOTH",
"756 612 LINE",
"759 630 LINE",
"575 630 LINE",
"572 612 LINE",
"616 612 LINE SMOOTH",
"621 612 OFFCURVE",
"627 610 OFFCURVE",
"627 604 CURVE"
);
},
{
closed = 1;
nodes = (
"257 301 LINE",
"571 301 LINE",
"576 329 LINE",
"263 329 LINE"
);
}
);
};
hints = (
{
horizontal = 1;
place = "{-153, -426}";
},
{
horizontal = 1;
place = "{176, -20}";
target = down;
type = TopGhost;
},
{
horizontal = 1;
place = "{-454, 21}";
target = up;
type = BottomGhost;
}
);
layerId = UUID0;
paths = (
{
closed = 1;
nodes = (
"303 612 LINE",
"306 630 LINE",
"122 630 LINE",
"119 612 LINE",
"163 612 LINE SMOOTH",
"168 612 OFFCURVE",
"174 610 OFFCURVE",
"174 604 CURVE SMOOTH",
"174 598 OFFCURVE",
"170 582 OFFCURVE",
"165 558 CURVE SMOOTH",
"54 33 LINE SMOOTH",
"52 23 OFFCURVE",
"48 18 OFFCURVE",
"38 18 CURVE SMOOTH",
"-8 18 LINE",
"-11 0 LINE",
"173 0 LINE",
"176 18 LINE",
"132 18 LINE SMOOTH",
"127 18 OFFCURVE",
"121 20 OFFCURVE",
"121 26 CURVE SMOOTH",
"121 32 OFFCURVE",
"125 48 OFFCURVE",
"130 72 CURVE SMOOTH",
"241 597 LINE SMOOTH",
"243 607 OFFCURVE",
"247 612 OFFCURVE",
"257 612 CURVE SMOOTH"
);
},
{
closed = 1;
nodes = (
"170 301 LINE",
"484 301 LINE",
"489 329 LINE",
"176 329 LINE"
);
},
{
closed = 1;
nodes = (
"669 612 LINE",
"672 630 LINE",
"488 630 LINE",
"485 612 LINE",
"529 612 LINE SMOOTH",
"534 612 OFFCURVE",
"540 610 OFFCURVE",
"540 604 CURVE SMOOTH",
"540 598 OFFCURVE",
"536 582 OFFCURVE",
"531 558 CURVE SMOOTH",
"420 33 LINE SMOOTH",
"418 23 OFFCURVE",
"414 18 OFFCURVE",
"404 18 CURVE SMOOTH",
"358 18 LINE",
"355 0 LINE",
"539 0 LINE",
"542 18 LINE",
"498 18 LINE SMOOTH",
"493 18 OFFCURVE",
"487 20 OFFCURVE",
"487 26 CURVE SMOOTH",
"487 32 OFFCURVE",
"491 48 OFFCURVE",
"496 72 CURVE SMOOTH",
"607 597 LINE SMOOTH",
"609 607 OFFCURVE",
"613 612 OFFCURVE",
"623 612 CURVE SMOOTH"
);
}
);
width = 619;
}
);
unicode = 0048;
},
{
glyphname = I;
layers = (
{
anchors = (
{
name = bottom;
position = "{87, 0}";
},
{
name = ogonek;
position = "{173, 0}";
},
{
name = top;
position = "{221, 630}";
},
{
name = topleft;
position = "{87, 630}";
}
);
background = {
paths = (
{
closed = 1;
nodes = (
"122 0 LINE",
"190 0 LINE",
"323 630 LINE",
"255 630 LINE"
);
},
{
closed = 1;
nodes = (
"128 32 LINE",
"127 24 OFFCURVE",
"119 18 OFFCURVE",
"112 18 CURVE SMOOTH",
"67 18 LINE",
"64 0 LINE",
"248 0 LINE",
"251 18 LINE",
"206 18 LINE SMOOTH",
"200 18 OFFCURVE",
"196 23 OFFCURVE",
"196 29 CURVE SMOOTH",
"196 30 OFFCURVE",
"196 31 OFFCURVE",
"196 32 CURVE"
);
},
{
closed = 1;
nodes = (
"317 598 LINE",
"318 606 OFFCURVE",
"326 612 OFFCURVE",
"333 612 CURVE SMOOTH",
"378 612 LINE",
"381 630 LINE",
"197 630 LINE",
"194 612 LINE",
"239 612 LINE SMOOTH",
"245 612 OFFCURVE",
"249 607 OFFCURVE",
"249 600 CURVE SMOOTH",
"249 600 OFFCURVE",
"249 599 OFFCURVE",
"249 598 CURVE"
);
}
);
};
hints = (
{
horizontal = 1;
place = "{224, -20}";
target = down;
type = TopGhost;
},
{
horizontal = 1;
place = "{-406, 21}";
target = up;
type = BottomGhost;
}
);
layerId = UUID0;
paths = (
{
closed = 1;
nodes = (
"303 612 LINE",
"306 630 LINE",
"122 630 LINE",
"119 612 LINE",
"163 612 LINE SMOOTH",
"168 612 OFFCURVE",
"174 610 OFFCURVE",
"174 604 CURVE SMOOTH",
"174 598 OFFCURVE",
"170 582 OFFCURVE",
"165 558 CURVE SMOOTH",
"54 33 LINE SMOOTH",
"52 23 OFFCURVE",
"48 18 OFFCURVE",
"38 18 CURVE SMOOTH",
"-8 18 LINE",
"-11 0 LINE",
"173 0 LINE",
"176 18 LINE",
"132 18 LINE SMOOTH",
"127 18 OFFCURVE",
"121 20 OFFCURVE",
"121 26 CURVE SMOOTH",
"121 32 OFFCURVE",
"125 48 OFFCURVE",
"130 72 CURVE SMOOTH",
"241 597 LINE SMOOTH",
"243 607 OFFCURVE",
"247 612 OFFCURVE",
"257 612 CURVE SMOOTH"
);
}
);
width = 253;
}
);
leftMetricsKey = H;
rightMetricsKey = H;
unicode = 0049;
},
{
glyphname = J;
layers = (
{
anchors = (
{
name = bottom;
position = "{96, 0}";
},
{
name = top;
position = "{230, 630}";
}
);
background = {
paths = (
{
closed = 1;
nodes = (
"273 598 LINE",
"274 606 OFFCURVE",
"282 612 OFFCURVE",
"289 612 CURVE SMOOTH",
"339 612 LINE",
"342 630 LINE",
"148 630 LINE",
"145 612 LINE",
"195 612 LINE SMOOTH",
"201 612 OFFCURVE",
"205 607 OFFCURVE",
"205 600 CURVE SMOOTH",
"205 600 OFFCURVE",
"205 599 OFFCURVE",
"205 598 CURVE"
);
},
{
closed = 1;
nodes = (
"279 630 LINE",
"211 630 LINE",
"68 -45 LINE SMOOTH",
"54 -110 OFFCURVE",
"21 -135 OFFCURVE",
"-10 -135 CURVE SMOOTH",
"-32 -135 OFFCURVE",
"-43 -120 OFFCURVE",
"-43 -102 CURVE SMOOTH",
"-43 -81 OFFCURVE",
"-30 -50 OFFCURVE",
"-14 -27 CURVE",
"-22 -17 OFFCURVE",
"-39 -12 OFFCURVE",
"-56 -12 CURVE SMOOTH",
"-86 -12 OFFCURVE",
"-106 -53 OFFCURVE",
"-106 -90 CURVE SMOOTH",
"-106 -125 OFFCURVE",
"-86 -159 OFFCURVE",
"-23 -159 CURVE SMOOTH",
"70 -159 OFFCURVE",
"132 -61 OFFCURVE",
"172 127 CURVE SMOOTH"
);
}
);
};
hints = (
{
horizontal = 1;
place = "{-271, -88}";
},
{
horizontal = 1;
place = "{-124, 21}";
target = up;
type = BottomGhost;
},
{
horizontal = 1;
place = "{518, -20}";
target = down;
type = TopGhost;
}
);
layerId = UUID0;
paths = (
{
closed = 1;
nodes = (
"37 -110 OFFCURVE",
"4 -135 OFFCURVE",
"-27 -135 CURVE SMOOTH",
"-49 -135 OFFCURVE",
"-60 -120 OFFCURVE",
"-60 -102 CURVE SMOOTH",
"-60 -81 OFFCURVE",
"-47 -50 OFFCURVE",
"-31 -27 CURVE",
"-39 -17 OFFCURVE",
"-56 -12 OFFCURVE",
"-73 -12 CURVE SMOOTH",
"-103 -12 OFFCURVE",
"-123 -53 OFFCURVE",
"-123 -90 CURVE SMOOTH",
"-123 -125 OFFCURVE",
"-103 -159 OFFCURVE",
"-40 -159 CURVE SMOOTH",
"53 -159 OFFCURVE",
"115 -61 OFFCURVE",
"155 127 CURVE SMOOTH",
"255 598 LINE SMOOTH",
"258 610 OFFCURVE",
"265 612 OFFCURVE",
"272 612 CURVE SMOOTH",
"317 612 LINE",
"320 630 LINE",
"136 630 LINE",
"133 612 LINE",
"177 612 LINE SMOOTH",
"182 612 OFFCURVE",
"188 610 OFFCURVE",
"188 604 CURVE SMOOTH",
"188 600 OFFCURVE",
"160 471 OFFCURVE",
"51 -45 CURVE SMOOTH"
);
}
);
width = 260;
}
);
leftKerningGroup = J;
rightKerningGroup = U;
rightMetricsKey = U;
unicode = 004A;
},
{
glyphname = K;
layers = (
{
anchors = (
{
name = bottom;
position = "{217, 0}";
},
{
name = top;
position = "{351, 630}";
}
);
background = {
paths = (
{
closed = 1;
nodes = (
"540 630 LINE",
"537 612 LINE",
"584 612 LINE",
"299 325 LINE",
"323 310 LINE",
"611 598 LINE SMOOTH",
"622 610 OFFCURVE",
"625 612 OFFCURVE",
"640 612 CURVE SMOOTH",
"666 612 LINE",
"669 630 LINE"
);
},
{
closed = 1;
nodes = (
"471 175 LINE SMOOTH",
"469 256 OFFCURVE",
"445 327 OFFCURVE",
"335 327 CURVE SMOOTH",
"324 327 OFFCURVE",
"312 326 OFFCURVE",
"299 325 CURVE",
"294 309 LINE",
"366 309 OFFCURVE",
"396 281 OFFCURVE",
"400 193 CURVE SMOOTH",
"404 95 LINE SMOOTH",
"407 18 OFFCURVE",
"434 -12 OFFCURVE",
"479 -12 CURVE SMOOTH",
"531 -12 OFFCURVE",
"572 30 OFFCURVE",
"572 99 CURVE",
"553 96 LINE",
"553 51 OFFCURVE",
"533 21 OFFCURVE",
"506 21 CURVE SMOOTH",
"483 21 OFFCURVE",
"474 42 OFFCURVE",
"473 83 CURVE SMOOTH"
);
},
{
closed = 1;
nodes = (
"331 610 OFFCURVE",
"338 612 OFFCURVE",
"345 612 CURVE SMOOTH",
"390 612 LINE",
"393 630 LINE",
"209 630 LINE",
"206 612 LINE",
"250 612 LINE SMOOTH",
"255 612 OFFCURVE",
"261 610 OFFCURVE",
"261 604 CURVE SMOOTH",
"261 600 OFFCURVE",
"250 549 OFFCURVE",
"141 33 CURVE SMOOTH",
"139 23 OFFCURVE",
"135 18 OFFCURVE",
"125 18 CURVE SMOOTH",
"79 18 LINE",
"76 0 LINE",
"260 0 LINE",
"263 18 LINE",
"219 18 LINE SMOOTH",
"214 18 OFFCURVE",
"208 21 OFFCURVE",
"208 28 CURVE SMOOTH",
"208 38 OFFCURVE",
"288 408 OFFCURVE",
"328 598 CURVE SMOOTH"
);
}
);
};
hints = (
{
place = "{-120, -383}";
},
{
horizontal = 1;
place = "{-466, -424}";
},
{
horizontal = 1;
place = "{176, -20}";
target = down;
type = TopGhost;
},
{
horizontal = 1;
place = "{-454, 21}";
target = up;
type = BottomGhost;
}
);
layerId = UUID0;
paths = (
{
closed = 1;
nodes = (
"384 175 LINE SMOOTH",
"382 254 OFFCURVE",
"358 325 OFFCURVE",
"253 327 CURVE",
"524 598 LINE SMOOTH",
"535 610 OFFCURVE",
"538 612 OFFCURVE",
"553 612 CURVE SMOOTH",
"579 612 LINE",
"582 630 LINE",
"453 630 LINE",
"450 612 LINE",
"497 612 LINE",
"212 325 LINE",
"207 309 LINE",
"279 309 OFFCURVE",
"309 281 OFFCURVE",
"313 193 CURVE SMOOTH",
"317 95 LINE SMOOTH",
"320 18 OFFCURVE",
"347 -12 OFFCURVE",
"392 -12 CURVE SMOOTH",
"444 -12 OFFCURVE",
"485 30 OFFCURVE",
"485 99 CURVE",
"466 96 LINE",
"466 51 OFFCURVE",
"446 21 OFFCURVE",
"419 21 CURVE SMOOTH",
"396 21 OFFCURVE",
"387 42 OFFCURVE",
"386 83 CURVE SMOOTH"
);
},
{
closed = 1;
nodes = (
"303 612 LINE",
"306 630 LINE",
"122 630 LINE",
"119 612 LINE",
"163 612 LINE SMOOTH",
"168 612 OFFCURVE",
"174 610 OFFCURVE",
"174 604 CURVE SMOOTH",
"174 598 OFFCURVE",
"170 582 OFFCURVE",
"165 558 CURVE SMOOTH",
"54 33 LINE SMOOTH",
"52 23 OFFCURVE",
"48 18 OFFCURVE",
"38 18 CURVE SMOOTH",
"-8 18 LINE",
"-11 0 LINE",
"173 0 LINE",
"176 18 LINE",
"132 18 LINE SMOOTH",
"127 18 OFFCURVE",
"121 20 OFFCURVE",
"121 26 CURVE SMOOTH",
"121 32 OFFCURVE",
"125 48 OFFCURVE",
"130 72 CURVE SMOOTH",
"241 597 LINE SMOOTH",
"243 607 OFFCURVE",
"247 612 OFFCURVE",
"257 612 CURVE SMOOTH"
);
}
);
width = 523;
}
);
leftMetricsKey = H;
rightKerningGroup = K;
unicode = 004B;
},
{
glyphname = L;
layers = (
{
anchors = (
{
name = bottom;
position = "{209, 0}";
},
{
name = center;
position = "{147, 315}";
},
{
name = top;
position = "{214, 630}";
},
{
name = topright;
position = "{374, 500}";
}
);
background = {
paths = (
{
closed = 1;
nodes = (
"134 0 LINE",
"202 0 LINE",
"335 630 LINE",
"267 630 LINE"
);
},
{
closed = 1;
nodes = (
"76 0 LINE",
"76 0 OFFCURVE",
"134 0 OFFCURVE",
"134 0 CURVE",
"140 32 LINE SMOOTH",
"139 24 OFFCURVE",
"131 18 OFFCURVE",
"124 18 CURVE SMOOTH",
"79 18 LINE"
);
},
{
closed = 1;
nodes = (
"156 0 LINE",
"367 0 LINE SMOOTH",
"420 0 OFFCURVE",
"454 -4 OFFCURVE",
"470 -9 CURVE",
"470 9 OFFCURVE",
"477 65 OFFCURVE",
"489 120 CURVE SMOOTH",
"499 167 LINE",
"477 167 LINE",
"436 45 LINE SMOOTH",
"430 27 OFFCURVE",
"419 23 OFFCURVE",
"404 23 CURVE SMOOTH",
"159 23 LINE"
);
},
{
closed = 1;
nodes = (
"329 598 LINE",
"330 606 OFFCURVE",
"338 612 OFFCURVE",
"345 612 CURVE SMOOTH",
"390 612 LINE",
"393 630 LINE",
"209 630 LINE",
"206 612 LINE",
"251 612 LINE SMOOTH",
"257 612 OFFCURVE",
"261 607 OFFCURVE",
"261 600 CURVE SMOOTH",
"261 600 OFFCURVE",
"261 599 OFFCURVE",
"261 598 CURVE"
);
}
);
};
hints = (
{
horizontal = 1;
place = "{-454, -431}";
},
{
horizontal = 1;
place = "{176, -20}";
target = down;
type = TopGhost;
},
{
horizontal = 1;
place = "{-463, 21}";
target = up;
type = BottomGhost;
}
);
layerId = UUID0;
paths = (
{
closed = 1;
nodes = (
"241 598 LINE SMOOTH",
"244 610 OFFCURVE",
"251 612 OFFCURVE",
"258 612 CURVE SMOOTH",
"303 612 LINE",
"306 630 LINE",
"122 630 LINE",
"119 612 LINE",
"163 612 LINE SMOOTH",
"168 612 OFFCURVE",
"174 610 OFFCURVE",
"174 604 CURVE SMOOTH",
"174 600 OFFCURVE",
"163 549 OFFCURVE",
"54 33 CURVE SMOOTH",
"52 23 OFFCURVE",
"48 18 OFFCURVE",
"38 18 CURVE SMOOTH",
"-8 18 LINE",
"-11 0 LINE",
"280 0 LINE SMOOTH",
"333 0 OFFCURVE",
"367 -4 OFFCURVE",
"383 -9 CURVE",
"383 9 OFFCURVE",
"390 65 OFFCURVE",
"402 120 CURVE SMOOTH",
"412 167 LINE",
"390 167 LINE",
"349 45 LINE SMOOTH",
"343 27 OFFCURVE",
"332 23 OFFCURVE",
"317 23 CURVE SMOOTH",
"120 23 LINE"
);
}
);
width = 467;
}
);
leftMetricsKey = H;
rightKerningGroup = L;
unicode = 004C;
},
{
glyphname = M;
layers = (
{
anchors = (
{
name = bottom;
position = "{323, 0}";
},
{
name = top;
position = "{457, 630}";
}
);
background = {
paths = (
{
closed = 1;
nodes = (
"713 565 LINE",
"601 33 LINE SMOOTH",
"599 23 OFFCURVE",
"595 18 OFFCURVE",
"585 18 CURVE SMOOTH",
"539 18 LINE",
"536 0 LINE",
"720 0 LINE",
"723 18 LINE",
"679 18 LINE SMOOTH",
"674 18 OFFCURVE",
"668 21 OFFCURVE",
"668 28 CURVE SMOOTH",
"668 38 OFFCURVE",
"748 408 OFFCURVE",
"788 598 CURVE SMOOTH",
"791 610 OFFCURVE",
"798 612 OFFCURVE",
"805 612 CURVE SMOOTH",
"850 612 LINE",
"853 630 LINE",
"717 630 LINE",
"408 96 LINE",
"333 630 LINE",
"197 630 LINE",
"194 612 LINE",
"238 612 LINE SMOOTH",
"243 612 OFFCURVE",
"249 610 OFFCURVE",
"249 604 CURVE SMOOTH",
"249 600 OFFCURVE",
"238 549 OFFCURVE",
"129 33 CURVE SMOOTH",
"127 23 OFFCURVE",
"123 18 OFFCURVE",
"113 18 CURVE SMOOTH",
"67 18 LINE",
"64 0 LINE",
"213 0 LINE",
"216 18 LINE",
"172 18 LINE SMOOTH",
"167 18 OFFCURVE",
"161 21 OFFCURVE",
"161 28 CURVE SMOOTH",
"161 38 OFFCURVE",
"233 375 OFFCURVE",
"273 565 CURVE",
"353 0 LINE",
"385 0 LINE"
);
},
{
closed = 1;
nodes = (
"276 527 OFFCURVE",
"292 511 OFFCURVE",
"311 511 CURVE SMOOTH",
"330 511 OFFCURVE",
"346 527 OFFCURVE",
"346 546 CURVE SMOOTH",
"346 565 OFFCURVE",
"330 581 OFFCURVE",
"311 581 CURVE SMOOTH",
"292 581 OFFCURVE",
"276 565 OFFCURVE",
"276 546 CURVE SMOOTH"
);
},
{
closed = 1;
nodes = (
"336 97 OFFCURVE",
"352 81 OFFCURVE",
"371 81 CURVE SMOOTH",
"390 81 OFFCURVE",
"406 97 OFFCURVE",
"406 116 CURVE SMOOTH",
"406 135 OFFCURVE",
"390 151 OFFCURVE",
"371 151 CURVE SMOOTH",
"352 151 OFFCURVE",
"336 135 OFFCURVE",
"336 116 CURVE SMOOTH"
);
}
);
};
hints = (
{
horizontal = 1;
place = "{-406, 21}";
target = up;
type = BottomGhost;
},
{
horizontal = 1;
place = "{224, -20}";
target = down;
type = TopGhost;
}
);
layerId = UUID0;
paths = (
{
closed = 1;
nodes = (
"638 565 LINE",
"526 33 LINE SMOOTH",
"524 23 OFFCURVE",
"520 18 OFFCURVE",
"510 18 CURVE SMOOTH",
"464 18 LINE",
"461 0 LINE",
"645 0 LINE",
"648 18 LINE",
"604 18 LINE SMOOTH",
"599 18 OFFCURVE",
"593 21 OFFCURVE",
"593 28 CURVE SMOOTH",
"593 38 OFFCURVE",
"673 408 OFFCURVE",
"713 598 CURVE SMOOTH",
"716 610 OFFCURVE",
"723 612 OFFCURVE",
"730 612 CURVE SMOOTH",
"775 612 LINE",
"778 630 LINE",
"642 630 LINE",
"333 94 LINE",
"258 630 LINE",
"122 630 LINE",
"119 612 LINE",
"163 612 LINE SMOOTH",
"168 612 OFFCURVE",
"174 610 OFFCURVE",
"174 604 CURVE SMOOTH",
"174 600 OFFCURVE",
"163 549 OFFCURVE",
"54 33 CURVE SMOOTH",
"52 23 OFFCURVE",
"48 18 OFFCURVE",
"38 18 CURVE SMOOTH",
"-8 18 LINE",
"-11 0 LINE",
"138 0 LINE",
"141 18 LINE",
"97 18 LINE SMOOTH",
"92 18 OFFCURVE",
"86 21 OFFCURVE",
"86 28 CURVE SMOOTH",
"86 38 OFFCURVE",
"158 375 OFFCURVE",
"198 565 CURVE",
"278 0 LINE",
"310 0 LINE"
);
}
);
width = 725;
}
);
leftMetricsKey = H;
rightMetricsKey = H;
unicode = 004D;
},
{
glyphname = N;
layers = (
{
anchors = (
{
name = bottom;
position = "{258, 0}";
},
{
name = top;
position = "{392, 630}";
}
);
background = {
paths = (
{
closed = 1;
nodes = (
"262 630 LINE",
"122 630 LINE",
"119 612 LINE",
"163 612 LINE SMOOTH",
"168 612 OFFCURVE",
"174 610 OFFCURVE",
"174 604 CURVE SMOOTH",
"174 600 OFFCURVE",
"163 549 OFFCURVE",
"54 33 CURVE SMOOTH",
"52 23 OFFCURVE",
"48 18 OFFCURVE",
"38 18 CURVE SMOOTH",
"-8 18 LINE",
"-11 0 LINE",
"138 0 LINE",
"141 18 LINE",
"97 18 LINE SMOOTH",
"92 18 OFFCURVE",
"86 21 OFFCURVE",
"86 28 CURVE SMOOTH",
"86 38 OFFCURVE",
"167 418 OFFCURVE",
"206 603 CURVE",
"197 610 LINE",
"437 0 LINE",
"467 0 LINE",
"593 598 LINE SMOOTH",
"596 610 OFFCURVE",
"603 612 OFFCURVE",
"610 612 CURVE SMOOTH",
"655 612 LINE",
"658 630 LINE",
"510 630 LINE",
"507 612 LINE",
"551 612 LINE SMOOTH",
"556 612 OFFCURVE",
"562 610 OFFCURVE",
"562 604 CURVE SMOOTH",
"562 598 OFFCURVE",
"517 391 OFFCURVE",
"455 97 CURVE",
"470 102 LINE"
);
}
);
};
hints = (
{
horizontal = 1;
place = "{224, -20}";
target = down;
type = TopGhost;
},
{
horizontal = 1;
place = "{-406, 21}";
target = up;
type = BottomGhost;
}
);
layerId = UUID0;
paths = (
{
closed = 1;
nodes = (
"262 630 LINE",
"122 630 LINE",
"119 612 LINE",
"163 612 LINE SMOOTH",
"168 612 OFFCURVE",
"174 610 OFFCURVE",
"174 604 CURVE SMOOTH",
"174 600 OFFCURVE",
"163 549 OFFCURVE",
"54 33 CURVE SMOOTH",
"52 23 OFFCURVE",
"48 18 OFFCURVE",
"38 18 CURVE SMOOTH",
"-8 18 LINE",
"-11 0 LINE",
"138 0 LINE",
"141 18 LINE",
"97 18 LINE SMOOTH",
"92 18 OFFCURVE",
"86 21 OFFCURVE",
"86 28 CURVE SMOOTH",
"86 38 OFFCURVE",
"167 418 OFFCURVE",
"206 603 CURVE",
"197 610 LINE",
"437 0 LINE",
"467 0 LINE",
"593 598 LINE SMOOTH",
"596 610 OFFCURVE",
"603 612 OFFCURVE",
"610 612 CURVE SMOOTH",
"655 612 LINE",
"658 630 LINE",
"510 630 LINE",
"507 612 LINE",
"551 612 LINE SMOOTH",
"556 612 OFFCURVE",
"562 610 OFFCURVE",
"562 604 CURVE SMOOTH",
"562 598 OFFCURVE",
"517 391 OFFCURVE",
"455 97 CURVE",
"470 102 LINE"
);
}
);
width = 600;
}
);
leftMetricsKey = H;
rightKerningGroup = N;
unicode = 004E;
},
{
glyphname = Eng;
layers = (
{
background = {
paths = (
{
closed = 1;
nodes = (
"262 630 LINE",
"122 630 LINE",
"119 612 LINE",
"163 612 LINE SMOOTH",
"168 612 OFFCURVE",
"174 610 OFFCURVE",
"174 604 CURVE SMOOTH",
"174 600 OFFCURVE",
"163 549 OFFCURVE",
"54 33 CURVE SMOOTH",
"52 23 OFFCURVE",
"48 18 OFFCURVE",
"38 18 CURVE SMOOTH",
"-8 18 LINE",
"-11 0 LINE",
"138 0 LINE",
"141 18 LINE",
"97 18 LINE SMOOTH",
"92 18 OFFCURVE",
"86 21 OFFCURVE",
"86 28 CURVE SMOOTH",
"86 38 OFFCURVE",
"167 418 OFFCURVE",
"206 603 CURVE",
"197 610 LINE",
"437 0 LINE",
"467 0 LINE",
"593 598 LINE SMOOTH",
"596 610 OFFCURVE",
"603 612 OFFCURVE",
"610 612 CURVE SMOOTH",
"655 612 LINE",
"658 630 LINE",
"510 630 LINE",
"507 612 LINE",
"551 612 LINE SMOOTH",
"556 612 OFFCURVE",
"562 610 OFFCURVE",
"562 604 CURVE SMOOTH",
"562 598 OFFCURVE",
"517 391 OFFCURVE",
"455 97 CURVE",
"470 102 LINE"
);
},
{
closed = 0;
nodes = (
"431 106 LINE SMOOTH",
"388 -109 OFFCURVE",
"370 -205 OFFCURVE",
"312 -205 CURVE SMOOTH",
"286 -205 OFFCURVE",
"276 -186 OFFCURVE",
"276 -162 CURVE SMOOTH",
"276 -137 OFFCURVE",
"289 -106 OFFCURVE",
"306 -93 CURVE",
"299 -85 OFFCURVE",
"283 -80 OFFCURVE",
"267 -80 CURVE SMOOTH",
"234 -80 OFFCURVE",
"222 -124 OFFCURVE",
"222 -148 CURVE SMOOTH",
"222 -191 OFFCURVE",
"249 -228 OFFCURVE",
"302 -228 CURVE SMOOTH",
"383 -228 OFFCURVE",
"431 -141 OFFCURVE",
"473 32 CURVE SMOOTH",
"568 425 LINE"
);
}
);
};
hints = (
{
horizontal = 1;
place = "{-228, 147}";
},
{
horizontal = 1;
place = "{630, -20}";
target = down;
type = TopGhost;
},
{
horizontal = 1;
place = "{0, 21}";
target = up;
type = BottomGhost;
}
);
layerId = UUID0;
paths = (
{
closed = 1;
nodes = (
"262 630 LINE",
"122 630 LINE",
"119 612 LINE",
"163 612 LINE SMOOTH",
"168 612 OFFCURVE",
"174 610 OFFCURVE",
"174 604 CURVE SMOOTH",
"174 600 OFFCURVE",
"163 549 OFFCURVE",
"54 33 CURVE SMOOTH",
"52 23 OFFCURVE",
"48 18 OFFCURVE",
"38 18 CURVE SMOOTH",
"-8 18 LINE",
"-11 0 LINE",
"138 0 LINE",
"141 18 LINE",
"97 18 LINE SMOOTH",
"92 18 OFFCURVE",
"86 21 OFFCURVE",
"86 28 CURVE SMOOTH",
"86 38 OFFCURVE",
"167 418 OFFCURVE",
"206 603 CURVE",
"197 610 LINE",
"437 0 LINE",
"467 0 LINE",
"593 598 LINE SMOOTH",
"596 610 OFFCURVE",
"603 612 OFFCURVE",
"610 612 CURVE SMOOTH",
"655 612 LINE",
"658 630 LINE",
"510 630 LINE",
"507 612 LINE",
"551 612 LINE SMOOTH",
"556 612 OFFCURVE",
"562 610 OFFCURVE",
"562 604 CURVE SMOOTH",
"562 598 OFFCURVE",
"517 391 OFFCURVE",
"455 97 CURVE",
"470 102 LINE"
);
},
{
closed = 1;
nodes = (
"403 -157 OFFCURVE",
"383 -205 OFFCURVE",
"330 -205 CURVE SMOOTH",
"303 -205 OFFCURVE",
"289 -190 OFFCURVE",
"289 -162 CURVE SMOOTH",
"289 -136 OFFCURVE",
"302 -106 OFFCURVE",
"319 -93 CURVE",
"312 -85 OFFCURVE",
"297 -80 OFFCURVE",
"280 -80 CURVE SMOOTH",
"256 -80 OFFCURVE",
"235 -111 OFFCURVE",
"235 -148 CURVE SMOOTH",
"235 -196 OFFCURVE",
"267 -228 OFFCURVE",
"315 -228 CURVE SMOOTH",
"391 -228 OFFCURVE",
"431 -168 OFFCURVE",
"467 0 CURVE",
"455 97 LINE"
);
}
);
width = 600;
}
);
leftMetricsKey = N;
rightKerningGroup = N;
rightMetricsKey = N;
unicode = 014A;
},
{
glyphname = O;
layers = (
{
anchors = (
{
name = bottom;
position = "{275, 0}";
},
{
name = center;
position = "{342, 315}";
},
{
name = ogonek;
position = "{329, 0}";
},
{
name = top;
position = "{409, 630}";
},
{
name = topleft;
position = "{115, 630}";
},
{
name = topright;
position = "{577, 612}";
}
);
background = {
paths = (
{
closed = 1;
nodes = (
"141 70 OFFCURVE",
"225 -12 OFFCURVE",
"355 -12 CURVE SMOOTH",
"582 -12 OFFCURVE",
"708 224 OFFCURVE",
"708 415 CURVE SMOOTH",
"708 561 OFFCURVE",
"624 642 OFFCURVE",
"494 642 CURVE SMOOTH",
"269 642 OFFCURVE",
"141 405 OFFCURVE",
"141 216 CURVE SMOOTH"
);
},
{
closed = 1;
nodes = (
"577 616 OFFCURVE",
"638 547 OFFCURVE",
"638 423 CURVE SMOOTH",
"638 274 OFFCURVE",
"544 14 OFFCURVE",
"357 14 CURVE SMOOTH",
"270 14 OFFCURVE",
"211 82 OFFCURVE",
"211 206 CURVE SMOOTH",
"211 356 OFFCURVE",
"304 616 OFFCURVE",
"491 616 CURVE SMOOTH"
);
}
);
};
hints = (
{
place = "{-418, -398}";
},
{
place = "{79, -398}";
},
{
horizontal = 1;
place = "{-480, -442}";
},
{
horizontal = 1;
place = "{148, -442}";
}
);
layerId = UUID0;
paths = (
{
closed = 1;
nodes = (
"57 70 OFFCURVE",
"141 -12 OFFCURVE",
"271 -12 CURVE SMOOTH",
"498 -12 OFFCURVE",
"624 224 OFFCURVE",
"624 415 CURVE SMOOTH",
"624 561 OFFCURVE",
"540 642 OFFCURVE",
"410 642 CURVE SMOOTH",
"185 642 OFFCURVE",
"57 405 OFFCURVE",
"57 216 CURVE SMOOTH"
);
},
{
closed = 1;
nodes = (
"493 616 OFFCURVE",
"554 547 OFFCURVE",
"554 423 CURVE SMOOTH",
"554 274 OFFCURVE",
"460 14 OFFCURVE",
"273 14 CURVE SMOOTH",
"186 14 OFFCURVE",
"127 82 OFFCURVE",
"127 206 CURVE SMOOTH",
"127 356 OFFCURVE",
"220 616 OFFCURVE",
"407 616 CURVE SMOOTH"
);
}
);
width = 639;
}
);
leftKerningGroup = O;
rightKerningGroup = O;
unicode = 004F;
},
{
glyphname = OE;
layers = (
{
hints = (
{
place = "{50, 70}";
},
{
place = "{507, 70}";
},
{
horizontal = 1;
place = "{-12, 26}";
},
{
horizontal = 1;
place = "{301, 28}";
},
{
horizontal = 1;
place = "{607, 23}";
},
{
horizontal = 1;
place = "{607, 35}";
},
{
horizontal = 1;
place = "{0, 21}";
target = up;
type = BottomGhost;
}
);
layerId = UUID0;
paths = (
{
closed = 1;
nodes = (
"577 326 LINE",
"582 356 OFFCURVE",
"585 386 OFFCURVE",
"585 415 CURVE SMOOTH",
"585 505 OFFCURVE",
"555 570 OFFCURVE",
"504 607 CURVE",
"786 607 LINE SMOOTH",
"799 607 OFFCURVE",
"808 604 OFFCURVE",
"808 590 CURVE",
"795 463 LINE",
"817 463 LINE",
"827 510 LINE SMOOTH",
"839 565 OFFCURVE",
"855 621 OFFCURVE",
"863 639 CURVE",
"845 634 OFFCURVE",
"809 630 OFFCURVE",
"755 630 CURVE SMOOTH",
"460 630 LINE",
"438 638 OFFCURVE",
"413 642 OFFCURVE",
"386 642 CURVE SMOOTH",
"177 642 OFFCURVE",
"58 405 OFFCURVE",
"58 216 CURVE SMOOTH",
"58 70 OFFCURVE",
"136 -12 OFFCURVE",
"257 -12 CURVE SMOOTH",
"285 -12 OFFCURVE",
"311 -7 OFFCURVE",
"336 0 CURVE",
"636 0 LINE SMOOTH",
"689 0 OFFCURVE",
"723 -4 OFFCURVE",
"739 -9 CURVE",
"739 10 OFFCURVE",
"746 64 OFFCURVE",
"758 120 CURVE SMOOTH",
"768 167 LINE",
"746 167 LINE",
"704 45 LINE SMOOTH",
"698 27 OFFCURVE",
"688 23 OFFCURVE",
"673 23 CURVE SMOOTH",
"389 23 LINE",
"484 77 OFFCURVE",
"547 189 OFFCURVE",
"572 303 CURVE"
);
},
{
closed = 1;
nodes = (
"460 616 OFFCURVE",
"515 547 OFFCURVE",
"515 423 CURVE SMOOTH",
"515 274 OFFCURVE",
"430 14 OFFCURVE",
"260 14 CURVE SMOOTH",
"181 14 OFFCURVE",
"128 82 OFFCURVE",
"128 206 CURVE SMOOTH",
"128 356 OFFCURVE",
"212 616 OFFCURVE",
"382 616 CURVE SMOOTH"
);
},
{
closed = 1;
nodes = (
"511 301 LINE",
"711 301 LINE SMOOTH",
"719 301 OFFCURVE",
"722 295 OFFCURVE",
"722 287 CURVE",
"713 225 LINE",
"730 225 LINE",
"769 405 LINE",
"752 405 LINE",
"732 343 LINE SMOOTH",
"730 336 OFFCURVE",
"725 330 OFFCURVE",
"718 329 CURVE",
"516 329 LINE"
);
}
);
width = 838;
}
);
leftKerningGroup = O;
leftMetricsKey = O;
rightKerningGroup = E;
rightMetricsKey = E;
unicode = 0152;
},
{
glyphname = P;
layers = (
{
anchors = (
{
name = bottom;
position = "{176, 0}";
},
{
name = top;
position = "{310, 630}";
}
);
background = {
paths = (
{
closed = 1;
nodes = (
"122 0 LINE",
"190 0 LINE",
"323 630 LINE",
"255 630 LINE"
);
},
{
closed = 1;
nodes = (
"194 612 LINE",
"239 612 LINE SMOOTH",
"245 612 OFFCURVE",
"249 607 OFFCURVE",
"249 600 CURVE SMOOTH",
"249 600 OFFCURVE",
"249 599 OFFCURVE",
"249 598 CURVE",
"255 630 LINE",
"255 630 OFFCURVE",
"197 630 OFFCURVE",
"197 630 CURVE"
);
},
{
closed = 1;
nodes = (
"128 32 LINE",
"127 24 OFFCURVE",
"119 18 OFFCURVE",
"112 18 CURVE SMOOTH",
"67 18 LINE",
"64 0 LINE",
"277 0 LINE",
"280 18 LINE",
"206 18 LINE SMOOTH",
"200 18 OFFCURVE",
"196 23 OFFCURVE",
"196 29 CURVE SMOOTH",
"196 30 OFFCURVE",
"196 31 OFFCURVE",
"196 32 CURVE"
);
},
{
closed = 1;
nodes = (
"207 274 LINE",
"201 251 LINE",
"340 251 LINE SMOOTH",
"451 251 OFFCURVE",
"576 338 OFFCURVE",
"576 487 CURVE SMOOTH",
"576 579 OFFCURVE",
"508 630 OFFCURVE",
"420 630 CURVE SMOOTH",
"281 630 LINE",
"275 607 LINE",
"409 607 LINE SMOOTH",
"480 607 OFFCURVE",
"510 553 OFFCURVE",
"510 491 CURVE SMOOTH",
"510 397 OFFCURVE",
"443 274 OFFCURVE",
"341 274 CURVE SMOOTH"
);
}
);
};
hints = (
{
place = "{50, -340}";
},
{
horizontal = 1;
place = "{-155, -383}";
},
{
horizontal = 1;
place = "{201, -383}";
},
{
horizontal = 1;
place = "{-406, 21}";
target = up;
type = BottomGhost;
}
);
layerId = UUID0;
paths = (
{
closed = 1;
nodes = (
"265 251 LINE SMOOTH",
"376 251 OFFCURVE",
"501 338 OFFCURVE",
"501 487 CURVE SMOOTH",
"501 579 OFFCURVE",
"433 630 OFFCURVE",
"345 630 CURVE SMOOTH",
"122 630 LINE",
"119 612 LINE",
"163 612 LINE SMOOTH",
"168 612 OFFCURVE",
"174 610 OFFCURVE",
"174 604 CURVE SMOOTH",
"174 600 OFFCURVE",
"163 549 OFFCURVE",
"54 33 CURVE SMOOTH",
"52 23 OFFCURVE",
"48 18 OFFCURVE",
"38 18 CURVE SMOOTH",
"-8 18 LINE",
"-11 0 LINE",
"202 0 LINE",
"205 18 LINE",
"132 18 LINE SMOOTH",
"127 18 OFFCURVE",
"121 21 OFFCURVE",
"121 28 CURVE SMOOTH",
"121 33 OFFCURVE",
"141 131 OFFCURVE",
"167 251 CURVE"
);
},
{
closed = 1;
nodes = (
"334 607 LINE SMOOTH",
"405 607 OFFCURVE",
"435 553 OFFCURVE",
"435 491 CURVE SMOOTH",
"435 397 OFFCURVE",
"368 274 OFFCURVE",
"266 274 CURVE SMOOTH",
"172 274 LINE",
"243 607 LINE"
);
}
);
width = 486;
}
);
leftMetricsKey = H;
rightKerningGroup = P;
unicode = 0050;
},
{
glyphname = Thorn;
layers = (
{
hints = (
{
place = "{429, 66}";
},
{
horizontal = 1;
place = "{125, 23}";
},
{
horizontal = 1;
place = "{481, 23}";
},
{
horizontal = 1;
place = "{630, -20}";
target = down;
type = TopGhost;
},
{
horizontal = 1;
place = "{0, 21}";
target = up;
type = BottomGhost;
}
);
layerId = UUID0;
paths = (
{
closed = 1;
nodes = (
"238 125 LINE SMOOTH",
"349 125 OFFCURVE",
"474 212 OFFCURVE",
"474 361 CURVE SMOOTH",
"474 453 OFFCURVE",
"406 504 OFFCURVE",
"318 504 CURVE SMOOTH",
"221 504 LINE",
"241 598 LINE SMOOTH",
"244 610 OFFCURVE",
"251 612 OFFCURVE",
"258 612 CURVE SMOOTH",
"303 612 LINE",
"306 630 LINE",
"122 630 LINE",
"119 612 LINE",
"163 612 LINE SMOOTH",
"168 612 OFFCURVE",
"174 610 OFFCURVE",
"174 604 CURVE SMOOTH",
"174 600 OFFCURVE",
"163 549 OFFCURVE",
"54 33 CURVE SMOOTH",
"52 23 OFFCURVE",
"48 18 OFFCURVE",
"38 18 CURVE SMOOTH",
"-8 18 LINE",
"-11 0 LINE",
"173 0 LINE",
"176 18 LINE",
"132 18 LINE SMOOTH",
"127 18 OFFCURVE",
"121 21 OFFCURVE",
"121 28 CURVE SMOOTH",
"121 31 OFFCURVE",
"128 61 OFFCURVE",
"141 125 CURVE SMOOTH"
);
},
{
closed = 1;
nodes = (
"307 481 LINE SMOOTH",
"378 481 OFFCURVE",
"408 427 OFFCURVE",
"408 365 CURVE SMOOTH",
"408 271 OFFCURVE",
"341 148 OFFCURVE",
"239 148 CURVE SMOOTH",
"145 148 LINE",
"216 481 LINE"
);
}
);
width = 486;
}
);
leftMetricsKey = H;
rightMetricsKey = P;
unicode = 00DE;
},
{
glyphname = Q;
layers = (
{
anchors = (
{
name = bottom;
position = "{284, 0}";
},
{
name = top;
position = "{418, 630}";
}
);
hints = (
{
horizontal = 1;
origin = "{0, 51}";
target = "{0, 6}";
},
{
horizontal = 1;
origin = "{0, 48}";
target = "{0, 9}";
},
{
horizontal = 1;
origin = "{0, 22}";
target = "{0, 29}";
},
{
horizontal = 1;
origin = "{0, 16}";
target = "{0, 35}";
},
{
origin = "{0, 19}";
target = "{0, 32}";
},
{
origin = "{0, 38}";
target = "{0, 13}";
}
);
layerId = UUID0;
paths = (
{
closed = 1;
nodes = (
"379 -198 OFFCURVE",
"428 -151 OFFCURVE",
"482 -49 CURVE",
"470 -43 LINE",
"431 -106 OFFCURVE",
"387 -139 OFFCURVE",
"343 -139 CURVE SMOOTH",
"289 -139 OFFCURVE",
"246 -90 OFFCURVE",
"188 -90 CURVE",
"188 -85 LINE",
"379 -85 OFFCURVE",
"625 105 OFFCURVE",
"625 397 CURVE SMOOTH",
"625 568 OFFCURVE",
"541 642 OFFCURVE",
"414 642 CURVE SMOOTH",
"185 642 OFFCURVE",
"58 404 OFFCURVE",
"58 222 CURVE SMOOTH",
"58 90 OFFCURVE",
"125 -11 OFFCURVE",
"250 -11 CURVE SMOOTH",
"281 -11 OFFCURVE",
"314 -5 OFFCURVE",
"352 9 CURVE",
"346 27 LINE",
"318 18 OFFCURVE",
"293 14 OFFCURVE",
"271 14 CURVE SMOOTH",
"164 14 OFFCURVE",
"128 110 OFFCURVE",
"128 205 CURVE SMOOTH",
"128 356 OFFCURVE",
"220 616 OFFCURVE",
"409 616 CURVE SMOOTH",
"494 616 OFFCURVE",
"555 564 OFFCURVE",
"555 388 CURVE SMOOTH",
"555 16 OFFCURVE",
"283 -45 OFFCURVE",
"187 -63 CURVE SMOOTH",
"140 -72 OFFCURVE",
"102 -76 OFFCURVE",
"66 -179 CURVE",
"78 -184 LINE",
"104 -137 OFFCURVE",
"126 -116 OFFCURVE",
"158 -116 CURVE SMOOTH",
"221 -116 OFFCURVE",
"254 -198 OFFCURVE",
"326 -198 CURVE SMOOTH"
);
}
);
width = 645;
}
);
leftKerningGroup = O;
leftMetricsKey = O;
rightKerningGroup = O;
rightMetricsKey = O;
unicode = 0051;
},
{
glyphname = R;
layers = (
{
anchors = (
{
name = bottom;
position = "{257, 0}";
},
{
name = top;
position = "{311, 630}";
}
);
background = {
paths = (
{
closed = 1;
nodes = (
"134 0 LINE",
"202 0 LINE",
"335 630 LINE",
"267 630 LINE"
);
},
{
closed = 1;
nodes = (
"206 612 LINE",
"251 612 LINE SMOOTH",
"257 612 OFFCURVE",
"261 607 OFFCURVE",
"261 600 CURVE SMOOTH",
"261 600 OFFCURVE",
"261 599 OFFCURVE",
"261 598 CURVE",
"267 630 LINE",
"267 630 OFFCURVE",
"209 630 OFFCURVE",
"209 630 CURVE"
);
},
{
closed = 1;
nodes = (
"140 32 LINE",
"139 24 OFFCURVE",
"131 18 OFFCURVE",
"124 18 CURVE SMOOTH",
"79 18 LINE",
"76 0 LINE",
"279 0 LINE",
"282 18 LINE",
"218 18 LINE SMOOTH",
"212 18 OFFCURVE",
"208 23 OFFCURVE",
"208 29 CURVE SMOOTH",
"208 30 OFFCURVE",
"208 31 OFFCURVE",
"208 32 CURVE"
);
},
{
closed = 1;
nodes = (
"228 315 LINE",
"221 291 LINE",
"364 291 LINE SMOOTH",
"475 291 OFFCURVE",
"596 369 OFFCURVE",
"596 498 CURVE SMOOTH",
"596 581 OFFCURVE",
"526 630 OFFCURVE",
"436 630 CURVE SMOOTH",
"293 630 LINE",
"287 607 LINE",
"426 607 LINE SMOOTH",
"497 607 OFFCURVE",
"530 558 OFFCURVE",
"530 499 CURVE SMOOTH",
"530 418 OFFCURVE",
"467 315 OFFCURVE",
"367 315 CURVE SMOOTH"
);
},
{
closed = 1;
nodes = (
"325 291 LINE",
"406 291 OFFCURVE",
"432 261 OFFCURVE",
"432 202 CURVE SMOOTH",
"432 150 OFFCURVE",
"413 105 OFFCURVE",
"413 58 CURVE SMOOTH",
"413 5 OFFCURVE",
"440 -12 OFFCURVE",
"465 -12 CURVE SMOOTH",
"524 -12 OFFCURVE",
"567 31 OFFCURVE",
"603 139 CURVE",
"586 143 LINE",
"560 62 OFFCURVE",
"525 22 OFFCURVE",
"497 22 CURVE SMOOTH",
"481 22 OFFCURVE",
"475 33 OFFCURVE",
"475 50 CURVE SMOOTH",
"475 82 OFFCURVE",
"494 137 OFFCURVE",
"494 189 CURVE SMOOTH",
"494 254 OFFCURVE",
"464 313 OFFCURVE",
"330 313 CURVE"
);
}
);
};
hints = (
{
place = "{-107, -392}";
},
{
place = "{-88, -411}";
},
{
place = "{10, -388}";
},
{
place = "{-88, -392}";
},
{
horizontal = 1;
place = "{-466, -420}";
},
{
horizontal = 1;
place = "{-454, -432}";
},
{
horizontal = 1;
place = "{-163, -430}";
},
{
horizontal = 1;
place = "{153, -431}";
}
);
layerId = UUID0;
paths = (
{
closed = 1;
nodes = (
"238 291 LINE SMOOTH",
"319 291 OFFCURVE",
"345 261 OFFCURVE",
"345 202 CURVE SMOOTH",
"345 150 OFFCURVE",
"326 105 OFFCURVE",
"326 58 CURVE SMOOTH",
"326 5 OFFCURVE",
"353 -12 OFFCURVE",
"378 -12 CURVE SMOOTH",
"437 -12 OFFCURVE",
"480 31 OFFCURVE",
"516 139 CURVE",
"499 143 LINE",
"473 62 OFFCURVE",
"438 22 OFFCURVE",
"410 22 CURVE SMOOTH",
"394 22 OFFCURVE",
"388 33 OFFCURVE",
"388 50 CURVE SMOOTH",
"388 82 OFFCURVE",
"407 137 OFFCURVE",
"407 189 CURVE SMOOTH",
"407 234 OFFCURVE",
"392 277 OFFCURVE",
"337 298 CURVE",
"428 321 OFFCURVE",
"509 392 OFFCURVE",
"509 498 CURVE SMOOTH",
"509 581 OFFCURVE",
"439 630 OFFCURVE",
"349 630 CURVE SMOOTH",
"122 630 LINE",
"119 612 LINE",
"163 612 LINE SMOOTH",
"168 612 OFFCURVE",
"174 610 OFFCURVE",
"174 604 CURVE SMOOTH",
"174 600 OFFCURVE",
"163 549 OFFCURVE",
"54 33 CURVE SMOOTH",
"52 23 OFFCURVE",
"48 18 OFFCURVE",
"38 18 CURVE SMOOTH",
"-8 18 LINE",
"-11 0 LINE",
"193 0 LINE",
"196 18 LINE",
"132 18 LINE SMOOTH",
"127 18 OFFCURVE",
"121 21 OFFCURVE",
"121 28 CURVE SMOOTH",
"121 33 OFFCURVE",
"146 153 OFFCURVE",
"175 291 CURVE"
);
},
{
closed = 1;
nodes = (
"339 607 LINE SMOOTH",
"410 607 OFFCURVE",
"443 558 OFFCURVE",
"443 499 CURVE SMOOTH",
"443 418 OFFCURVE",
"380 315 OFFCURVE",
"280 315 CURVE SMOOTH",
"180 315 LINE",
"243 607 LINE"
);
}
);
width = 542;
}
);
leftMetricsKey = H;
rightKerningGroup = R;
unicode = 0052;
},
{
glyphname = S;
layers = (
{
anchors = (
{
name = bottom;
position = "{204, 0}";
},
{
name = top;
position = "{318, 630}";
}
);
background = {
paths = (
{
closed = 1;
nodes = (
"415 -12 OFFCURVE",
"518 95 OFFCURVE",
"518 193 CURVE SMOOTH",
"518 241 OFFCURVE",
"493 287 OFFCURVE",
"435 317 CURVE SMOOTH",
"332 370 LINE SMOOTH",
"290 392 OFFCURVE",
"271 430 OFFCURVE",
"271 470 CURVE SMOOTH",
"271 539 OFFCURVE",
"328 613 OFFCURVE",
"420 613 CURVE SMOOTH",
"485 613 OFFCURVE",
"535 579 OFFCURVE",
"535 492 CURVE SMOOTH",
"535 483 OFFCURVE",
"534 473 OFFCURVE",
"533 463 CURVE",
"550 463 LINE",
"587 636 LINE",
"569 636 LINE",
"563 616 LINE SMOOTH",
"558 601 OFFCURVE",
"553 595 OFFCURVE",
"546 595 CURVE SMOOTH",
"527 595 OFFCURVE",
"498 642 OFFCURVE",
"426 642 CURVE SMOOTH",
"294 642 OFFCURVE",
"211 541 OFFCURVE",
"211 445 CURVE SMOOTH",
"211 388 OFFCURVE",
"240 334 OFFCURVE",
"305 302 CURVE SMOOTH",
"385 261 LINE SMOOTH",
"430 239 OFFCURVE",
"447 206 OFFCURVE",
"447 167 CURVE SMOOTH",
"447 96 OFFCURVE",
"386 17 OFFCURVE",
"290 17 CURVE SMOOTH",
"212 17 OFFCURVE",
"152 52 OFFCURVE",
"152 143 CURVE SMOOTH",
"152 151 OFFCURVE",
"152 159 OFFCURVE",
"153 167 CURVE",
"135 167 LINE",
"100 0 LINE",
"119 0 LINE",
"123 28 OFFCURVE",
"133 35 OFFCURVE",
"142 35 CURVE SMOOTH",
"163 35 OFFCURVE",
"195 -12 OFFCURVE",
"283 -12 CURVE SMOOTH"
);
}
);
};
hints = (
{
horizontal = 1;
place = "{-528, -487}";
},
{
horizontal = 1;
place = "{97, -487}";
},
{
horizontal = 1;
place = "{120, -20}";
target = down;
type = TopGhost;
},
{
horizontal = 1;
place = "{-516, 21}";
target = up;
type = BottomGhost;
}
);
layerId = UUID0;
paths = (
{
closed = 1;
nodes = (
"321 -12 OFFCURVE",
"424 95 OFFCURVE",
"424 193 CURVE SMOOTH",
"424 241 OFFCURVE",
"399 287 OFFCURVE",
"341 317 CURVE SMOOTH",
"238 370 LINE SMOOTH",
"196 392 OFFCURVE",
"177 430 OFFCURVE",
"177 470 CURVE SMOOTH",
"177 539 OFFCURVE",
"234 613 OFFCURVE",
"326 613 CURVE SMOOTH",
"391 613 OFFCURVE",
"441 579 OFFCURVE",
"441 492 CURVE SMOOTH",
"441 483 OFFCURVE",
"440 473 OFFCURVE",
"439 463 CURVE",
"456 463 LINE",
"493 636 LINE",
"475 636 LINE",
"470 619 LINE SMOOTH",
"465 604 OFFCURVE",
"460 598 OFFCURVE",
"453 598 CURVE SMOOTH",
"434 598 OFFCURVE",
"404 642 OFFCURVE",
"324 642 CURVE SMOOTH",
"200 642 OFFCURVE",
"117 541 OFFCURVE",
"117 445 CURVE SMOOTH",
"117 388 OFFCURVE",
"146 334 OFFCURVE",
"211 302 CURVE SMOOTH",
"291 261 LINE SMOOTH",
"336 239 OFFCURVE",
"353 206 OFFCURVE",
"353 167 CURVE SMOOTH",
"353 96 OFFCURVE",
"292 17 OFFCURVE",
"196 17 CURVE SMOOTH",
"118 17 OFFCURVE",
"58 52 OFFCURVE",
"58 143 CURVE SMOOTH",
"58 151 OFFCURVE",
"58 159 OFFCURVE",
"59 167 CURVE",
"41 167 LINE",
"6 0 LINE",
"25 0 LINE",
"29 28 OFFCURVE",
"39 35 OFFCURVE",
"48 35 CURVE SMOOTH",
"69 35 OFFCURVE",
"101 -12 OFFCURVE",
"198 -12 CURVE SMOOTH"
);
}
);
width = 477;
}
);
leftKerningGroup = S;
rightKerningGroup = S;
unicode = 0053;
},
{
glyphname = Germandbls;
layers = (
{
hints = (
{
place = "{-125, 54}";
},
{
place = "{184, 54}";
},
{
place = "{264, 58}";
},
{
place = "{390, 57}";
},
{
place = "{441, 57}";
},
{
horizontal = 1;
place = "{-228, 23}";
},
{
horizontal = 1;
place = "{-12, 22}";
},
{
horizontal = 1;
place = "{637, 23}";
}
);
layerId = UUID0;
paths = (
{
closed = 1;
nodes = (
"232 560 OFFCURVE",
"289 619 OFFCURVE",
"367 619 CURVE SMOOTH",
"425 619 OFFCURVE",
"460 587 OFFCURVE",
"460 535 CURVE SMOOTH",
"460 421 OFFCURVE",
"287 359 OFFCURVE",
"287 262 CURVE SMOOTH",
"287 234 OFFCURVE",
"301 221 OFFCURVE",
"319 206 CURVE SMOOTH",
"377 157 LINE SMOOTH",
"396 141 OFFCURVE",
"413 125 OFFCURVE",
"413 100 CURVE SMOOTH",
"413 57 OFFCURVE",
"365 10 OFFCURVE",
"310 10 CURVE SMOOTH",
"278 10 OFFCURVE",
"261 27 OFFCURVE",
"261 54 CURVE SMOOTH",
"261 75 OFFCURVE",
"272 102 OFFCURVE",
"285 124 CURVE",
"280 132 OFFCURVE",
"265 138 OFFCURVE",
"253 138 CURVE SMOOTH",
"219 138 OFFCURVE",
"207 93 OFFCURVE",
"207 65 CURVE SMOOTH",
"207 12 OFFCURVE",
"252 -12 OFFCURVE",
"305 -12 CURVE SMOOTH",
"405 -12 OFFCURVE",
"470 71 OFFCURVE",
"470 135 CURVE SMOOTH",
"470 173 OFFCURVE",
"447 197 OFFCURVE",
"424 216 CURVE SMOOTH",
"379 254 LINE SMOOTH",
"358 272 OFFCURVE",
"345 284 OFFCURVE",
"345 303 CURVE SMOOTH",
"345 369 OFFCURVE",
"517 433 OFFCURVE",
"517 539 CURVE SMOOTH",
"517 596 OFFCURVE",
"466 642 OFFCURVE",
"375 642 CURVE SMOOTH",
"236 642 OFFCURVE",
"160 534 OFFCURVE",
"128 384 CURVE SMOOTH",
"54 33 LINE SMOOTH",
"52 23 OFFCURVE",
"48 18 OFFCURVE",
"38 18 CURVE SMOOTH",
"-8 18 LINE",
"-11 0 LINE",
"115 0 LINE",
"210 453 LINE SMOOTH"
);
}
);
width = 524;
}
);
leftMetricsKey = H;
rightMetricsKey = H;
unicode = 1E9E;
},
{
glyphname = Schwa;
layers = (
{
background = {
paths = (
{
closed = 1;
nodes = (
"31 70 OFFCURVE",
"115 -12 OFFCURVE",
"245 -12 CURVE SMOOTH",
"472 -12 OFFCURVE",
"598 224 OFFCURVE",
"598 415 CURVE SMOOTH",
"598 561 OFFCURVE",
"514 642 OFFCURVE",
"384 642 CURVE SMOOTH",
"159 642 OFFCURVE",
"31 405 OFFCURVE",
"31 216 CURVE SMOOTH"
);
},
{
closed = 1;
nodes = (
"467 616 OFFCURVE",
"528 547 OFFCURVE",
"528 423 CURVE SMOOTH",
"528 274 OFFCURVE",
"434 14 OFFCURVE",
"247 14 CURVE SMOOTH",
"160 14 OFFCURVE",
"101 82 OFFCURVE",
"101 206 CURVE SMOOTH",
"101 356 OFFCURVE",
"194 616 OFFCURVE",
"381 616 CURVE SMOOTH"
);
}
);
};
hints = (
{
horizontal = 1;
place = "{-12, 0}";
},
{
horizontal = 1;
place = "{281, 0}";
},
{
horizontal = 1;
place = "{642, 0}";
},
{
place = "{35, 0}";
},
{
place = "{469, 0}";
}
);
layerId = UUID0;
paths = (
{
closed = 1;
nodes = (
"511 203 OFFCURVE",
"386 14 OFFCURVE",
"242 14 CURVE SMOOTH",
"158 14 OFFCURVE",
"110 65 OFFCURVE",
"110 156 CURVE SMOOTH",
"110 208 OFFCURVE",
"130 280 OFFCURVE",
"137 300 CURVE",
"117 281 LINE",
"514 281 LINE",
"520 309 LINE",
"68 309 LINE",
"61 286 OFFCURVE",
"48 213 OFFCURVE",
"48 178 CURVE SMOOTH",
"48 57 OFFCURVE",
"116 -12 OFFCURVE",
"234 -12 CURVE SMOOTH",
"422 -12 OFFCURVE",
"583 178 OFFCURVE",
"583 396 CURVE SMOOTH",
"583 547 OFFCURVE",
"496 642 OFFCURVE",
"361 642 CURVE SMOOTH",
"244 642 OFFCURVE",
"141 559 OFFCURVE",
"90 416 CURVE",
"108 412 LINE",
"155 535 OFFCURVE",
"248 616 OFFCURVE",
"346 616 CURVE SMOOTH",
"452 616 OFFCURVE",
"511 547 OFFCURVE",
"511 417 CURVE SMOOTH"
);
}
);
width = 602;
}
);
leftKerningGroup = O;
leftMetricsKey = O;
rightKerningGroup = O;
rightMetricsKey = O;
unicode = 018F;
},
{
glyphname = T;
layers = (
{
anchors = (
{
name = bottom;
position = "{223, 0}";
},
{
name = center;
position = "{290, 315}";
},
{
name = top;
position = "{357, 630}";
}
);
background = {
paths = (
{
closed = 1;
nodes = (
"240 0 LINE",
"317 0 LINE",
"450 630 LINE",
"373 630 LINE"
);
},
{
closed = 1;
nodes = (
"444 602 LINE",
"567 602 LINE SMOOTH",
"581 602 OFFCURVE",
"590 598 OFFCURVE",
"590 584 CURVE SMOOTH",
"590 583 OFFCURVE",
"590 581 OFFCURVE",
"590 580 CURVE",
"579 463 LINE",
"601 463 LINE",
"611 510 LINE SMOOTH",
"623 565 OFFCURVE",
"638 621 OFFCURVE",
"646 639 CURVE",
"628 634 OFFCURVE",
"592 630 OFFCURVE",
"539 630 CURVE SMOOTH",
"450 630 LINE"
);
},
{
closed = 1;
nodes = (
"246 32 LINE",
"245 24 OFFCURVE",
"237 18 OFFCURVE",
"229 18 CURVE SMOOTH",
"147 18 LINE",
"144 0 LINE",
"413 0 LINE",
"416 18 LINE",
"334 18 LINE SMOOTH",
"327 18 OFFCURVE",
"323 23 OFFCURVE",
"323 30 CURVE SMOOTH",
"323 30 OFFCURVE",
"323 31 OFFCURVE",
"323 32 CURVE"
);
},
{
closed = 1;
nodes = (
"373 630 LINE",
"284 630 LINE SMOOTH",
"231 630 OFFCURVE",
"197 634 OFFCURVE",
"181 639 CURVE",
"181 621 OFFCURVE",
"174 565 OFFCURVE",
"162 510 CURVE SMOOTH",
"152 463 LINE",
"174 463 LINE",
"213 580 LINE SMOOTH",
"219 598 OFFCURVE",
"229 602 OFFCURVE",
"244 602 CURVE SMOOTH",
"367 602 LINE"
);
}
);
};
hints = (
{
horizontal = 1;
place = "{268, -306}";
},
{
horizontal = 1;
place = "{305, -20}";
target = down;
type = TopGhost;
},
{
horizontal = 1;
place = "{-334, 21}";
target = up;
type = BottomGhost;
}
);
layerId = UUID0;
paths = (
{
closed = 1;
nodes = (
"229 630 LINE SMOOTH",
"176 630 OFFCURVE",
"142 634 OFFCURVE",
"126 639 CURVE",
"126 621 OFFCURVE",
"119 565 OFFCURVE",
"107 510 CURVE SMOOTH",
"97 463 LINE",
"119 463 LINE",
"158 580 LINE SMOOTH",
"164 598 OFFCURVE",
"174 602 OFFCURVE",
"189 602 CURVE SMOOTH",
"316 602 LINE",
"196 33 LINE SMOOTH",
"194 23 OFFCURVE",
"190 18 OFFCURVE",
"180 18 CURVE SMOOTH",
"92 18 LINE",
"89 0 LINE",
"357 0 LINE",
"360 18 LINE",
"274 18 LINE SMOOTH",
"269 18 OFFCURVE",
"263 21 OFFCURVE",
"263 28 CURVE SMOOTH",
"263 30 OFFCURVE",
"267 53 OFFCURVE",
"275 88 CURVE SMOOTH",
"384 602 LINE",
"512 602 LINE SMOOTH",
"526 602 OFFCURVE",
"535 598 OFFCURVE",
"535 584 CURVE",
"524 463 LINE",
"546 463 LINE",
"556 510 LINE SMOOTH",
"568 565 OFFCURVE",
"583 621 OFFCURVE",
"591 639 CURVE",
"573 634 OFFCURVE",
"537 630 OFFCURVE",
"484 630 CURVE"
);
}
);
width = 537;
}
);
leftKerningGroup = T;
rightKerningGroup = T;
unicode = 0054;
},
{
glyphname = U;
layers = (
{
anchors = (
{
name = bottom;
position = "{278, 0}";
},
{
name = ogonek;
position = "{335, 0}";
},
{
name = top;
position = "{402, 630}";
},
{
name = topright;
position = "{665, 612}";
}
);
hints = (
{
place = "{-298, -313}";
},
{
horizontal = 1;
place = "{-392, -347}";
},
{
horizontal = 1;
place = "{250, -20}";
target = down;
type = TopGhost;
}
);
layerId = UUID0;
paths = (
{
closed = 1;
nodes = (
"81 195 LINE SMOOTH",
"76 173 OFFCURVE",
"74 153 OFFCURVE",
"74 135 CURVE SMOOTH",
"74 33 OFFCURVE",
"144 -12 OFFCURVE",
"247 -12 CURVE SMOOTH",
"371 -12 OFFCURVE",
"470 51 OFFCURVE",
"501 195 CURVE SMOOTH",
"586 598 LINE SMOOTH",
"588 606 OFFCURVE",
"592 612 OFFCURVE",
"603 612 CURVE SMOOTH",
"648 612 LINE",
"651 630 LINE",
"502 630 LINE",
"499 612 LINE",
"544 612 LINE SMOOTH",
"551 612 OFFCURVE",
"554 607 OFFCURVE",
"554 601 CURVE",
"468 194 LINE SMOOTH",
"441 65 OFFCURVE",
"337 21 OFFCURVE",
"269 21 CURVE SMOOTH",
"196 21 OFFCURVE",
"141 55 OFFCURVE",
"141 137 CURVE SMOOTH",
"141 152 OFFCURVE",
"143 169 OFFCURVE",
"147 188 CURVE SMOOTH",
"234 598 LINE SMOOTH",
"237 610 OFFCURVE",
"244 612 OFFCURVE",
"251 612 CURVE SMOOTH",
"296 612 LINE",
"299 630 LINE",
"115 630 LINE",
"112 612 LINE",
"157 612 LINE SMOOTH",
"162 612 OFFCURVE",
"168 610 OFFCURVE",
"168 604 CURVE"
);
}
);
width = 591;
}
);
leftKerningGroup = U;
rightKerningGroup = U;
unicode = 0055;
},
{
glyphname = V;
layers = (
{
anchors = (
{
name = bottom;
position = "{275, 0}";
},
{
name = top;
position = "{409, 630}";
}
);
background = {
paths = (
{
closed = 1;
nodes = (
"480 630 LINE",
"480 612 LINE",
"530 612 LINE",
"321 0 LINE",
"355 0 LINE",
"560 598 LINE",
"563 606 OFFCURVE",
"568 612 OFFCURVE",
"579 612 CURVE SMOOTH",
"616 612 LINE",
"616 630 LINE"
);
},
{
closed = 1;
nodes = (
"60 630 LINE",
"60 612 LINE",
"97 612 LINE SMOOTH",
"108 612 OFFCURVE",
"113 606 OFFCURVE",
"116 598 CURVE",
"321 0 LINE",
"346 0 LINE",
"380 74 LINE",
"200 612 LINE",
"250 612 LINE",
"250 630 LINE"
);
},
{
closed = 1;
nodes = (
"201 509 OFFCURVE",
"217 493 OFFCURVE",
"236 493 CURVE SMOOTH",
"255 493 OFFCURVE",
"271 509 OFFCURVE",
"271 528 CURVE SMOOTH",
"271 547 OFFCURVE",
"255 563 OFFCURVE",
"236 563 CURVE SMOOTH",
"217 563 OFFCURVE",
"201 547 OFFCURVE",
"201 528 CURVE SMOOTH"
);
},
{
closed = 1;
nodes = (
"247 110 OFFCURVE",
"263 94 OFFCURVE",
"282 94 CURVE SMOOTH",
"301 94 OFFCURVE",
"317 110 OFFCURVE",
"317 129 CURVE SMOOTH",
"317 148 OFFCURVE",
"301 164 OFFCURVE",
"282 164 CURVE SMOOTH",
"263 164 OFFCURVE",
"247 148 OFFCURVE",
"247 129 CURVE SMOOTH"
);
},
{
closed = 1;
nodes = (
"146 630 LINE",
"143 612 LINE",
"178 612 LINE SMOOTH",
"188 612 OFFCURVE",
"192 606 OFFCURVE",
"193 598 CURVE SMOOTH",
"261 0 LINE",
"293 0 LINE",
"615 598 LINE SMOOTH",
"619 606 OFFCURVE",
"625 612 OFFCURVE",
"636 612 CURVE SMOOTH",
"671 612 LINE",
"674 630 LINE",
"545 630 LINE",
"542 612 LINE",
"589 612 LINE",
"327 124 LINE",
"276 612 LINE",
"323 612 LINE",
"326 630 LINE"
);
}
);
};
hints = (
{
horizontal = 1;
place = "{406, -20}";
target = down;
type = TopGhost;
},
{
horizontal = 1;
place = "{-224, 21}";
target = up;
type = BottomGhost;
}
);
layerId = UUID0;
paths = (
{
closed = 1;
nodes = (
"111 630 LINE",
"108 612 LINE",
"143 612 LINE SMOOTH",
"153 612 OFFCURVE",
"157 606 OFFCURVE",
"158 598 CURVE SMOOTH",
"226 0 LINE",
"258 0 LINE",
"580 598 LINE SMOOTH",
"584 606 OFFCURVE",
"590 612 OFFCURVE",
"601 612 CURVE SMOOTH",
"636 612 LINE",
"639 630 LINE",
"510 630 LINE",
"507 612 LINE",
"554 612 LINE",
"284 109 LINE",
"227 612 LINE",
"274 612 LINE",
"277 630 LINE"
);
}
);
width = 575;
}
);
leftKerningGroup = V;
rightKerningGroup = V;
unicode = 0056;
},
{
glyphname = W;
layers = (
{
anchors = (
{
name = bottom;
position = "{389, 0}";
},
{
name = top;
position = "{523, 630}";
}
);
background = {
paths = (
{
closed = 1;
nodes = (
"849 630 LINE",
"846 612 LINE",
"893 612 LINE",
"650 132 LINE",
"608 612 LINE",
"656 612 LINE",
"659 630 LINE",
"478 630 LINE",
"475 612 LINE",
"510 612 LINE SMOOTH",
"521 612 OFFCURVE",
"524 606 OFFCURVE",
"525 598 CURVE SMOOTH",
"530 551 LINE",
"310 129 LINE",
"277 612 LINE",
"324 612 LINE",
"327 630 LINE",
"147 630 LINE",
"144 612 LINE",
"179 612 LINE SMOOTH",
"189 612 OFFCURVE",
"193 606 OFFCURVE",
"194 598 CURVE SMOOTH",
"243 0 LINE",
"275 0 LINE",
"534 498 LINE",
"584 0 LINE",
"616 0 LINE",
"919 598 LINE SMOOTH",
"923 606 OFFCURVE",
"929 612 OFFCURVE",
"940 612 CURVE SMOOTH",
"975 612 LINE",
"978 630 LINE"
);
},
{
closed = 1;
nodes = (
"200 509 OFFCURVE",
"216 493 OFFCURVE",
"235 493 CURVE SMOOTH",
"254 493 OFFCURVE",
"270 509 OFFCURVE",
"270 528 CURVE SMOOTH",
"270 547 OFFCURVE",
"254 563 OFFCURVE",
"235 563 CURVE SMOOTH",
"216 563 OFFCURVE",
"200 547 OFFCURVE",
"200 528 CURVE SMOOTH"
);
},
{
closed = 1;
nodes = (
"232 123 OFFCURVE",
"248 107 OFFCURVE",
"267 107 CURVE SMOOTH",
"286 107 OFFCURVE",
"302 123 OFFCURVE",
"302 142 CURVE SMOOTH",
"302 161 OFFCURVE",
"286 177 OFFCURVE",
"267 177 CURVE SMOOTH",
"248 177 OFFCURVE",
"232 161 OFFCURVE",
"232 142 CURVE SMOOTH"
);
},
{
closed = 1;
nodes = (
"232 123 OFFCURVE",
"248 107 OFFCURVE",
"267 107 CURVE SMOOTH",
"286 107 OFFCURVE",
"302 123 OFFCURVE",
"302 142 CURVE SMOOTH",
"302 161 OFFCURVE",
"286 177 OFFCURVE",
"267 177 CURVE SMOOTH",
"248 177 OFFCURVE",
"232 161 OFFCURVE",
"232 142 CURVE SMOOTH"
);
},
{
closed = 1;
nodes = (
"571 123 OFFCURVE",
"587 107 OFFCURVE",
"606 107 CURVE SMOOTH",
"625 107 OFFCURVE",
"641 123 OFFCURVE",
"641 142 CURVE SMOOTH",
"641 161 OFFCURVE",
"625 177 OFFCURVE",
"606 177 CURVE SMOOTH",
"587 177 OFFCURVE",
"571 161 OFFCURVE",
"571 142 CURVE SMOOTH"
);
},
{
closed = 1;
nodes = (
"528 552 OFFCURVE",
"544 536 OFFCURVE",
"563 536 CURVE SMOOTH",
"582 536 OFFCURVE",
"598 552 OFFCURVE",
"598 571 CURVE SMOOTH",
"598 590 OFFCURVE",
"582 606 OFFCURVE",
"563 606 CURVE SMOOTH",
"544 606 OFFCURVE",
"528 590 OFFCURVE",
"528 571 CURVE SMOOTH"
);
}
);
};
hints = (
{
horizontal = 1;
place = "{402, -20}";
target = down;
type = TopGhost;
},
{
horizontal = 1;
place = "{-228, 21}";
target = up;
type = BottomGhost;
}
);
layerId = UUID0;
paths = (
{
closed = 1;
nodes = (
"813 630 LINE",
"810 612 LINE",
"857 612 LINE",
"608 120 LINE",
"558 612 LINE",
"606 612 LINE",
"609 630 LINE",
"442 630 LINE",
"439 612 LINE",
"474 612 LINE SMOOTH",
"485 612 OFFCURVE",
"488 606 OFFCURVE",
"489 598 CURVE SMOOTH",
"494 551 LINE",
"268 117 LINE",
"227 612 LINE",
"274 612 LINE",
"277 630 LINE",
"111 630 LINE",
"108 612 LINE",
"143 612 LINE SMOOTH",
"153 612 OFFCURVE",
"157 606 OFFCURVE",
"158 598 CURVE SMOOTH",
"207 0 LINE",
"239 0 LINE",
"498 498 LINE",
"548 0 LINE",
"580 0 LINE",
"883 598 LINE SMOOTH",
"887 606 OFFCURVE",
"893 612 OFFCURVE",
"904 612 CURVE SMOOTH",
"939 612 LINE",
"942 630 LINE"
);
}
);
width = 878;
}
);
leftKerningGroup = V;
rightKerningGroup = V;
unicode = 0057;
},
{
glyphname = X;
layers = (
{
anchors = (
{
name = bottom;
position = "{260, 0}";
},
{
name = top;
position = "{394, 630}";
}
);
background = {
paths = (
{
closed = 1;
nodes = (
"327 321 LINE",
"89 32 LINE SMOOTH",
"83 25 OFFCURVE",
"79 18 OFFCURVE",
"68 18 CURVE SMOOTH",
"33 18 LINE",
"30 0 LINE",
"160 0 LINE",
"163 18 LINE",
"116 18 LINE",
"338 289 LINE"
);
},
{
closed = 1;
nodes = (
"422 18 LINE",
"375 18 LINE",
"372 0 LINE",
"538 0 LINE",
"541 18 LINE",
"506 18 LINE SMOOTH",
"496 18 OFFCURVE",
"494 24 OFFCURVE",
"491 32 CURVE SMOOTH",
"288 612 LINE",
"336 612 LINE",
"339 630 LINE",
"172 630 LINE",
"169 612 LINE",
"205 612 LINE SMOOTH",
"215 612 OFFCURVE",
"217 606 OFFCURVE",
"220 598 CURVE SMOOTH"
);
},
{
closed = 1;
nodes = (
"604 600 LINE",
"609 606 OFFCURVE",
"615 612 OFFCURVE",
"625 612 CURVE SMOOTH",
"660 612 LINE",
"663 630 LINE",
"533 630 LINE",
"530 612 LINE",
"577 612 LINE",
"354 340 LINE",
"370 316 LINE"
);
}
);
};
hints = (
{
horizontal = 1;
place = "{-282, 21}";
target = up;
type = BottomGhost;
},
{
horizontal = 1;
place = "{348, -20}";
target = down;
type = TopGhost;
}
);
layerId = UUID0;
paths = (
{
closed = 1;
nodes = (
"375 18 LINE",
"328 18 LINE",
"325 0 LINE",
"491 0 LINE",
"494 18 LINE",
"459 18 LINE SMOOTH",
"449 18 OFFCURVE",
"447 24 OFFCURVE",
"444 32 CURVE SMOOTH",
"338 334 LINE",
"557 600 LINE SMOOTH",
"562 606 OFFCURVE",
"568 612 OFFCURVE",
"578 612 CURVE SMOOTH",
"613 612 LINE",
"616 630 LINE",
"486 630 LINE",
"483 612 LINE",
"530 612 LINE",
"327 365 LINE",
"241 612 LINE",
"289 612 LINE",
"292 630 LINE",
"125 630 LINE",
"122 612 LINE",
"158 612 LINE SMOOTH",
"168 612 OFFCURVE",
"170 606 OFFCURVE",
"173 598 CURVE SMOOTH",
"272 312 LINE",
"42 32 LINE SMOOTH",
"36 25 OFFCURVE",
"32 18 OFFCURVE",
"21 18 CURVE SMOOTH",
"-14 18 LINE",
"-17 0 LINE",
"113 0 LINE",
"116 18 LINE",
"69 18 LINE",
"283 280 LINE"
);
}
);
width = 565;
}
);
unicode = 0058;
},
{
glyphname = Y;
layers = (
{
anchors = (
{
name = bottom;
position = "{229, 0}";
},
{
name = top;
position = "{363, 630}";
},
{
name = topleft;
position = "{155, 630}";
}
);
background = {
paths = (
{
closed = 1;
nodes = (
"350 229 LINE",
"575 598 LINE SMOOTH",
"580 606 OFFCURVE",
"585 612 OFFCURVE",
"596 612 CURVE SMOOTH",
"631 612 LINE",
"634 630 LINE",
"505 630 LINE",
"502 612 LINE",
"549 612 LINE",
"348 280 LINE",
"274 612 LINE",
"321 612 LINE",
"324 630 LINE",
"143 630 LINE",
"140 612 LINE",
"175 612 LINE SMOOTH",
"185 612 OFFCURVE",
"188 606 OFFCURVE",
"190 598 CURVE SMOOTH",
"272 230 LINE"
);
},
{
closed = 1;
nodes = (
"356 602 LINE",
"236 33 LINE SMOOTH",
"234 23 OFFCURVE",
"230 18 OFFCURVE",
"220 18 CURVE SMOOTH",
"132 18 LINE",
"129 0 LINE",
"397 0 LINE",
"400 18 LINE",
"314 18 LINE SMOOTH",
"309 18 OFFCURVE",
"303 21 OFFCURVE",
"303 28 CURVE SMOOTH",
"303 37 OFFCURVE",
"381 399 OFFCURVE",
"424 602 CURVE"
);
},
{
closed = 1;
nodes = (
"196 554 OFFCURVE",
"212 538 OFFCURVE",
"231 538 CURVE SMOOTH",
"250 538 OFFCURVE",
"266 554 OFFCURVE",
"266 573 CURVE SMOOTH",
"266 592 OFFCURVE",
"250 608 OFFCURVE",
"231 608 CURVE SMOOTH",
"212 608 OFFCURVE",
"196 592 OFFCURVE",
"196 573 CURVE SMOOTH"
);
},
{
closed = 1;
nodes = (
"263 258 OFFCURVE",
"279 242 OFFCURVE",
"298 242 CURVE SMOOTH",
"317 242 OFFCURVE",
"333 258 OFFCURVE",
"333 277 CURVE SMOOTH",
"333 296 OFFCURVE",
"317 312 OFFCURVE",
"298 312 CURVE SMOOTH",
"279 312 OFFCURVE",
"263 296 OFFCURVE",
"263 277 CURVE SMOOTH"
);
}
);
};
hints = (
{
horizontal = 1;
place = "{418, -20}";
target = down;
type = TopGhost;
},
{
horizontal = 1;
place = "{-212, 21}";
target = up;
type = BottomGhost;
}
);
layerId = UUID0;
paths = (
{
closed = 1;
nodes = (
"294 190 LINE",
"543 598 LINE SMOOTH",
"548 606 OFFCURVE",
"553 612 OFFCURVE",
"564 612 CURVE SMOOTH",
"599 612 LINE",
"602 630 LINE",
"473 630 LINE",
"470 612 LINE",
"517 612 LINE",
"306 257 LINE",
"226 612 LINE",
"273 612 LINE",
"276 630 LINE",
"111 630 LINE",
"108 612 LINE",
"143 612 LINE SMOOTH",
"153 612 OFFCURVE",
"156 606 OFFCURVE",
"158 598 CURVE SMOOTH",
"250 185 LINE"
);
},
{
closed = 1;
nodes = (
"248 242 LINE",
"204 33 LINE SMOOTH",
"202 23 OFFCURVE",
"198 18 OFFCURVE",
"188 18 CURVE SMOOTH",
"120 18 LINE",
"117 0 LINE",
"345 0 LINE",
"348 18 LINE",
"282 18 LINE SMOOTH",
"277 18 OFFCURVE",
"271 21 OFFCURVE",
"271 28 CURVE SMOOTH",
"271 32 OFFCURVE",
"289 116 OFFCURVE",
"312 225 CURVE"
);
}
);
width = 538;
}
);
leftKerningGroup = V;
rightKerningGroup = V;
unicode = 0059;
},
{
glyphname = Z;
layers = (
{
anchors = (
{
name = bottom;
position = "{205, 0}";
},
{
name = top;
position = "{354, 630}";
}
);
background = {
paths = (
{
closed = 1;
nodes = (
"70 28 LINE",
"65 0 LINE",
"198 0 LINE",
"201 18 LINE",
"154 18 LINE",
"625 602 LINE",
"631 630 LINE",
"498 630 LINE",
"495 612 LINE",
"542 612 LINE"
);
},
{
closed = 1;
nodes = (
"121 0 LINE",
"392 0 LINE SMOOTH",
"445 0 OFFCURVE",
"480 -4 OFFCURVE",
"496 -9 CURVE",
"496 10 OFFCURVE",
"502 65 OFFCURVE",
"514 120 CURVE SMOOTH",
"524 167 LINE",
"502 167 LINE",
"463 50 LINE SMOOTH",
"457 32 OFFCURVE",
"447 28 OFFCURVE",
"431 28 CURVE SMOOTH",
"126 28 LINE"
);
},
{
closed = 1;
nodes = (
"631 630 LINE",
"324 630 LINE SMOOTH",
"271 630 OFFCURVE",
"237 634 OFFCURVE",
"220 639 CURVE",
"220 621 OFFCURVE",
"214 565 OFFCURVE",
"202 510 CURVE SMOOTH",
"192 463 LINE",
"214 463 LINE",
"253 580 LINE SMOOTH",
"259 598 OFFCURVE",
"268 602 OFFCURVE",
"284 602 CURVE SMOOTH",
"625 602 LINE"
);
}
);
};
hints = (
{
horizontal = 1;
place = "{-402, -374}";
},
{
horizontal = 1;
place = "{200, -374}";
},
{
horizontal = 1;
place = "{-411, 21}";
target = up;
type = BottomGhost;
},
{
horizontal = 1;
place = "{237, -20}";
target = down;
type = TopGhost;
}
);
layerId = UUID0;
paths = (
{
closed = 1;
nodes = (
"3 0 LINE",
"320 0 LINE SMOOTH",
"373 0 OFFCURVE",
"408 -4 OFFCURVE",
"424 -9 CURVE",
"424 10 OFFCURVE",
"430 65 OFFCURVE",
"442 120 CURVE SMOOTH",
"452 167 LINE",
"430 167 LINE",
"391 50 LINE SMOOTH",
"385 32 OFFCURVE",
"375 28 OFFCURVE",
"359 28 CURVE SMOOTH",
"65 28 LINE",
"60 9 LINE",
"553 602 LINE",
"549 630 LINE",
"252 630 LINE SMOOTH",
"199 630 OFFCURVE",
"165 634 OFFCURVE",
"148 639 CURVE",
"148 621 OFFCURVE",
"142 565 OFFCURVE",
"130 510 CURVE SMOOTH",
"120 463 LINE",
"142 463 LINE",
"181 580 LINE SMOOTH",
"187 598 OFFCURVE",
"196 602 OFFCURVE",
"212 602 CURVE SMOOTH",
"487 602 LINE",
"491 621 LINE",
"-2 28 LINE"
);
}
);
width = 516;
}
);
unicode = 005A;
},
{
glyphname = U.horn;
layers = (
{
anchors = (
{
name = bottom;
position = "{278, 0}";
},
{
name = ogonek;
position = "{335, 0}";
},
{
name = top;
position = "{402, 630}";
},
{
name = topright;
position = "{637, 612}";
}
);
hints = (
{
place = "{82, 67}";
},
{
horizontal = 1;
place = "{-12, 33}";
},
{
horizontal = 1;
place = "{630, -20}";
target = down;
type = TopGhost;
}
);
layerId = UUID0;
paths = (
{
closed = 1;
nodes = (
"81 195 LINE SMOOTH",
"76 173 OFFCURVE",
"74 153 OFFCURVE",
"74 135 CURVE SMOOTH",
"74 33 OFFCURVE",
"144 -12 OFFCURVE",
"247 -12 CURVE SMOOTH",
"371 -12 OFFCURVE",
"471 51 OFFCURVE",
"501 195 CURVE SMOOTH",
"592 630 LINE",
"502 630 LINE",
"499 612 LINE",
"544 612 LINE SMOOTH",
"551 612 OFFCURVE",
"554 607 OFFCURVE",
"554 601 CURVE",
"468 194 LINE SMOOTH",
"441 65 OFFCURVE",
"337 21 OFFCURVE",
"269 21 CURVE SMOOTH",
"196 21 OFFCURVE",
"141 55 OFFCURVE",
"141 137 CURVE SMOOTH",
"141 152 OFFCURVE",
"143 169 OFFCURVE",
"147 188 CURVE SMOOTH",
"234 598 LINE SMOOTH",
"237 610 OFFCURVE",
"244 612 OFFCURVE",
"251 612 CURVE SMOOTH",
"296 612 LINE",
"299 630 LINE",
"115 630 LINE",
"112 612 LINE",
"157 612 LINE SMOOTH",
"162 612 OFFCURVE",
"168 610 OFFCURVE",
"168 604 CURVE"
);
}
);
width = 591;
}
);
leftKerningGroup = U;
leftMetricsKey = U;
rightKerningGroup = U;
},
{
glyphname = a;
layers = (
{
anchors = (
{
name = bottom;
position = "{187, 0}";
},
{
name = ogonek;
position = "{397, 0}";
},
{
name = top;
position = "{274, 432}";
}
);
background = {
paths = (
{
closed = 1;
nodes = (
"351 94 OFFCURVE",
"401 287 OFFCURVE",
"448 425 CURVE",
"434 435 LINE",
"403 381 LINE",
"376 421 OFFCURVE",
"334 444 OFFCURVE",
"286 444 CURVE SMOOTH",
"126 444 OFFCURVE",
"43 272 OFFCURVE",
"43 142 CURVE SMOOTH",
"43 45 OFFCURVE",
"92 -12 OFFCURVE",
"153 -12 CURVE SMOOTH",
"192 -12 OFFCURVE",
"244 6 OFFCURVE",
"297 111 CURVE",
"302 111 LINE",
"299 91 OFFCURVE",
"297 74 OFFCURVE",
"297 63 CURVE SMOOTH",
"297 11 OFFCURVE",
"317 -12 OFFCURVE",
"359 -12 CURVE SMOOTH",
"399 -12 OFFCURVE",
"440 22 OFFCURVE",
"471 110 CURVE",
"455 114 LINE",
"433 48 OFFCURVE",
"400 16 OFFCURVE",
"376 16 CURVE SMOOTH",
"359 16 OFFCURVE",
"351 30 OFFCURVE",
"351 49 CURVE SMOOTH"
);
},
{
closed = 1;
nodes = (
"138 18 OFFCURVE",
"109 53 OFFCURVE",
"109 130 CURVE SMOOTH",
"109 227 OFFCURVE",
"161 420 OFFCURVE",
"284 420 CURVE SMOOTH",
"316 420 OFFCURVE",
"342 410 OFFCURVE",
"367 386 CURVE",
"357 350 OFFCURVE",
"348 309 OFFCURVE",
"337 269 CURVE SMOOTH",
"293 102 OFFCURVE",
"230 18 OFFCURVE",
"177 18 CURVE SMOOTH"
);
}
);
};
hints = (
{
place = "{40, 66}";
},
{
place = "{294, 54}";
},
{
horizontal = 1;
place = "{-12, 28}";
},
{
horizontal = 1;
place = "{420, 24}";
}
);
layerId = UUID0;
paths = (
{
closed = 1;
nodes = (
"351 94 OFFCURVE",
"401 287 OFFCURVE",
"448 425 CURVE",
"434 435 LINE",
"403 381 LINE",
"376 421 OFFCURVE",
"334 444 OFFCURVE",
"286 444 CURVE SMOOTH",
"126 444 OFFCURVE",
"43 272 OFFCURVE",
"43 142 CURVE SMOOTH",
"43 45 OFFCURVE",
"92 -12 OFFCURVE",
"153 -12 CURVE SMOOTH",
"192 -12 OFFCURVE",
"244 6 OFFCURVE",
"297 111 CURVE",
"302 111 LINE",
"299 91 OFFCURVE",
"297 74 OFFCURVE",
"297 63 CURVE SMOOTH",
"297 11 OFFCURVE",
"317 -12 OFFCURVE",
"359 -12 CURVE SMOOTH",
"399 -12 OFFCURVE",
"440 22 OFFCURVE",
"471 110 CURVE",
"455 114 LINE",
"433 48 OFFCURVE",
"400 16 OFFCURVE",
"376 16 CURVE SMOOTH",
"359 16 OFFCURVE",
"351 30 OFFCURVE",
"351 49 CURVE SMOOTH"
);
},
{
closed = 1;
nodes = (
"138 18 OFFCURVE",
"109 53 OFFCURVE",
"109 130 CURVE SMOOTH",
"109 227 OFFCURVE",
"161 420 OFFCURVE",
"284 420 CURVE SMOOTH",
"316 420 OFFCURVE",
"342 410 OFFCURVE",
"367 386 CURVE",
"357 350 OFFCURVE",
"348 309 OFFCURVE",
"337 269 CURVE SMOOTH",
"293 102 OFFCURVE",
"230 18 OFFCURVE",
"177 18 CURVE SMOOTH"
);
}
);
width = 526;
}
);
leftKerningGroup = o;
unicode = 0061;
},
{
glyphname = ae;
layers = (
{
anchors = (
{
name = bottom;
position = "{299, 0}";
},
{
name = top;
position = "{392, 438}";
}
);
background = {
paths = (
{
closed = 1;
nodes = (
"351 49 LINE",
"351 94 OFFCURVE",
"401 287 OFFCURVE",
"448 425 CURVE",
"434 435 LINE",
"403 381 LINE",
"376 421 OFFCURVE",
"334 444 OFFCURVE",
"286 444 CURVE SMOOTH",
"126 444 OFFCURVE",
"43 272 OFFCURVE",
"43 142 CURVE SMOOTH",
"43 45 OFFCURVE",
"92 -12 OFFCURVE",
"153 -12 CURVE SMOOTH",
"192 -12 OFFCURVE",
"244 6 OFFCURVE",
"297 111 CURVE",
"302 111 LINE",
"299 91 OFFCURVE",
"297 74 OFFCURVE",
"297 63 CURVE SMOOTH"
);
},
{
closed = 1;
nodes = (
"138 18 OFFCURVE",
"109 53 OFFCURVE",
"109 130 CURVE SMOOTH",
"109 227 OFFCURVE",
"161 420 OFFCURVE",
"284 420 CURVE SMOOTH",
"316 420 OFFCURVE",
"342 410 OFFCURVE",
"367 386 CURVE",
"357 350 OFFCURVE",
"348 309 OFFCURVE",
"337 269 CURVE SMOOTH",
"293 102 OFFCURVE",
"230 18 OFFCURVE",
"177 18 CURVE SMOOTH"
);
},
{
closed = 1;
nodes = (
"662 404 OFFCURVE",
"629 444 OFFCURVE",
"556 444 CURVE SMOOTH",
"402 444 OFFCURVE",
"315 275 OFFCURVE",
"315 147 CURVE SMOOTH",
"315 45 OFFCURVE",
"373 -12 OFFCURVE",
"457 -12 CURVE SMOOTH",
"521 -12 OFFCURVE",
"589 31 OFFCURVE",
"622 116 CURVE",
"606 120 LINE",
"576 50 OFFCURVE",
"524 12 OFFCURVE",
"461 12 CURVE SMOOTH",
"411 12 OFFCURVE",
"381 55 OFFCURVE",
"381 131 CURVE SMOOTH",
"381 227 OFFCURVE",
"434 420 OFFCURVE",
"551 420 CURVE SMOOTH",
"587 420 OFFCURVE",
"606 392 OFFCURVE",
"606 357 CURVE SMOOTH",
"606 300 OFFCURVE",
"552 223 OFFCURVE",
"432 223 CURVE SMOOTH",
"414 223 OFFCURVE",
"395 225 OFFCURVE",
"374 228 CURVE",
"374 209 LINE",
"392 205 OFFCURVE",
"414 203 OFFCURVE",
"438 203 CURVE SMOOTH",
"535 203 OFFCURVE",
"662 238 OFFCURVE",
"662 350 CURVE SMOOTH"
);
}
);
};
hints = (
{
place = "{40, 66}";
},
{
place = "{312, 66}";
},
{
place = "{603, 56}";
},
{
horizontal = 1;
place = "{-12, 24}";
},
{
horizontal = 1;
place = "{203, 20}";
},
{
horizontal = 1;
place = "{420, 24}";
}
);
layerId = UUID0;
paths = (
{
closed = 1;
nodes = (
"662 404 OFFCURVE",
"629 444 OFFCURVE",
"556 444 CURVE SMOOTH",
"501 444 OFFCURVE",
"454 422 OFFCURVE",
"417 388 CURVE",
"432 425 LINE",
"418 435 LINE",
"387 401 LINE",
"365 423 OFFCURVE",
"334 444 OFFCURVE",
"286 444 CURVE SMOOTH",
"126 444 OFFCURVE",
"43 272 OFFCURVE",
"43 142 CURVE SMOOTH",
"43 45 OFFCURVE",
"92 -12 OFFCURVE",
"153 -12 CURVE SMOOTH",
"192 -12 OFFCURVE",
"259 8 OFFCURVE",
"315 147 CURVE",
"315 45 OFFCURVE",
"373 -12 OFFCURVE",
"457 -12 CURVE SMOOTH",
"521 -12 OFFCURVE",
"589 31 OFFCURVE",
"622 116 CURVE",
"606 120 LINE",
"576 50 OFFCURVE",
"524 12 OFFCURVE",
"461 12 CURVE SMOOTH",
"411 12 OFFCURVE",
"381 55 OFFCURVE",
"381 131 CURVE SMOOTH",
"381 152 OFFCURVE",
"383 178 OFFCURVE",
"389 206 CURVE",
"403 204 OFFCURVE",
"420 203 OFFCURVE",
"438 203 CURVE SMOOTH",
"535 203 OFFCURVE",
"662 238 OFFCURVE",
"662 350 CURVE SMOOTH"
);
},
{
closed = 1;
nodes = (
"138 18 OFFCURVE",
"109 53 OFFCURVE",
"109 130 CURVE SMOOTH",
"109 227 OFFCURVE",
"161 420 OFFCURVE",
"284 420 CURVE SMOOTH",
"316 420 OFFCURVE",
"342 410 OFFCURVE",
"367 386 CURVE",
"346 263 OFFCURVE",
"270 18 OFFCURVE",
"177 18 CURVE SMOOTH"
);
},
{
closed = 1;
nodes = (
"587 420 OFFCURVE",
"606 392 OFFCURVE",
"606 357 CURVE SMOOTH",
"606 300 OFFCURVE",
"552 223 OFFCURVE",
"432 223 CURVE SMOOTH",
"419 223 OFFCURVE",
"406 224 OFFCURVE",
"393 225 CURVE",
"414 318 OFFCURVE",
"466 420 OFFCURVE",
"551 420 CURVE SMOOTH"
);
}
);
width = 690;
}
);
leftKerningGroup = o;
leftMetricsKey = a;
rightMetricsKey = e;
unicode = 00E6;
},
{
glyphname = b;
layers = (
{
anchors = (
{
name = bottom;
position = "{190, 0}";
},
{
name = top;
position = "{282, 432}";
}
);
background = {
paths = (
{
closed = 1;
nodes = (
"117 172 LINE",
"160 338 OFFCURVE",
"194 455 OFFCURVE",
"260 647 CURVE",
"246 657 LINE",
"202 645 OFFCURVE",
"165 638 OFFCURVE",
"117 632 CURVE",
"118 615 LINE",
"182 620 LINE",
"25 -6 LINE",
"42 -12 LINE",
"72 63 LINE",
"102 31 LINE",
"171 314 OFFCURVE",
"255 406 OFFCURVE",
"303 406 CURVE SMOOTH",
"337 406 OFFCURVE",
"365 369 OFFCURVE",
"365 298 CURVE SMOOTH",
"365 197 OFFCURVE",
"311 10 OFFCURVE",
"189 10 CURVE SMOOTH",
"147 10 OFFCURVE",
"103 28 OFFCURVE",
"66 86 CURVE",
"57 59 LINE",
"83 17 OFFCURVE",
"133 -12 OFFCURVE",
"192 -12 CURVE SMOOTH",
"352 -12 OFFCURVE",
"435 160 OFFCURVE",
"435 290 CURVE SMOOTH",
"435 387 OFFCURVE",
"386 444 OFFCURVE",
"325 444 CURVE SMOOTH",
"275 444 OFFCURVE",
"211 407 OFFCURVE",
"141 216 CURVE SMOOTH",
"125 172 LINE"
);
}
);
};
hints = (
{
place = "{377, 70}";
},
{
horizontal = 1;
place = "{-12, 22}";
},
{
horizontal = 1;
place = "{406, 38}";
},
{
horizontal = 1;
place = "{657, -20}";
target = down;
type = TopGhost;
}
);
layerId = UUID0;
paths = (
{
closed = 1;
nodes = (
"117 172 LINE",
"160 338 OFFCURVE",
"194 455 OFFCURVE",
"260 647 CURVE",
"246 657 LINE",
"202 645 OFFCURVE",
"165 638 OFFCURVE",
"117 632 CURVE",
"118 615 LINE",
"182 620 LINE",
"25 -6 LINE",
"42 -12 LINE",
"72 63 LINE",
"102 31 LINE",
"171 314 OFFCURVE",
"255 406 OFFCURVE",
"303 406 CURVE SMOOTH",
"337 406 OFFCURVE",
"365 369 OFFCURVE",
"365 298 CURVE SMOOTH",
"365 197 OFFCURVE",
"311 10 OFFCURVE",
"189 10 CURVE SMOOTH",
"147 10 OFFCURVE",
"103 28 OFFCURVE",
"66 86 CURVE",
"57 59 LINE",
"83 17 OFFCURVE",
"133 -12 OFFCURVE",
"192 -12 CURVE SMOOTH",
"352 -12 OFFCURVE",
"435 160 OFFCURVE",
"435 290 CURVE SMOOTH",
"435 387 OFFCURVE",
"386 444 OFFCURVE",
"325 444 CURVE SMOOTH",
"275 444 OFFCURVE",
"211 407 OFFCURVE",
"141 216 CURVE SMOOTH",
"125 172 LINE"
);
}
);
width = 478;
}
);
rightMetricsKey = o;
unicode = 0062;
},
{
glyphname = c;
layers = (
{
anchors = (
{
name = bottom;
position = "{168, 0}";
},
{
name = top;
position = "{260, 432}";
}
);
background = {
paths = (
{
closed = 1;
nodes = (
"311 420 OFFCURVE",
"323 398 OFFCURVE",
"323 368 CURVE SMOOTH",
"323 343 OFFCURVE",
"312 309 OFFCURVE",
"294 282 CURVE",
"302 272 OFFCURVE",
"318 266 OFFCURVE",
"335 266 CURVE SMOOTH",
"372 266 OFFCURVE",
"385 321 OFFCURVE",
"385 350 CURVE SMOOTH",
"385 404 OFFCURVE",
"354 444 OFFCURVE",
"284 444 CURVE SMOOTH",
"130 444 OFFCURVE",
"43 275 OFFCURVE",
"43 147 CURVE SMOOTH",
"43 45 OFFCURVE",
"101 -12 OFFCURVE",
"185 -12 CURVE SMOOTH",
"249 -12 OFFCURVE",
"317 31 OFFCURVE",
"350 116 CURVE",
"334 120 LINE",
"304 50 OFFCURVE",
"252 12 OFFCURVE",
"189 12 CURVE SMOOTH",
"139 12 OFFCURVE",
"109 55 OFFCURVE",
"109 131 CURVE SMOOTH",
"109 227 OFFCURVE",
"162 420 OFFCURVE",
"279 420 CURVE SMOOTH"
);
}
);
};
hints = (
{
place = "{40, 66}";
},
{
place = "{320, 62}";
},
{
horizontal = 1;
place = "{-12, 24}";
},
{
horizontal = 1;
place = "{420, 24}";
}
);
layerId = UUID0;
paths = (
{
closed = 1;
nodes = (
"311 420 OFFCURVE",
"323 398 OFFCURVE",
"323 368 CURVE SMOOTH",
"323 343 OFFCURVE",
"312 309 OFFCURVE",
"294 282 CURVE",
"302 272 OFFCURVE",
"318 266 OFFCURVE",
"335 266 CURVE SMOOTH",
"372 266 OFFCURVE",
"385 321 OFFCURVE",
"385 350 CURVE SMOOTH",
"385 404 OFFCURVE",
"354 444 OFFCURVE",
"284 444 CURVE SMOOTH",
"130 444 OFFCURVE",
"43 275 OFFCURVE",
"43 147 CURVE SMOOTH",
"43 45 OFFCURVE",
"101 -12 OFFCURVE",
"185 -12 CURVE SMOOTH",
"249 -12 OFFCURVE",
"317 31 OFFCURVE",
"350 116 CURVE",
"334 120 LINE",
"304 50 OFFCURVE",
"252 12 OFFCURVE",
"189 12 CURVE SMOOTH",
"139 12 OFFCURVE",
"109 55 OFFCURVE",
"109 131 CURVE SMOOTH",
"109 227 OFFCURVE",
"162 420 OFFCURVE",
"279 420 CURVE SMOOTH"
);
}
);
width = 415;
}
);
leftKerningGroup = o;
leftMetricsKey = o;
unicode = 0063;
},
{
glyphname = d;
layers = (
{
anchors = (
{
name = bottom;
position = "{207, 0}";
},
{
name = center;
position = "{410, 550}";
},
{
name = top;
position = "{464, 630}";
},
{
name = topright;
position = "{518, 432}";
}
);
background = {
paths = (
{
closed = 1;
nodes = (
"351 128 OFFCURVE",
"459 509 OFFCURVE",
"506 647 CURVE",
"492 657 LINE",
"448 645 OFFCURVE",
"411 638 OFFCURVE",
"363 632 CURVE",
"364 615 LINE",
"428 620 LINE",
"396 504 OFFCURVE",
"297 135 OFFCURVE",
"297 63 CURVE SMOOTH",
"297 11 OFFCURVE",
"317 -12 OFFCURVE",
"359 -12 CURVE SMOOTH",
"399 -12 OFFCURVE",
"440 22 OFFCURVE",
"471 110 CURVE",
"455 114 LINE",
"433 48 OFFCURVE",
"400 16 OFFCURVE",
"376 16 CURVE SMOOTH",
"359 16 OFFCURVE",
"351 30 OFFCURVE",
"351 49 CURVE SMOOTH"
);
},
{
closed = 1;
nodes = (
"307 111 LINE",
"345 298 LINE",
"297 113 OFFCURVE",
"233 18 OFFCURVE",
"177 18 CURVE SMOOTH",
"138 18 OFFCURVE",
"109 53 OFFCURVE",
"109 130 CURVE SMOOTH",
"109 227 OFFCURVE",
"161 420 OFFCURVE",
"284 420 CURVE SMOOTH",
"331 420 OFFCURVE",
"367 399 OFFCURVE",
"401 342 CURVE",
"415 360 LINE",
"390 413 OFFCURVE",
"342 444 OFFCURVE",
"286 444 CURVE SMOOTH",
"126 444 OFFCURVE",
"43 272 OFFCURVE",
"43 142 CURVE SMOOTH",
"43 45 OFFCURVE",
"92 -12 OFFCURVE",
"153 -12 CURVE SMOOTH",
"192 -12 OFFCURVE",
"244 6 OFFCURVE",
"297 111 CURVE"
);
}
);
};
hints = (
{
place = "{40, 66}";
},
{
place = "{294, 54}";
},
{
horizontal = 1;
place = "{-12, 30}";
},
{
horizontal = 1;
place = "{420, 24}";
},
{
horizontal = 1;
place = "{657, -20}";
target = down;
type = TopGhost;
}
);
layerId = UUID0;
paths = (
{
closed = 1;
nodes = (
"351 128 OFFCURVE",
"459 509 OFFCURVE",
"506 647 CURVE",
"492 657 LINE",
"448 645 OFFCURVE",
"411 638 OFFCURVE",
"363 632 CURVE",
"364 615 LINE",
"428 620 LINE",
"396 504 OFFCURVE",
"297 135 OFFCURVE",
"297 63 CURVE SMOOTH",
"297 11 OFFCURVE",
"317 -12 OFFCURVE",
"359 -12 CURVE SMOOTH",
"399 -12 OFFCURVE",
"440 22 OFFCURVE",
"471 110 CURVE",
"455 114 LINE",
"433 48 OFFCURVE",
"400 16 OFFCURVE",
"376 16 CURVE SMOOTH",
"359 16 OFFCURVE",
"351 30 OFFCURVE",
"351 49 CURVE SMOOTH"
);
},
{
closed = 1;
nodes = (
"307 111 LINE",
"345 298 LINE",
"297 113 OFFCURVE",
"233 18 OFFCURVE",
"177 18 CURVE SMOOTH",
"138 18 OFFCURVE",
"109 53 OFFCURVE",
"109 130 CURVE SMOOTH",
"109 227 OFFCURVE",
"161 420 OFFCURVE",
"284 420 CURVE SMOOTH",
"331 420 OFFCURVE",
"367 399 OFFCURVE",
"401 342 CURVE",
"415 360 LINE",
"390 413 OFFCURVE",
"342 444 OFFCURVE",
"286 444 CURVE SMOOTH",
"126 444 OFFCURVE",
"43 272 OFFCURVE",
"43 142 CURVE SMOOTH",
"43 45 OFFCURVE",
"92 -12 OFFCURVE",
"153 -12 CURVE SMOOTH",
"192 -12 OFFCURVE",
"244 6 OFFCURVE",
"297 111 CURVE"
);
}
);
width = 526;
}
);
leftKerningGroup = o;
leftMetricsKey = o;
unicode = 0064;
},
{
glyphname = eth;
layers = (
{
background = {
paths = (
{
closed = 1;
nodes = (
"380 373 LINE",
"357 417 OFFCURVE",
"318 437 OFFCURVE",
"275 437 CURVE SMOOTH",
"174 437 OFFCURVE",
"43 322 OFFCURVE",
"43 148 CURVE SMOOTH",
"43 45 OFFCURVE",
"103 -12 OFFCURVE",
"195 -12 CURVE SMOOTH",
"340 -12 OFFCURVE",
"425 163 OFFCURVE",
"425 288 CURVE SMOOTH",
"425 464 OFFCURVE",
"387 586 OFFCURVE",
"233 660 CURVE",
"222 637 LINE",
"292 604 OFFCURVE",
"374 531 OFFCURVE",
"383 374 CURVE"
);
},
{
closed = 1;
nodes = (
"326 409 OFFCURVE",
"360 365 OFFCURVE",
"360 287 CURVE SMOOTH",
"360 189 OFFCURVE",
"304 10 OFFCURVE",
"194 10 CURVE SMOOTH",
"141 10 OFFCURVE",
"106 55 OFFCURVE",
"106 137 CURVE SMOOTH",
"106 235 OFFCURVE",
"161 409 OFFCURVE",
"278 409 CURVE SMOOTH"
);
},
{
closed = 1;
nodes = (
"232 486 LINE",
"464 598 LINE",
"453 633 LINE",
"221 521 LINE"
);
}
);
};
components = (
{
name = slashshortcomb;
transform = "{1, 0, 0, 1, 186, 186}";
}
);
hints = (
{
place = "{45, 63}";
},
{
place = "{362, 68}";
},
{
place = "{385, 45}";
},
{
horizontal = 1;
place = "{-12, 22}";
},
{
horizontal = 1;
place = "{409, 28}";
},
{
horizontal = 1;
place = "{660, -20}";
target = down;
type = TopGhost;
}
);
layerId = UUID0;
paths = (
{
closed = 1;
nodes = (
"380 373 LINE",
"358 414 OFFCURVE",
"321 437 OFFCURVE",
"275 437 CURVE SMOOTH",
"155 437 OFFCURVE",
"43 298 OFFCURVE",
"43 148 CURVE SMOOTH",
"43 48 OFFCURVE",
"100 -12 OFFCURVE",
"195 -12 CURVE SMOOTH",
"329 -12 OFFCURVE",
"428 129 OFFCURVE",
"428 320 CURVE SMOOTH",
"428 485 OFFCURVE",
"352 618 OFFCURVE",
"233 660 CURVE",
"222 637 LINE",
"318 592 OFFCURVE",
"376 497 OFFCURVE",
"383 374 CURVE"
);
},
{
closed = 1;
nodes = (
"328 409 OFFCURVE",
"360 362 OFFCURVE",
"360 287 CURVE SMOOTH",
"360 146 OFFCURVE",
"278 10 OFFCURVE",
"194 10 CURVE SMOOTH",
"139 10 OFFCURVE",
"106 58 OFFCURVE",
"106 137 CURVE SMOOTH",
"106 279 OFFCURVE",
"189 409 OFFCURVE",
"278 409 CURVE SMOOTH"
);
}
);
width = 468;
}
);
leftKerningGroup = o;
leftMetricsKey = o;
rightMetricsKey = o;
unicode = 00F0;
},
{
glyphname = e;
layers = (
{
anchors = (
{
name = bottom;
position = "{178, 0}";
},
{
name = ogonek;
position = "{242, 0}";
},
{
name = top;
position = "{280, 432}";
}
);
background = {
paths = (
{
closed = 1;
nodes = (
"390 404 OFFCURVE",
"357 444 OFFCURVE",
"284 444 CURVE SMOOTH",
"130 444 OFFCURVE",
"43 275 OFFCURVE",
"43 147 CURVE SMOOTH",
"43 45 OFFCURVE",
"101 -12 OFFCURVE",
"185 -12 CURVE SMOOTH",
"249 -12 OFFCURVE",
"317 31 OFFCURVE",
"350 116 CURVE",
"334 120 LINE",
"304 50 OFFCURVE",
"252 12 OFFCURVE",
"189 12 CURVE SMOOTH",
"139 12 OFFCURVE",
"109 55 OFFCURVE",
"109 131 CURVE SMOOTH",
"109 227 OFFCURVE",
"162 420 OFFCURVE",
"279 420 CURVE SMOOTH",
"315 420 OFFCURVE",
"334 392 OFFCURVE",
"334 357 CURVE SMOOTH",
"334 300 OFFCURVE",
"280 223 OFFCURVE",
"160 223 CURVE SMOOTH",
"142 223 OFFCURVE",
"123 225 OFFCURVE",
"102 228 CURVE",
"102 209 LINE",
"120 205 OFFCURVE",
"142 203 OFFCURVE",
"166 203 CURVE SMOOTH",
"263 203 OFFCURVE",
"390 238 OFFCURVE",
"390 350 CURVE SMOOTH"
);
}
);
};
hints = (
{
place = "{40, 66}";
},
{
place = "{331, 56}";
},
{
horizontal = 1;
place = "{-12, 24}";
},
{
horizontal = 1;
place = "{203, 20}";
},
{
horizontal = 1;
place = "{420, 24}";
}
);
layerId = UUID0;
paths = (
{
closed = 1;
nodes = (
"390 404 OFFCURVE",
"357 444 OFFCURVE",
"284 444 CURVE SMOOTH",
"130 444 OFFCURVE",
"43 275 OFFCURVE",
"43 147 CURVE SMOOTH",
"43 45 OFFCURVE",
"101 -12 OFFCURVE",
"185 -12 CURVE SMOOTH",
"249 -12 OFFCURVE",
"317 31 OFFCURVE",
"350 116 CURVE",
"334 120 LINE",
"304 50 OFFCURVE",
"252 12 OFFCURVE",
"189 12 CURVE SMOOTH",
"139 12 OFFCURVE",
"109 55 OFFCURVE",
"109 131 CURVE SMOOTH",
"109 227 OFFCURVE",
"162 420 OFFCURVE",
"279 420 CURVE SMOOTH",
"315 420 OFFCURVE",
"334 392 OFFCURVE",
"334 357 CURVE SMOOTH",
"334 300 OFFCURVE",
"280 223 OFFCURVE",
"160 223 CURVE SMOOTH",
"142 223 OFFCURVE",
"123 225 OFFCURVE",
"102 228 CURVE",
"102 209 LINE",
"120 205 OFFCURVE",
"142 203 OFFCURVE",
"166 203 CURVE SMOOTH",
"263 203 OFFCURVE",
"390 238 OFFCURVE",
"390 350 CURVE SMOOTH"
);
}
);
width = 418;
}
);
leftKerningGroup = o;
leftMetricsKey = o;
rightKerningGroup = o;
unicode = 0065;
},
{
glyphname = f;
layers = (
{
anchors = (
{
name = bottom;
position = "{117, 0}";
},
{
name = top;
position = "{209, 432}";
}
);
background = {
paths = (
{
closed = 1;
nodes = (
"95 396 LINE",
"317 396 LINE",
"322 415 LINE",
"100 415 LINE"
);
},
{
closed = 1;
nodes = (
"235 471 LINE SMOOTH",
"255 565 OFFCURVE",
"285 637 OFFCURVE",
"347 637 CURVE SMOOTH",
"379 637 OFFCURVE",
"391 617 OFFCURVE",
"391 591 CURVE SMOOTH",
"391 569 OFFCURVE",
"380 539 OFFCURVE",
"362 516 CURVE",
"370 507 OFFCURVE",
"386 502 OFFCURVE",
"403 502 CURVE SMOOTH",
"440 502 OFFCURVE",
"453 551 OFFCURVE",
"453 577 CURVE SMOOTH",
"453 624 OFFCURVE",
"422 660 OFFCURVE",
"352 660 CURVE SMOOTH",
"253 660 OFFCURVE",
"181 531 OFFCURVE",
"155 402 CURVE SMOOTH",
"97 106 LINE SMOOTH",
"54 -109 OFFCURVE",
"36 -205 OFFCURVE",
"-22 -205 CURVE SMOOTH",
"-48 -205 OFFCURVE",
"-58 -186 OFFCURVE",
"-58 -162 CURVE SMOOTH",
"-58 -137 OFFCURVE",
"-45 -106 OFFCURVE",
"-28 -93 CURVE",
"-35 -85 OFFCURVE",
"-51 -80 OFFCURVE",
"-67 -80 CURVE SMOOTH",
"-100 -80 OFFCURVE",
"-112 -124 OFFCURVE",
"-112 -148 CURVE SMOOTH",
"-112 -191 OFFCURVE",
"-85 -228 OFFCURVE",
"-32 -228 CURVE SMOOTH",
"49 -228 OFFCURVE",
"103 -142 OFFCURVE",
"141 32 CURVE SMOOTH"
);
}
);
};
hints = (
{
place = "{-125, 54}";
},
{
place = "{378, 62}";
},
{
horizontal = 1;
place = "{-228, 23}";
},
{
horizontal = 1;
place = "{637, 23}";
}
);
layerId = UUID0;
paths = (
{
closed = 1;
nodes = (
"65 396 LINE",
"317 396 LINE",
"322 415 LINE",
"70 415 LINE"
);
},
{
closed = 1;
nodes = (
"235 471 LINE SMOOTH",
"255 565 OFFCURVE",
"285 637 OFFCURVE",
"347 637 CURVE SMOOTH",
"379 637 OFFCURVE",
"391 617 OFFCURVE",
"391 591 CURVE SMOOTH",
"391 569 OFFCURVE",
"380 539 OFFCURVE",
"362 516 CURVE",
"370 507 OFFCURVE",
"386 502 OFFCURVE",
"403 502 CURVE SMOOTH",
"440 502 OFFCURVE",
"453 551 OFFCURVE",
"453 577 CURVE SMOOTH",
"453 624 OFFCURVE",
"422 660 OFFCURVE",
"352 660 CURVE SMOOTH",
"253 660 OFFCURVE",
"181 531 OFFCURVE",
"155 402 CURVE SMOOTH",
"97 106 LINE SMOOTH",
"54 -109 OFFCURVE",
"36 -205 OFFCURVE",
"-22 -205 CURVE SMOOTH",
"-48 -205 OFFCURVE",
"-58 -186 OFFCURVE",
"-58 -162 CURVE SMOOTH",
"-58 -137 OFFCURVE",
"-45 -106 OFFCURVE",
"-28 -93 CURVE",
"-35 -85 OFFCURVE",
"-51 -80 OFFCURVE",
"-67 -80 CURVE SMOOTH",
"-100 -80 OFFCURVE",
"-112 -124 OFFCURVE",
"-112 -148 CURVE SMOOTH",
"-112 -191 OFFCURVE",
"-85 -228 OFFCURVE",
"-32 -228 CURVE SMOOTH",
"49 -228 OFFCURVE",
"103 -142 OFFCURVE",
"141 32 CURVE SMOOTH"
);
}
);
width = 306;
}
);
leftKerningGroup = f;
rightKerningGroup = f;
unicode = 0066;
},
{
glyphname = g;
layers = (
{
anchors = (
{
name = bottom;
position = "{127, -228}";
},
{
name = top;
position = "{257, 432}";
}
);
background = {
paths = (
{
closed = 1;
nodes = (
"105 58 LINE SMOOTH",
"77 64 OFFCURVE",
"65 84 OFFCURVE",
"65 104 CURVE SMOOTH",
"65 126 OFFCURVE",
"81 148 OFFCURVE",
"111 148 CURVE SMOOTH",
"209 148 LINE",
"212 162 LINE",
"111 162 LINE SMOOTH",
"48 162 OFFCURVE",
"17 119 OFFCURVE",
"17 78 CURVE SMOOTH",
"17 45 OFFCURVE",
"37 13 OFFCURVE",
"78 4 CURVE SMOOTH",
"250 -34 LINE SMOOTH",
"293 -44 OFFCURVE",
"311 -63 OFFCURVE",
"311 -92 CURVE SMOOTH",
"311 -162 OFFCURVE",
"227 -209 OFFCURVE",
"151 -209 CURVE SMOOTH",
"83 -209 OFFCURVE",
"21 -177 OFFCURVE",
"21 -98 CURVE SMOOTH",
"21 -56 OFFCURVE",
"40 -9 OFFCURVE",
"83 12 CURVE",
"83 12 OFFCURVE",
"63 18 OFFCURVE",
"63 18 CURVE",
"0 -12 OFFCURVE",
"-30 -59 OFFCURVE",
"-30 -103 CURVE SMOOTH",
"-30 -168 OFFCURVE",
"42 -228 OFFCURVE",
"150 -228 CURVE SMOOTH",
"264 -228 OFFCURVE",
"360 -141 OFFCURVE",
"360 -67 CURVE SMOOTH",
"360 -19 OFFCURVE",
"334 6 OFFCURVE",
"264 22 CURVE SMOOTH"
);
},
{
closed = 1;
nodes = (
"273 430 LINE",
"351 430 OFFCURVE",
"390 481 OFFCURVE",
"390 523 CURVE SMOOTH",
"390 548 OFFCURVE",
"375 569 OFFCURVE",
"347 569 CURVE SMOOTH",
"329 569 OFFCURVE",
"316 556 OFFCURVE",
"306 535 CURVE",
"328 521 OFFCURVE",
"338 505 OFFCURVE",
"338 490 CURVE SMOOTH",
"338 465 OFFCURVE",
"310 444 OFFCURVE",
"272 444 CURVE"
);
},
{
closed = 1;
nodes = (
"90 187 OFFCURVE",
"137 148 OFFCURVE",
"209 148 CURVE SMOOTH",
"299 148 OFFCURVE",
"389 218 OFFCURVE",
"389 335 CURVE SMOOTH",
"389 405 OFFCURVE",
"343 444 OFFCURVE",
"272 444 CURVE SMOOTH",
"167 444 OFFCURVE",
"90 353 OFFCURVE",
"90 257 CURVE SMOOTH"
);
},
{
closed = 1;
nodes = (
"308 425 OFFCURVE",
"334 395 OFFCURVE",
"334 343 CURVE SMOOTH",
"334 234 OFFCURVE",
"263 167 OFFCURVE",
"210 167 CURVE SMOOTH",
"172 167 OFFCURVE",
"146 196 OFFCURVE",
"146 248 CURVE SMOOTH",
"146 310 OFFCURVE",
"190 425 OFFCURVE",
"271 425 CURVE SMOOTH"
);
}
);
};
hints = (
{
place = "{-24, 51}";
},
{
place = "{96, 56}";
},
{
place = "{317, 49}";
},
{
place = "{340, 55}";
},
{
horizontal = 1;
place = "{-228, 21}";
target = up;
type = BottomGhost;
},
{
horizontal = 1;
place = "{569, -20}";
target = down;
type = TopGhost;
},
{
horizontal = 1;
place = "{444, -20}";
target = down;
type = TopGhost;
}
);
layerId = UUID0;
paths = (
{
closed = 1;
nodes = (
"105 58 LINE SMOOTH",
"77 64 OFFCURVE",
"65 84 OFFCURVE",
"65 104 CURVE SMOOTH",
"65 126 OFFCURVE",
"81 148 OFFCURVE",
"111 148 CURVE SMOOTH",
"209 148 LINE",
"212 162 LINE",
"111 162 LINE SMOOTH",
"48 162 OFFCURVE",
"17 119 OFFCURVE",
"17 78 CURVE SMOOTH",
"17 45 OFFCURVE",
"37 13 OFFCURVE",
"78 4 CURVE SMOOTH",
"250 -34 LINE SMOOTH",
"293 -44 OFFCURVE",
"311 -63 OFFCURVE",
"311 -92 CURVE SMOOTH",
"311 -162 OFFCURVE",
"227 -209 OFFCURVE",
"151 -209 CURVE SMOOTH",
"83 -209 OFFCURVE",
"21 -177 OFFCURVE",
"21 -98 CURVE SMOOTH",
"21 -56 OFFCURVE",
"40 -9 OFFCURVE",
"83 12 CURVE",
"83 12 OFFCURVE",
"63 18 OFFCURVE",
"63 18 CURVE",
"0 -12 OFFCURVE",
"-30 -59 OFFCURVE",
"-30 -103 CURVE SMOOTH",
"-30 -168 OFFCURVE",
"42 -228 OFFCURVE",
"150 -228 CURVE SMOOTH",
"264 -228 OFFCURVE",
"360 -141 OFFCURVE",
"360 -67 CURVE SMOOTH",
"360 -19 OFFCURVE",
"334 6 OFFCURVE",
"264 22 CURVE SMOOTH"
);
},
{
closed = 1;
nodes = (
"334 410 LINE",
"412 410 OFFCURVE",
"451 461 OFFCURVE",
"451 503 CURVE SMOOTH",
"451 528 OFFCURVE",
"436 549 OFFCURVE",
"408 549 CURVE SMOOTH",
"390 549 OFFCURVE",
"377 536 OFFCURVE",
"367 515 CURVE",
"389 501 OFFCURVE",
"399 485 OFFCURVE",
"399 470 CURVE SMOOTH",
"399 445 OFFCURVE",
"371 424 OFFCURVE",
"333 424 CURVE"
);
},
{
closed = 1;
nodes = (
"90 187 OFFCURVE",
"137 148 OFFCURVE",
"209 148 CURVE SMOOTH",
"299 148 OFFCURVE",
"389 218 OFFCURVE",
"389 335 CURVE SMOOTH",
"389 405 OFFCURVE",
"343 444 OFFCURVE",
"272 444 CURVE SMOOTH",
"167 444 OFFCURVE",
"90 353 OFFCURVE",
"90 257 CURVE SMOOTH"
);
},
{
closed = 1;
nodes = (
"308 425 OFFCURVE",
"334 395 OFFCURVE",
"334 343 CURVE SMOOTH",
"334 234 OFFCURVE",
"263 167 OFFCURVE",
"210 167 CURVE SMOOTH",
"172 167 OFFCURVE",
"146 196 OFFCURVE",
"146 248 CURVE SMOOTH",
"146 310 OFFCURVE",
"190 425 OFFCURVE",
"271 425 CURVE SMOOTH"
);
}
);
width = 437;
}
);
leftKerningGroup = o;
unicode = 0067;
},
{
glyphname = h;
layers = (
{
anchors = (
{
name = bottom;
position = "{206, 0}";
},
{
name = center;
position = "{222, 550}";
},
{
name = top;
position = "{198, 630}";
}
);
background = {
paths = (
{
closed = 1;
nodes = (
"95 0 LINE",
"169 327 OFFCURVE",
"263 411 OFFCURVE",
"322 411 CURVE SMOOTH",
"352 411 OFFCURVE",
"368 389 OFFCURVE",
"368 357 CURVE SMOOTH",
"368 277 OFFCURVE",
"277 118 OFFCURVE",
"277 56 CURVE SMOOTH",
"277 10 OFFCURVE",
"300 -12 OFFCURVE",
"339 -12 CURVE SMOOTH",
"379 -12 OFFCURVE",
"420 22 OFFCURVE",
"451 110 CURVE",
"435 114 LINE",
"413 48 OFFCURVE",
"380 16 OFFCURVE",
"356 16 CURVE SMOOTH",
"339 16 OFFCURVE",
"331 30 OFFCURVE",
"331 49 CURVE SMOOTH",
"331 116 OFFCURVE",
"428 270 OFFCURVE",
"428 354 CURVE SMOOTH",
"428 411 OFFCURVE",
"398 444 OFFCURVE",
"350 444 CURVE SMOOTH",
"303 444 OFFCURVE",
"219 431 OFFCURVE",
"141 216 CURVE SMOOTH",
"125 172 LINE",
"117 172 LINE",
"160 338 OFFCURVE",
"194 455 OFFCURVE",
"260 647 CURVE",
"246 657 LINE",
"202 645 OFFCURVE",
"165 638 OFFCURVE",
"117 632 CURVE",
"118 615 LINE",
"182 620 LINE",
"25 -6 LINE"
);
}
);
};
hints = (
{
place = "{289, 54}";
},
{
place = "{380, 60}";
},
{
horizontal = 1;
place = "{411, 33}";
},
{
horizontal = 1;
place = "{-12, 21}";
target = up;
type = BottomGhost;
},
{
horizontal = 1;
place = "{657, -20}";
target = down;
type = TopGhost;
}
);
layerId = UUID0;
paths = (
{
closed = 1;
nodes = (
"95 0 LINE",
"169 327 OFFCURVE",
"263 411 OFFCURVE",
"322 411 CURVE SMOOTH",
"352 411 OFFCURVE",
"368 389 OFFCURVE",
"368 357 CURVE SMOOTH",
"368 277 OFFCURVE",
"277 118 OFFCURVE",
"277 56 CURVE SMOOTH",
"277 10 OFFCURVE",
"300 -12 OFFCURVE",
"339 -12 CURVE SMOOTH",
"379 -12 OFFCURVE",
"420 22 OFFCURVE",
"451 110 CURVE",
"435 114 LINE",
"413 48 OFFCURVE",
"380 16 OFFCURVE",
"356 16 CURVE SMOOTH",
"339 16 OFFCURVE",
"331 30 OFFCURVE",
"331 49 CURVE SMOOTH",
"331 116 OFFCURVE",
"428 270 OFFCURVE",
"428 354 CURVE SMOOTH",
"428 411 OFFCURVE",
"398 444 OFFCURVE",
"350 444 CURVE SMOOTH",
"303 444 OFFCURVE",
"219 431 OFFCURVE",
"141 216 CURVE SMOOTH",
"125 172 LINE",
"117 172 LINE",
"160 338 OFFCURVE",
"194 455 OFFCURVE",
"260 647 CURVE",
"246 657 LINE",
"202 645 OFFCURVE",
"165 638 OFFCURVE",
"117 632 CURVE",
"118 615 LINE",
"182 620 LINE",
"25 -6 LINE"
);
}
);
width = 506;
}
);
unicode = 0068;
},
{
glyphname = i;
layers = (
{
anchors = (
{
name = bottom;
position = "{99, 0}";
}
);
background = {
paths = (
{
closed = 1;
nodes = (
"170 551 OFFCURVE",
"190 531 OFFCURVE",
"215 531 CURVE SMOOTH",
"240 531 OFFCURVE",
"260 551 OFFCURVE",
"260 576 CURVE SMOOTH",
"260 601 OFFCURVE",
"240 621 OFFCURVE",
"215 621 CURVE SMOOTH",
"190 621 OFFCURVE",
"170 601 OFFCURVE",
"170 576 CURVE SMOOTH"
);
},
{
closed = 1;
nodes = (
"70 11 OFFCURVE",
"90 -12 OFFCURVE",
"132 -12 CURVE SMOOTH",
"172 -12 OFFCURVE",
"213 22 OFFCURVE",
"244 110 CURVE",
"228 114 LINE",
"206 48 OFFCURVE",
"173 16 OFFCURVE",
"149 16 CURVE SMOOTH",
"132 16 OFFCURVE",
"124 30 OFFCURVE",
"124 49 CURVE SMOOTH",
"124 94 OFFCURVE",
"174 287 OFFCURVE",
"221 425 CURVE",
"207 435 LINE",
"163 423 OFFCURVE",
"126 416 OFFCURVE",
"78 410 CURVE",
"79 393 LINE",
"143 398 LINE",
"113 282 OFFCURVE",
"70 115 OFFCURVE",
"70 63 CURVE SMOOTH"
);
},
{
closed = 1;
nodes = (
"165 528 OFFCURVE",
"185 508 OFFCURVE",
"210 508 CURVE SMOOTH",
"235 508 OFFCURVE",
"255 528 OFFCURVE",
"255 553 CURVE SMOOTH",
"255 578 OFFCURVE",
"235 598 OFFCURVE",
"210 598 CURVE SMOOTH",
"185 598 OFFCURVE",
"165 578 OFFCURVE",
"165 553 CURVE SMOOTH"
);
},
{
closed = 1;
nodes = (
"95 550 OFFCURVE",
"116 529 OFFCURVE",
"142 529 CURVE SMOOTH",
"168 529 OFFCURVE",
"189 550 OFFCURVE",
"189 576 CURVE SMOOTH",
"189 602 OFFCURVE",
"168 623 OFFCURVE",
"142 623 CURVE SMOOTH",
"116 623 OFFCURVE",
"95 602 OFFCURVE",
"95 576 CURVE SMOOTH"
);
}
);
};
components = (
{
name = idotless;
},
{
alignment = 1;
name = dotaccentcomb;
transform = "{1, 0, 0, 1, 71, 0}";
}
);
hints = (
{
place = "{70, 54}";
},
{
horizontal = 1;
place = "{621, -20}";
target = down;
type = TopGhost;
},
{
horizontal = 1;
place = "{-12, 21}";
target = up;
type = BottomGhost;
}
);
layerId = UUID0;
width = 291;
}
);
leftKerningGroup = i;
unicode = 0069;
},
{
glyphname = idotless;
layers = (
{
anchors = (
{
name = bottom;
position = "{91, 0}";
},
{
name = ogonek;
position = "{163, 0}";
},
{
name = top;
position = "{169, 432}";
}
);
background = {
paths = (
{
closed = 1;
nodes = (
"116 94 OFFCURVE",
"166 287 OFFCURVE",
"213 425 CURVE",
"199 435 LINE",
"155 423 OFFCURVE",
"118 416 OFFCURVE",
"70 410 CURVE",
"71 393 LINE",
"135 398 LINE",
"105 282 OFFCURVE",
"60 102 OFFCURVE",
"60 50 CURVE SMOOTH",
"60 11 OFFCURVE",
"82 -12 OFFCURVE",
"124 -12 CURVE SMOOTH",
"164 -12 OFFCURVE",
"205 22 OFFCURVE",
"236 110 CURVE",
"220 114 LINE",
"198 48 OFFCURVE",
"165 16 OFFCURVE",
"141 16 CURVE SMOOTH",
"124 16 OFFCURVE",
"116 30 OFFCURVE",
"116 49 CURVE SMOOTH"
);
},
{
closed = 1;
nodes = (
"162 551 OFFCURVE",
"182 531 OFFCURVE",
"207 531 CURVE SMOOTH",
"232 531 OFFCURVE",
"252 551 OFFCURVE",
"252 576 CURVE SMOOTH",
"252 601 OFFCURVE",
"232 621 OFFCURVE",
"207 621 CURVE SMOOTH",
"182 621 OFFCURVE",
"162 601 OFFCURVE",
"162 576 CURVE SMOOTH"
);
}
);
};
hints = (
{
place = "{70, 54}";
},
{
horizontal = 1;
place = "{-12, 21}";
target = up;
type = BottomGhost;
},
{
horizontal = 1;
place = "{435, -20}";
target = down;
type = TopGhost;
}
);
layerId = UUID0;
paths = (
{
closed = 1;
nodes = (
"62 11 OFFCURVE",
"82 -12 OFFCURVE",
"124 -12 CURVE SMOOTH",
"164 -12 OFFCURVE",
"205 22 OFFCURVE",
"236 110 CURVE",
"220 114 LINE",
"198 48 OFFCURVE",
"165 16 OFFCURVE",
"141 16 CURVE SMOOTH",
"124 16 OFFCURVE",
"116 30 OFFCURVE",
"116 49 CURVE SMOOTH",
"116 94 OFFCURVE",
"166 287 OFFCURVE",
"213 425 CURVE",
"199 435 LINE",
"155 423 OFFCURVE",
"118 416 OFFCURVE",
"70 410 CURVE",
"71 393 LINE",
"135 398 LINE",
"105 282 OFFCURVE",
"62 115 OFFCURVE",
"62 63 CURVE SMOOTH"
);
}
);
width = 291;
}
);
leftKerningGroup = m;
unicode = 0131;
},
{
glyphname = j;
layers = (
{
background = {
paths = (
{
closed = 1;
nodes = (
"170 551 OFFCURVE",
"190 531 OFFCURVE",
"215 531 CURVE SMOOTH",
"240 531 OFFCURVE",
"260 551 OFFCURVE",
"260 576 CURVE SMOOTH",
"260 601 OFFCURVE",
"240 621 OFFCURVE",
"215 621 CURVE SMOOTH",
"190 621 OFFCURVE",
"170 601 OFFCURVE",
"170 576 CURVE SMOOTH"
);
},
{
closed = 1;
nodes = (
"143 398 LINE",
"84 106 LINE SMOOTH",
"41 -109 OFFCURVE",
"23 -205 OFFCURVE",
"-35 -205 CURVE SMOOTH",
"-61 -205 OFFCURVE",
"-71 -186 OFFCURVE",
"-71 -162 CURVE SMOOTH",
"-71 -137 OFFCURVE",
"-58 -106 OFFCURVE",
"-41 -93 CURVE",
"-48 -85 OFFCURVE",
"-64 -80 OFFCURVE",
"-80 -80 CURVE SMOOTH",
"-113 -80 OFFCURVE",
"-125 -124 OFFCURVE",
"-125 -148 CURVE SMOOTH",
"-125 -191 OFFCURVE",
"-98 -228 OFFCURVE",
"-45 -228 CURVE SMOOTH",
"36 -228 OFFCURVE",
"84 -141 OFFCURVE",
"126 32 CURVE SMOOTH",
"221 425 LINE",
"207 435 LINE",
"163 423 OFFCURVE",
"126 416 OFFCURVE",
"78 410 CURVE",
"79 393 LINE"
);
}
);
};
components = (
{
name = jdotless;
},
{
name = dotaccentcomb;
transform = "{1, 0, 0, 1, 60, 0}";
}
);
hints = (
{
place = "{-125, 54}";
},
{
horizontal = 1;
place = "{-228, 23}";
},
{
horizontal = 1;
place = "{621, -20}";
target = down;
type = TopGhost;
}
);
layerId = UUID0;
width = 239;
}
);
leftKerningGroup = i;
unicode = 006A;
},
{
glyphname = jdotless;
layers = (
{
anchors = (
{
name = bottom;
position = "{17, -228}";
},
{
name = top;
position = "{158, 432}";
}
);
hints = (
{
horizontal = 1;
place = "{-228, 148}";
},
{
horizontal = 1;
place = "{435, -20}";
target = down;
type = TopGhost;
}
);
layerId = UUID0;
paths = (
{
closed = 1;
nodes = (
"131 398 LINE",
"72 106 LINE SMOOTH",
"29 -109 OFFCURVE",
"11 -205 OFFCURVE",
"-47 -205 CURVE SMOOTH",
"-73 -205 OFFCURVE",
"-83 -186 OFFCURVE",
"-83 -162 CURVE SMOOTH",
"-83 -137 OFFCURVE",
"-70 -106 OFFCURVE",
"-53 -93 CURVE",
"-60 -85 OFFCURVE",
"-76 -80 OFFCURVE",
"-92 -80 CURVE SMOOTH",
"-125 -80 OFFCURVE",
"-137 -124 OFFCURVE",
"-137 -148 CURVE SMOOTH",
"-137 -191 OFFCURVE",
"-110 -228 OFFCURVE",
"-57 -228 CURVE SMOOTH",
"24 -228 OFFCURVE",
"72 -141 OFFCURVE",
"114 32 CURVE SMOOTH",
"209 425 LINE",
"195 435 LINE",
"151 423 OFFCURVE",
"114 416 OFFCURVE",
"66 410 CURVE",
"67 393 LINE"
);
}
);
width = 239;
}
);
leftKerningGroup = m;
unicode = 0237;
},
{
glyphname = k;
layers = (
{
anchors = (
{
name = bottom;
position = "{168, 0}";
},
{
name = top;
position = "{203, 630}";
}
);
background = {
paths = (
{
closed = 1;
nodes = (
"150 220 LINE",
"165 218 OFFCURVE",
"182 217 OFFCURVE",
"200 217 CURVE SMOOTH",
"353 217 OFFCURVE",
"427 308 OFFCURVE",
"427 375 CURVE SMOOTH",
"427 413 OFFCURVE",
"402 444 OFFCURVE",
"353 444 CURVE SMOOTH",
"289 444 OFFCURVE",
"216 408 OFFCURVE",
"142 216 CURVE SMOOTH",
"125 172 LINE",
"117 172 LINE",
"160 338 OFFCURVE",
"194 455 OFFCURVE",
"260 647 CURVE",
"246 657 LINE",
"202 645 OFFCURVE",
"165 638 OFFCURVE",
"117 632 CURVE",
"118 615 LINE",
"182 620 LINE",
"25 -6 LINE",
"95 0 LINE",
"170 328 OFFCURVE",
"266 415 OFFCURVE",
"328 415 CURVE SMOOTH",
"359 415 OFFCURVE",
"374 394 OFFCURVE",
"374 367 CURVE SMOOTH",
"374 313 OFFCURVE",
"314 233 OFFCURVE",
"194 233 CURVE SMOOTH",
"154 233 LINE"
);
},
{
closed = 1;
nodes = (
"150 217 LINE",
"155 218 OFFCURVE",
"161 218 OFFCURVE",
"166 218 CURVE SMOOTH",
"237 218 OFFCURVE",
"246 145 OFFCURVE",
"246 58 CURVE SMOOTH",
"246 12 OFFCURVE",
"272 -12 OFFCURVE",
"314 -12 CURVE SMOOTH",
"354 -12 OFFCURVE",
"395 22 OFFCURVE",
"426 110 CURVE",
"410 114 LINE",
"388 48 OFFCURVE",
"355 16 OFFCURVE",
"331 16 CURVE SMOOTH",
"314 16 OFFCURVE",
"306 30 OFFCURVE",
"306 49 CURVE SMOOTH",
"306 194 OFFCURVE",
"282 228 OFFCURVE",
"172 228 CURVE"
);
},
{
closed = 1;
nodes = (
"233 205 LINE",
"247 205 LINE",
"251 227 LINE",
"233 227 LINE"
);
}
);
};
hints = (
{
place = "{258, 60}";
},
{
place = "{386, 53}";
},
{
horizontal = 1;
place = "{415, 29}";
},
{
horizontal = 1;
place = "{657, -20}";
target = down;
type = TopGhost;
},
{
horizontal = 1;
place = "{-12, 21}";
target = up;
type = BottomGhost;
}
);
layerId = UUID0;
paths = (
{
closed = 1;
nodes = (
"150 220 LINE",
"165 218 OFFCURVE",
"182 217 OFFCURVE",
"200 217 CURVE SMOOTH",
"353 217 OFFCURVE",
"427 308 OFFCURVE",
"427 375 CURVE SMOOTH",
"427 413 OFFCURVE",
"402 444 OFFCURVE",
"353 444 CURVE SMOOTH",
"289 444 OFFCURVE",
"216 408 OFFCURVE",
"142 216 CURVE SMOOTH",
"125 172 LINE",
"117 172 LINE",
"160 338 OFFCURVE",
"194 455 OFFCURVE",
"260 647 CURVE",
"246 657 LINE",
"202 645 OFFCURVE",
"165 638 OFFCURVE",
"117 632 CURVE",
"118 615 LINE",
"182 620 LINE",
"25 -6 LINE",
"95 0 LINE",
"170 328 OFFCURVE",
"266 415 OFFCURVE",
"328 415 CURVE SMOOTH",
"359 415 OFFCURVE",
"374 394 OFFCURVE",
"374 367 CURVE SMOOTH",
"374 313 OFFCURVE",
"314 233 OFFCURVE",
"194 233 CURVE SMOOTH",
"154 233 LINE"
);
},
{
closed = 1;
nodes = (
"150 217 LINE",
"155 218 OFFCURVE",
"161 218 OFFCURVE",
"166 218 CURVE SMOOTH",
"237 218 OFFCURVE",
"246 145 OFFCURVE",
"246 58 CURVE SMOOTH",
"246 12 OFFCURVE",
"272 -12 OFFCURVE",
"314 -12 CURVE SMOOTH",
"354 -12 OFFCURVE",
"395 22 OFFCURVE",
"426 110 CURVE",
"410 114 LINE",
"388 48 OFFCURVE",
"355 16 OFFCURVE",
"331 16 CURVE SMOOTH",
"314 16 OFFCURVE",
"306 30 OFFCURVE",
"306 49 CURVE SMOOTH",
"306 194 OFFCURVE",
"282 228 OFFCURVE",
"172 228 CURVE"
);
},
{
closed = 1;
nodes = (
"233 205 LINE",
"247 205 LINE",
"251 227 LINE",
"233 227 LINE"
);
}
);
width = 483;
}
);
unicode = 006B;
},
{
glyphname = kgreenlandic;
layers = (
{
background = {
paths = (
{
closed = 1;
nodes = (
"163 217 LINE",
"168 218 OFFCURVE",
"174 218 OFFCURVE",
"179 218 CURVE SMOOTH",
"250 218 OFFCURVE",
"259 145 OFFCURVE",
"259 58 CURVE SMOOTH",
"259 12 OFFCURVE",
"285 -12 OFFCURVE",
"327 -12 CURVE SMOOTH",
"367 -12 OFFCURVE",
"408 22 OFFCURVE",
"439 110 CURVE",
"423 114 LINE",
"401 48 OFFCURVE",
"368 16 OFFCURVE",
"344 16 CURVE SMOOTH",
"327 16 OFFCURVE",
"319 30 OFFCURVE",
"319 49 CURVE SMOOTH",
"319 194 OFFCURVE",
"295 228 OFFCURVE",
"185 228 CURVE"
);
},
{
closed = 1;
nodes = (
"246 205 LINE",
"260 205 LINE",
"264 227 LINE",
"246 227 LINE"
);
},
{
closed = 1;
nodes = (
"138 172 LINE",
"130 172 LINE",
"154 267 OFFCURVE",
"177 340 OFFCURVE",
"214 425 CURVE",
"200 435 LINE",
"156 423 OFFCURVE",
"119 416 OFFCURVE",
"71 410 CURVE",
"72 393 LINE",
"136 398 LINE",
"38 -6 LINE",
"108 0 LINE",
"183 328 OFFCURVE",
"279 415 OFFCURVE",
"341 415 CURVE SMOOTH",
"372 415 OFFCURVE",
"387 394 OFFCURVE",
"387 367 CURVE SMOOTH",
"387 313 OFFCURVE",
"327 233 OFFCURVE",
"207 233 CURVE SMOOTH",
"167 233 LINE",
"163 220 LINE",
"178 218 OFFCURVE",
"195 217 OFFCURVE",
"213 217 CURVE SMOOTH",
"366 217 OFFCURVE",
"440 308 OFFCURVE",
"440 375 CURVE SMOOTH",
"440 413 OFFCURVE",
"415 444 OFFCURVE",
"366 444 CURVE SMOOTH",
"302 444 OFFCURVE",
"228 408 OFFCURVE",
"154 216 CURVE SMOOTH"
);
},
{
closed = 1;
nodes = (
"736 578 LINE",
"733 562 LINE",
"776 562 LINE",
"519 303 LINE",
"541 290 LINE",
"800 549 LINE SMOOTH",
"810 560 OFFCURVE",
"813 562 OFFCURVE",
"826 562 CURVE SMOOTH",
"850 562 LINE",
"852 578 LINE"
);
},
{
closed = 1;
nodes = (
"674 168 LINE SMOOTH",
"672 241 OFFCURVE",
"651 305 OFFCURVE",
"552 305 CURVE SMOOTH",
"542 305 OFFCURVE",
"531 304 OFFCURVE",
"519 303 CURVE",
"515 289 LINE",
"580 289 OFFCURVE",
"607 264 OFFCURVE",
"610 185 CURVE SMOOTH",
"614 96 LINE SMOOTH",
"616 27 OFFCURVE",
"641 0 OFFCURVE",
"681 0 CURVE SMOOTH",
"728 0 OFFCURVE",
"765 38 OFFCURVE",
"765 100 CURVE",
"748 97 LINE",
"748 57 OFFCURVE",
"730 30 OFFCURVE",
"706 30 CURVE SMOOTH",
"685 30 OFFCURVE",
"677 49 OFFCURVE",
"676 86 CURVE SMOOTH"
);
}
);
};
layerId = UUID0;
paths = (
{
closed = 1;
nodes = (
"157 179 LINE",
"384 403 LINE SMOOTH",
"394 414 OFFCURVE",
"397 416 OFFCURVE",
"410 416 CURVE SMOOTH",
"434 416 LINE",
"436 432 LINE",
"320 432 LINE",
"317 416 LINE",
"360 416 LINE",
"149 199 LINE",
"141 199 LINE",
"163 284 OFFCURVE",
"180 349 OFFCURVE",
"214 425 CURVE",
"200 435 LINE",
"156 423 OFFCURVE",
"119 416 OFFCURVE",
"71 410 CURVE",
"72 393 LINE",
"136 398 LINE",
"38 -6 LINE",
"108 0 LINE"
);
},
{
closed = 1;
nodes = (
"177 213 LINE",
"250 213 OFFCURVE",
"259 142 OFFCURVE",
"259 58 CURVE SMOOTH",
"259 12 OFFCURVE",
"285 -12 OFFCURVE",
"327 -12 CURVE SMOOTH",
"367 -12 OFFCURVE",
"408 22 OFFCURVE",
"439 110 CURVE",
"423 114 LINE",
"401 48 OFFCURVE",
"368 16 OFFCURVE",
"344 16 CURVE SMOOTH",
"327 16 OFFCURVE",
"319 30 OFFCURVE",
"319 49 CURVE SMOOTH",
"319 194 OFFCURVE",
"295 228 OFFCURVE",
"185 228 CURVE"
);
}
);
width = 494;
}
);
leftKerningGroup = m;
leftMetricsKey = n;
unicode = 0138;
},
{
glyphname = l;
layers = (
{
anchors = (
{
name = bottom;
position = "{67, 0}";
},
{
name = center;
position = "{142, 354}";
},
{
name = top;
position = "{201, 630}";
},
{
name = topright;
position = "{255, 432}";
}
);
background = {
paths = (
{
closed = 1;
nodes = (
"100 128 OFFCURVE",
"208 509 OFFCURVE",
"255 647 CURVE",
"241 657 LINE",
"197 645 OFFCURVE",
"160 638 OFFCURVE",
"112 632 CURVE",
"113 615 LINE",
"177 620 LINE",
"145 504 OFFCURVE",
"46 135 OFFCURVE",
"46 63 CURVE SMOOTH",
"46 11 OFFCURVE",
"66 -12 OFFCURVE",
"108 -12 CURVE SMOOTH",
"148 -12 OFFCURVE",
"189 22 OFFCURVE",
"220 110 CURVE",
"204 114 LINE",
"182 48 OFFCURVE",
"149 16 OFFCURVE",
"125 16 CURVE SMOOTH",
"108 16 OFFCURVE",
"100 30 OFFCURVE",
"100 49 CURVE SMOOTH"
);
}
);
};
hints = (
{
place = "{60, 54}";
},
{
horizontal = 1;
place = "{657, -20}";
target = down;
type = TopGhost;
},
{
horizontal = 1;
place = "{-12, 21}";
target = up;
type = BottomGhost;
}
);
layerId = UUID0;
paths = (
{
closed = 1;
nodes = (
"100 128 OFFCURVE",
"208 509 OFFCURVE",
"255 647 CURVE",
"241 657 LINE",
"197 645 OFFCURVE",
"160 638 OFFCURVE",
"112 632 CURVE",
"113 615 LINE",
"177 620 LINE",
"145 504 OFFCURVE",
"46 135 OFFCURVE",
"46 63 CURVE SMOOTH",
"46 11 OFFCURVE",
"66 -12 OFFCURVE",
"108 -12 CURVE SMOOTH",
"148 -12 OFFCURVE",
"189 22 OFFCURVE",
"220 110 CURVE",
"204 114 LINE",
"182 48 OFFCURVE",
"149 16 OFFCURVE",
"125 16 CURVE SMOOTH",
"108 16 OFFCURVE",
"100 30 OFFCURVE",
"100 49 CURVE SMOOTH"
);
}
);
width = 275;
}
);
unicode = 006C;
},
{
glyphname = m;
layers = (
{
anchors = (
{
name = bottom;
position = "{348, 0}";
},
{
name = top;
position = "{440, 432}";
}
);
background = {
paths = (
{
closed = 1;
nodes = (
"352 0 LINE",
"426 327 OFFCURVE",
"520 411 OFFCURVE",
"579 411 CURVE SMOOTH",
"602 411 OFFCURVE",
"614 389 OFFCURVE",
"614 357 CURVE SMOOTH",
"614 277 OFFCURVE",
"523 118 OFFCURVE",
"523 56 CURVE SMOOTH",
"523 10 OFFCURVE",
"546 -12 OFFCURVE",
"585 -12 CURVE SMOOTH",
"625 -12 OFFCURVE",
"666 22 OFFCURVE",
"697 110 CURVE",
"681 114 LINE",
"659 48 OFFCURVE",
"626 16 OFFCURVE",
"602 16 CURVE SMOOTH",
"585 16 OFFCURVE",
"577 30 OFFCURVE",
"577 49 CURVE SMOOTH",
"577 116 OFFCURVE",
"674 270 OFFCURVE",
"674 354 CURVE SMOOTH",
"674 411 OFFCURVE",
"648 444 OFFCURVE",
"607 444 CURVE SMOOTH",
"560 444 OFFCURVE",
"476 431 OFFCURVE",
"398 216 CURVE SMOOTH",
"382 172 LINE",
"373 172 LINE",
"394 235 LINE SMOOTH",
"405 267 OFFCURVE",
"423 320 OFFCURVE",
"423 365 CURVE SMOOTH",
"423 409 OFFCURVE",
"406 444 OFFCURVE",
"353 444 CURVE SMOOTH",
"306 444 OFFCURVE",
"224 408 OFFCURVE",
"154 216 CURVE SMOOTH",
"138 172 LINE",
"130 172 LINE",
"154 267 OFFCURVE",
"177 340 OFFCURVE",
"214 425 CURVE",
"200 435 LINE",
"156 423 OFFCURVE",
"119 416 OFFCURVE",
"71 410 CURVE",
"72 393 LINE",
"136 398 LINE",
"38 -6 LINE",
"108 0 LINE",
"178 300 OFFCURVE",
"266 411 OFFCURVE",
"325 411 CURVE SMOOTH",
"357 411 OFFCURVE",
"371 386 OFFCURVE",
"371 357 CURVE SMOOTH",
"371 320 OFFCURVE",
"342 226 OFFCURVE",
"317 131 CURVE SMOOTH",
"281 -6 LINE"
);
}
);
};
hints = (
{
horizontal = 1;
origin = "{0, 55}";
target = up;
type = BottomGhost;
},
{
horizontal = 1;
origin = "{0, 40}";
target = "{0, 59}";
},
{
horizontal = 1;
origin = "{0, 12}";
target = "{0, 19}";
},
{
origin = "{0, 62}";
target = "{0, 37}";
},
{
origin = "{0, 9}";
target = "{0, 22}";
},
{
origin = "{0, 6}";
target = "{0, 25}";
}
);
layerId = UUID0;
paths = (
{
closed = 1;
nodes = (
"352 0 LINE",
"426 327 OFFCURVE",
"520 411 OFFCURVE",
"579 411 CURVE SMOOTH",
"602 411 OFFCURVE",
"614 389 OFFCURVE",
"614 357 CURVE SMOOTH",
"614 277 OFFCURVE",
"523 118 OFFCURVE",
"523 56 CURVE SMOOTH",
"523 10 OFFCURVE",
"546 -12 OFFCURVE",
"585 -12 CURVE SMOOTH",
"625 -12 OFFCURVE",
"666 22 OFFCURVE",
"697 110 CURVE",
"681 114 LINE",
"659 48 OFFCURVE",
"626 16 OFFCURVE",
"602 16 CURVE SMOOTH",
"585 16 OFFCURVE",
"577 30 OFFCURVE",
"577 49 CURVE SMOOTH",
"577 116 OFFCURVE",
"674 270 OFFCURVE",
"674 354 CURVE SMOOTH",
"674 411 OFFCURVE",
"648 444 OFFCURVE",
"607 444 CURVE SMOOTH",
"560 444 OFFCURVE",
"476 431 OFFCURVE",
"398 216 CURVE SMOOTH",
"382 172 LINE",
"373 172 LINE",
"394 235 LINE SMOOTH",
"405 267 OFFCURVE",
"423 320 OFFCURVE",
"423 365 CURVE SMOOTH",
"423 409 OFFCURVE",
"406 444 OFFCURVE",
"353 444 CURVE SMOOTH",
"306 444 OFFCURVE",
"224 408 OFFCURVE",
"154 216 CURVE SMOOTH",
"138 172 LINE",
"130 172 LINE",
"154 267 OFFCURVE",
"177 340 OFFCURVE",
"214 425 CURVE",
"200 435 LINE",
"156 423 OFFCURVE",
"119 416 OFFCURVE",
"71 410 CURVE",
"72 393 LINE",
"136 398 LINE",
"38 -6 LINE",
"108 0 LINE",
"178 300 OFFCURVE",
"266 411 OFFCURVE",
"325 411 CURVE SMOOTH",
"357 411 OFFCURVE",
"371 386 OFFCURVE",
"371 357 CURVE SMOOTH",
"371 320 OFFCURVE",
"342 226 OFFCURVE",
"317 131 CURVE SMOOTH",
"281 -6 LINE"
);
}
);
width = 752;
}
);
leftKerningGroup = m;
unicode = 006D;
},
{
glyphname = n;
layers = (
{
anchors = (
{
name = bottom;
position = "{221, 0}";
},
{
name = top;
position = "{313, 432}";
}
);
background = {
paths = (
{
closed = 1;
nodes = (
"344 116 OFFCURVE",
"441 270 OFFCURVE",
"441 354 CURVE SMOOTH",
"441 411 OFFCURVE",
"411 444 OFFCURVE",
"363 444 CURVE SMOOTH",
"316 444 OFFCURVE",
"232 431 OFFCURVE",
"154 216 CURVE SMOOTH",
"138 172 LINE",
"130 172 LINE",
"154 267 OFFCURVE",
"177 340 OFFCURVE",
"214 425 CURVE",
"200 435 LINE",
"156 423 OFFCURVE",
"119 416 OFFCURVE",
"71 410 CURVE",
"72 393 LINE",
"136 398 LINE",
"38 -6 LINE",
"108 0 LINE",
"182 327 OFFCURVE",
"276 411 OFFCURVE",
"335 411 CURVE SMOOTH",
"365 411 OFFCURVE",
"381 389 OFFCURVE",
"381 357 CURVE SMOOTH",
"381 277 OFFCURVE",
"290 118 OFFCURVE",
"290 56 CURVE SMOOTH",
"290 10 OFFCURVE",
"313 -12 OFFCURVE",
"352 -12 CURVE SMOOTH",
"392 -12 OFFCURVE",
"433 22 OFFCURVE",
"464 110 CURVE",
"448 114 LINE",
"426 48 OFFCURVE",
"393 16 OFFCURVE",
"369 16 CURVE SMOOTH",
"352 16 OFFCURVE",
"344 30 OFFCURVE",
"344 49 CURVE SMOOTH"
);
}
);
};
hints = (
{
horizontal = 1;
origin = "{0, 33}";
target = "{0, 40}";
},
{
horizontal = 1;
origin = "{0, 5}";
target = "{0, 24}";
},
{
horizontal = 1;
origin = "{0, 20}";
target = up;
type = BottomGhost;
},
{
origin = "{0, 30}";
target = "{0, 43}";
},
{
origin = "{0, 27}";
target = "{0, 2}";
}
);
layerId = UUID0;
paths = (
{
closed = 1;
nodes = (
"344 116 OFFCURVE",
"441 270 OFFCURVE",
"441 354 CURVE SMOOTH",
"441 411 OFFCURVE",
"411 444 OFFCURVE",
"363 444 CURVE SMOOTH",
"316 444 OFFCURVE",
"232 431 OFFCURVE",
"154 216 CURVE SMOOTH",
"138 172 LINE",
"130 172 LINE",
"154 267 OFFCURVE",
"177 340 OFFCURVE",
"214 425 CURVE",
"200 435 LINE",
"156 423 OFFCURVE",
"119 416 OFFCURVE",
"71 410 CURVE",
"72 393 LINE",
"136 398 LINE",
"38 -6 LINE",
"108 0 LINE",
"182 327 OFFCURVE",
"276 411 OFFCURVE",
"335 411 CURVE SMOOTH",
"365 411 OFFCURVE",
"381 389 OFFCURVE",
"381 357 CURVE SMOOTH",
"381 277 OFFCURVE",
"290 118 OFFCURVE",
"290 56 CURVE SMOOTH",
"290 10 OFFCURVE",
"313 -12 OFFCURVE",
"352 -12 CURVE SMOOTH",
"392 -12 OFFCURVE",
"433 22 OFFCURVE",
"464 110 CURVE",
"448 114 LINE",
"426 48 OFFCURVE",
"393 16 OFFCURVE",
"369 16 CURVE SMOOTH",
"352 16 OFFCURVE",
"344 30 OFFCURVE",
"344 49 CURVE SMOOTH"
);
}
);
width = 519;
}
);
leftKerningGroup = m;
unicode = 006E;
},
{
glyphname = eng;
layers = (
{
layerId = UUID0;
paths = (
{
closed = 1;
nodes = (
"381 89 OFFCURVE",
"216 -203 OFFCURVE",
"109 -203 CURVE SMOOTH",
"77 -203 OFFCURVE",
"64 -177 OFFCURVE",
"64 -154 CURVE SMOOTH",
"64 -129 OFFCURVE",
"77 -106 OFFCURVE",
"94 -93 CURVE",
"86 -85 OFFCURVE",
"71 -80 OFFCURVE",
"55 -80 CURVE SMOOTH",
"20 -80 OFFCURVE",
"10 -124 OFFCURVE",
"10 -148 CURVE SMOOTH",
"10 -191 OFFCURVE",
"39 -228 OFFCURVE",
"97 -228 CURVE SMOOTH",
"281 -228 OFFCURVE",
"441 136 OFFCURVE",
"441 354 CURVE SMOOTH",
"441 411 OFFCURVE",
"411 444 OFFCURVE",
"363 444 CURVE SMOOTH",
"316 444 OFFCURVE",
"232 431 OFFCURVE",
"154 216 CURVE SMOOTH",
"138 172 LINE",
"130 172 LINE",
"154 267 OFFCURVE",
"177 340 OFFCURVE",
"214 425 CURVE",
"200 435 LINE",
"156 423 OFFCURVE",
"119 416 OFFCURVE",
"71 410 CURVE",
"72 393 LINE",
"136 398 LINE",
"38 -6 LINE",
"108 0 LINE",
"182 327 OFFCURVE",
"276 411 OFFCURVE",
"335 411 CURVE SMOOTH",
"365 411 OFFCURVE",
"381 389 OFFCURVE",
"381 357 CURVE SMOOTH"
);
}
);
width = 498;
}
);
leftKerningGroup = m;
leftMetricsKey = n;
rightMetricsKey = j;
unicode = 014B;
},
{
glyphname = o;
layers = (
{
anchors = (
{
name = bottom;
position = "{187, 0}";
},
{
name = center;
position = "{233, 216}";
},
{
name = ogonek;
position = "{246, 0}";
},
{
name = top;
position = "{279, 432}";
},
{
name = topright;
position = "{413, 422}";
}
);
background = {
paths = (
{
closed = 1;
nodes = (
"43 44 OFFCURVE",
"98 -12 OFFCURVE",
"185 -12 CURVE SMOOTH",
"341 -12 OFFCURVE",
"423 159 OFFCURVE",
"423 288 CURVE SMOOTH",
"423 388 OFFCURVE",
"368 444 OFFCURVE",
"282 444 CURVE SMOOTH",
"126 444 OFFCURVE",
"43 274 OFFCURVE",
"43 145 CURVE SMOOTH"
);
},
{
closed = 1;
nodes = (
"328 422 OFFCURVE",
"360 378 OFFCURVE",
"360 300 CURVE SMOOTH",
"360 207 OFFCURVE",
"306 10 OFFCURVE",
"189 10 CURVE SMOOTH",
"139 10 OFFCURVE",
"106 54 OFFCURVE",
"106 134 CURVE SMOOTH",
"106 227 OFFCURVE",
"161 422 OFFCURVE",
"278 422 CURVE SMOOTH"
);
}
);
};
hints = (
{
place = "{40, 63}";
},
{
place = "{357, 63}";
},
{
horizontal = 1;
place = "{-12, 22}";
},
{
horizontal = 1;
place = "{422, 22}";
}
);
layerId = UUID0;
paths = (
{
closed = 1;
nodes = (
"43 44 OFFCURVE",
"98 -12 OFFCURVE",
"185 -12 CURVE SMOOTH",
"341 -12 OFFCURVE",
"423 159 OFFCURVE",
"423 288 CURVE SMOOTH",
"423 388 OFFCURVE",
"368 444 OFFCURVE",
"282 444 CURVE SMOOTH",
"126 444 OFFCURVE",
"43 274 OFFCURVE",
"43 145 CURVE SMOOTH"
);
},
{
closed = 1;
nodes = (
"328 422 OFFCURVE",
"360 378 OFFCURVE",
"360 300 CURVE SMOOTH",
"360 207 OFFCURVE",
"306 10 OFFCURVE",
"189 10 CURVE SMOOTH",
"139 10 OFFCURVE",
"106 54 OFFCURVE",
"106 134 CURVE SMOOTH",
"106 227 OFFCURVE",
"161 422 OFFCURVE",
"278 422 CURVE SMOOTH"
);
}
);
width = 466;
}
);
leftKerningGroup = o;
rightKerningGroup = o;
unicode = 006F;
},
{
glyphname = p;
layers = (
{
anchors = (
{
name = bottom;
position = "{197, 0}";
},
{
name = top;
position = "{289, 432}";
}
);
background = {
paths = (
{
closed = 1;
nodes = (
"201 435 LINE",
"157 423 OFFCURVE",
"120 416 OFFCURVE",
"72 410 CURVE",
"73 393 LINE",
"137 398 LINE",
"-14 -222 LINE",
"56 -216 LINE",
"116 31 LINE SMOOTH",
"185 314 OFFCURVE",
"274 406 OFFCURVE",
"327 406 CURVE SMOOTH",
"356 406 OFFCURVE",
"379 369 OFFCURVE",
"379 298 CURVE SMOOTH",
"379 198 OFFCURVE",
"334 13 OFFCURVE",
"206 13 CURVE SMOOTH",
"161 13 OFFCURVE",
"117 30 OFFCURVE",
"80 86 CURVE",
"73 69 LINE",
"106 17 OFFCURVE",
"147 -8 OFFCURVE",
"209 -8 CURVE SMOOTH",
"368 -8 OFFCURVE",
"449 160 OFFCURVE",
"449 290 CURVE SMOOTH",
"449 387 OFFCURVE",
"400 444 OFFCURVE",
"345 444 CURVE SMOOTH",
"297 444 OFFCURVE",
"225 409 OFFCURVE",
"155 216 CURVE SMOOTH",
"139 172 LINE",
"131 172 LINE",
"155 267 OFFCURVE",
"178 340 OFFCURVE",
"215 425 CURVE"
);
}
);
};
hints = (
{
place = "{386, 70}";
},
{
horizontal = 1;
place = "{-8, 21}";
},
{
horizontal = 1;
place = "{406, 38}";
},
{
horizontal = 1;
place = "{-222, 21}";
target = up;
type = BottomGhost;
}
);
layerId = UUID0;
paths = (
{
closed = 1;
nodes = (
"201 435 LINE",
"157 423 OFFCURVE",
"120 416 OFFCURVE",
"72 410 CURVE",
"73 393 LINE",
"137 398 LINE",
"-14 -222 LINE",
"56 -216 LINE",
"116 31 LINE SMOOTH",
"185 314 OFFCURVE",
"274 406 OFFCURVE",
"327 406 CURVE SMOOTH",
"356 406 OFFCURVE",
"379 369 OFFCURVE",
"379 298 CURVE SMOOTH",
"379 198 OFFCURVE",
"334 13 OFFCURVE",
"206 13 CURVE SMOOTH",
"161 13 OFFCURVE",
"117 30 OFFCURVE",
"80 86 CURVE",
"73 69 LINE",
"106 17 OFFCURVE",
"147 -8 OFFCURVE",
"209 -8 CURVE SMOOTH",
"368 -8 OFFCURVE",
"449 160 OFFCURVE",
"449 290 CURVE SMOOTH",
"449 387 OFFCURVE",
"400 444 OFFCURVE",
"345 444 CURVE SMOOTH",
"297 444 OFFCURVE",
"225 409 OFFCURVE",
"155 216 CURVE SMOOTH",
"139 172 LINE",
"131 172 LINE",
"155 267 OFFCURVE",
"178 340 OFFCURVE",
"215 425 CURVE"
);
}
);
width = 492;
}
);
leftKerningGroup = m;
rightKerningGroup = o;
unicode = 0070;
},
{
glyphname = thorn;
layers = (
{
background = {
paths = (
{
closed = 1;
nodes = (
"191 435 LINE",
"147 423 OFFCURVE",
"110 416 OFFCURVE",
"62 410 CURVE",
"63 393 LINE",
"127 398 LINE",
"-24 -222 LINE",
"46 -216 LINE",
"106 31 LINE SMOOTH",
"175 314 OFFCURVE",
"264 406 OFFCURVE",
"317 406 CURVE SMOOTH",
"346 406 OFFCURVE",
"369 369 OFFCURVE",
"369 298 CURVE SMOOTH",
"369 198 OFFCURVE",
"324 13 OFFCURVE",
"196 13 CURVE SMOOTH",
"151 13 OFFCURVE",
"107 30 OFFCURVE",
"70 86 CURVE",
"63 69 LINE",
"96 17 OFFCURVE",
"137 -8 OFFCURVE",
"199 -8 CURVE SMOOTH",
"358 -8 OFFCURVE",
"439 160 OFFCURVE",
"439 290 CURVE SMOOTH",
"439 387 OFFCURVE",
"390 444 OFFCURVE",
"335 444 CURVE SMOOTH",
"287 444 OFFCURVE",
"215 409 OFFCURVE",
"145 216 CURVE SMOOTH",
"129 172 LINE",
"121 172 LINE",
"145 267 OFFCURVE",
"168 340 OFFCURVE",
"205 425 CURVE"
);
}
);
};
hints = (
{
place = "{386, 70}";
},
{
horizontal = 1;
place = "{-8, 21}";
},
{
horizontal = 1;
place = "{406, 38}";
},
{
horizontal = 1;
place = "{-222, 21}";
target = up;
type = BottomGhost;
},
{
horizontal = 1;
place = "{657, -20}";
target = down;
type = TopGhost;
}
);
layerId = UUID0;
paths = (
{
closed = 1;
nodes = (
"-24 -222 LINE",
"46 -216 LINE",
"106 31 LINE SMOOTH",
"175 314 OFFCURVE",
"264 406 OFFCURVE",
"317 406 CURVE SMOOTH",
"346 406 OFFCURVE",
"369 369 OFFCURVE",
"369 298 CURVE SMOOTH",
"369 198 OFFCURVE",
"324 13 OFFCURVE",
"196 13 CURVE SMOOTH",
"151 13 OFFCURVE",
"107 30 OFFCURVE",
"70 86 CURVE",
"63 69 LINE",
"96 17 OFFCURVE",
"137 -8 OFFCURVE",
"199 -8 CURVE SMOOTH",
"358 -8 OFFCURVE",
"439 160 OFFCURVE",
"439 290 CURVE SMOOTH",
"439 387 OFFCURVE",
"390 444 OFFCURVE",
"335 444 CURVE SMOOTH",
"287 444 OFFCURVE",
"215 409 OFFCURVE",
"145 216 CURVE SMOOTH",
"129 172 LINE",
"121 172 LINE",
"163 338 OFFCURVE",
"194 455 OFFCURVE",
"260 647 CURVE",
"246 657 LINE",
"202 645 OFFCURVE",
"165 638 OFFCURVE",
"117 632 CURVE",
"118 615 LINE",
"182 620 LINE"
);
}
);
width = 482;
}
);
leftMetricsKey = b;
rightKerningGroup = o;
rightMetricsKey = o;
unicode = 00FE;
},
{
glyphname = q;
layers = (
{
anchors = (
{
name = bottom;
position = "{205, 0}";
},
{
name = top;
position = "{297, 432}";
}
);
background = {
paths = (
{
closed = 1;
nodes = (
"376 401 LINE",
"307 112 OFFCURVE",
"233 18 OFFCURVE",
"175 18 CURVE SMOOTH",
"139 18 OFFCURVE",
"109 58 OFFCURVE",
"109 134 CURVE SMOOTH",
"109 234 OFFCURVE",
"164 419 OFFCURVE",
"289 419 CURVE SMOOTH",
"331 419 OFFCURVE",
"375 402 OFFCURVE",
"412 346 CURVE",
"421 373 LINE",
"395 415 OFFCURVE",
"345 444 OFFCURVE",
"286 444 CURVE SMOOTH",
"126 444 OFFCURVE",
"43 272 OFFCURVE",
"43 142 CURVE SMOOTH",
"43 45 OFFCURVE",
"92 -12 OFFCURVE",
"153 -12 CURVE SMOOTH",
"203 -12 OFFCURVE",
"250 20 OFFCURVE",
"297 111 CURVE",
"302 111 LINE",
"206 -215 LINE",
"220 -225 LINE",
"264 -213 OFFCURVE",
"301 -206 OFFCURVE",
"349 -200 CURVE",
"348 -183 LINE",
"284 -188 LINE",
"453 438 LINE",
"436 444 LINE",
"406 369 LINE"
);
}
);
};
hints = (
{
place = "{40, 66}";
},
{
horizontal = 1;
place = "{-12, 30}";
},
{
horizontal = 1;
place = "{419, 25}";
},
{
horizontal = 1;
place = "{-225, 21}";
target = up;
type = BottomGhost;
}
);
layerId = UUID0;
paths = (
{
closed = 1;
nodes = (
"376 401 LINE",
"307 112 OFFCURVE",
"233 18 OFFCURVE",
"175 18 CURVE SMOOTH",
"139 18 OFFCURVE",
"109 58 OFFCURVE",
"109 134 CURVE SMOOTH",
"109 234 OFFCURVE",
"164 419 OFFCURVE",
"289 419 CURVE SMOOTH",
"331 419 OFFCURVE",
"375 402 OFFCURVE",
"412 346 CURVE",
"421 373 LINE",
"395 415 OFFCURVE",
"345 444 OFFCURVE",
"286 444 CURVE SMOOTH",
"126 444 OFFCURVE",
"43 272 OFFCURVE",
"43 142 CURVE SMOOTH",
"43 45 OFFCURVE",
"92 -12 OFFCURVE",
"153 -12 CURVE SMOOTH",
"203 -12 OFFCURVE",
"250 20 OFFCURVE",
"297 111 CURVE",
"302 111 LINE",
"206 -215 LINE",
"220 -225 LINE",
"264 -213 OFFCURVE",
"301 -206 OFFCURVE",
"349 -200 CURVE",
"348 -183 LINE",
"284 -188 LINE",
"453 438 LINE",
"436 444 LINE",
"406 369 LINE"
);
}
);
width = 473;
}
);
leftKerningGroup = a;
rightKerningGroup = o;
unicode = 0071;
},
{
glyphname = r;
layers = (
{
anchors = (
{
name = bottom;
position = "{75, 0}";
},
{
name = top;
position = "{243, 432}";
}
);
background = {
paths = (
{
closed = 1;
nodes = (
"200 435 LINE",
"156 423 OFFCURVE",
"119 416 OFFCURVE",
"71 410 CURVE",
"72 393 LINE",
"136 398 LINE",
"38 -6 LINE",
"108 0 LINE",
"182 327 OFFCURVE",
"277 405 OFFCURVE",
"307 405 CURVE SMOOTH",
"325 405 OFFCURVE",
"331 392 OFFCURVE",
"331 376 CURVE SMOOTH",
"331 348 OFFCURVE",
"314 309 OFFCURVE",
"303 294 CURVE",
"314 283 OFFCURVE",
"329 278 OFFCURVE",
"345 278 CURVE SMOOTH",
"377 278 OFFCURVE",
"394 321 OFFCURVE",
"394 366 CURVE SMOOTH",
"394 410 OFFCURVE",
"372 444 OFFCURVE",
"331 444 CURVE SMOOTH",
"292 444 OFFCURVE",
"224 407 OFFCURVE",
"154 216 CURVE SMOOTH",
"138 172 LINE",
"130 172 LINE",
"154 267 OFFCURVE",
"177 340 OFFCURVE",
"214 425 CURVE"
);
}
);
};
hints = (
{
horizontal = 1;
origin = "{0, 6}";
target = up;
type = BottomGhost;
},
{
origin = "{0, 13}";
target = "{0, 22}";
},
{
horizontal = 1;
origin = "{0, 25}";
target = "{0, 10}";
}
);
layerId = UUID0;
paths = (
{
closed = 1;
nodes = (
"200 435 LINE",
"157 423 OFFCURVE",
"120 416 OFFCURVE",
"71 410 CURVE",
"72 393 LINE",
"136 398 LINE",
"38 -6 LINE",
"108 0 LINE",
"161 232 OFFCURVE",
"249 405 OFFCURVE",
"313 405 CURVE SMOOTH",
"327 405 OFFCURVE",
"335 394 OFFCURVE",
"335 376 CURVE SMOOTH",
"335 357 OFFCURVE",
"323 326 OFFCURVE",
"307 304 CURVE",
"316 294 OFFCURVE",
"330 288 OFFCURVE",
"344 288 CURVE SMOOTH",
"373 288 OFFCURVE",
"394 320 OFFCURVE",
"394 365 CURVE SMOOTH",
"394 413 OFFCURVE",
"370 444 OFFCURVE",
"333 444 CURVE SMOOTH",
"272 444 OFFCURVE",
"207 361 OFFCURVE",
"154 216 CURVE SMOOTH",
"138 172 LINE",
"130 172 LINE",
"156 275 OFFCURVE",
"180 346 OFFCURVE",
"214 425 CURVE"
);
}
);
width = 402;
}
);
leftKerningGroup = m;
unicode = 0072;
},
{
glyphname = s;
layers = (
{
anchors = (
{
name = bottom;
position = "{159, 0}";
},
{
name = top;
position = "{227, 432}";
}
);
background = {
paths = (
{
closed = 1;
nodes = (
"132 389 OFFCURVE",
"173 420 OFFCURVE",
"228 420 CURVE SMOOTH",
"274 420 OFFCURVE",
"302 398 OFFCURVE",
"302 356 CURVE SMOOTH",
"302 352 OFFCURVE",
"301 323 OFFCURVE",
"296 296 CURVE",
"313 293 LINE",
"322 344 OFFCURVE",
"341 405 OFFCURVE",
"347 417 CURVE",
"332 423 OFFCURVE",
"298 444 OFFCURVE",
"238 444 CURVE SMOOTH",
"140 444 OFFCURVE",
"80 385 OFFCURVE",
"80 314 CURVE SMOOTH",
"80 203 OFFCURVE",
"249 186 OFFCURVE",
"249 103 CURVE SMOOTH",
"249 46 OFFCURVE",
"204 9 OFFCURVE",
"144 9 CURVE SMOOTH",
"90 9 OFFCURVE",
"60 39 OFFCURVE",
"60 78 CURVE SMOOTH",
"60 94 OFFCURVE",
"62 107 OFFCURVE",
"67 136 CURVE",
"50 139 LINE",
"42 94 OFFCURVE",
"24 33 OFFCURVE",
"18 21 CURVE",
"53 -1 OFFCURVE",
"97 -12 OFFCURVE",
"141 -12 CURVE SMOOTH",
"227 -12 OFFCURVE",
"310 31 OFFCURVE",
"310 121 CURVE SMOOTH",
"310 224 OFFCURVE",
"132 245 OFFCURVE",
"132 339 CURVE SMOOTH"
);
}
);
};
hints = (
{
place = "{139, 117}";
},
{
place = "{256, 61}";
},
{
place = "{87, 52}";
},
{
horizontal = 1;
place = "{-12, 21}";
},
{
horizontal = 1;
place = "{420, 24}";
}
);
layerId = UUID0;
paths = (
{
closed = 1;
nodes = (
"132 389 OFFCURVE",
"173 420 OFFCURVE",
"228 420 CURVE SMOOTH",
"274 420 OFFCURVE",
"302 398 OFFCURVE",
"302 356 CURVE SMOOTH",
"302 352 OFFCURVE",
"301 323 OFFCURVE",
"296 296 CURVE",
"313 293 LINE",
"322 344 OFFCURVE",
"341 405 OFFCURVE",
"347 417 CURVE",
"332 423 OFFCURVE",
"298 444 OFFCURVE",
"238 444 CURVE SMOOTH",
"140 444 OFFCURVE",
"80 385 OFFCURVE",
"80 314 CURVE SMOOTH",
"80 203 OFFCURVE",
"249 186 OFFCURVE",
"249 103 CURVE SMOOTH",
"249 46 OFFCURVE",
"204 9 OFFCURVE",
"144 9 CURVE SMOOTH",
"90 9 OFFCURVE",
"60 39 OFFCURVE",
"60 78 CURVE SMOOTH",
"60 94 OFFCURVE",
"62 107 OFFCURVE",
"67 136 CURVE",
"50 139 LINE",
"42 94 OFFCURVE",
"24 33 OFFCURVE",
"18 21 CURVE",
"53 -1 OFFCURVE",
"97 -12 OFFCURVE",
"141 -12 CURVE SMOOTH",
"227 -12 OFFCURVE",
"310 31 OFFCURVE",
"310 121 CURVE SMOOTH",
"310 224 OFFCURVE",
"132 245 OFFCURVE",
"132 339 CURVE SMOOTH"
);
}
);
width = 378;
}
);
leftKerningGroup = s;
rightKerningGroup = s;
unicode = 0073;
},
{
glyphname = germandbls;
layers = (
{
background = {
paths = (
{
closed = 1;
nodes = (
"440 429 OFFCURVE",
"264 367 OFFCURVE",
"264 262 CURVE SMOOTH",
"264 234 OFFCURVE",
"278 221 OFFCURVE",
"296 206 CURVE SMOOTH",
"354 157 LINE SMOOTH",
"382 133 OFFCURVE",
"390 119 OFFCURVE",
"390 101 CURVE SMOOTH",
"390 57 OFFCURVE",
"342 10 OFFCURVE",
"287 10 CURVE SMOOTH",
"255 10 OFFCURVE",
"238 27 OFFCURVE",
"238 54 CURVE SMOOTH",
"238 75 OFFCURVE",
"249 102 OFFCURVE",
"262 124 CURVE",
"256 133 OFFCURVE",
"242 138 OFFCURVE",
"227 138 CURVE SMOOTH",
"200 138 OFFCURVE",
"184 99 OFFCURVE",
"184 65 CURVE SMOOTH",
"184 12 OFFCURVE",
"229 -12 OFFCURVE",
"282 -12 CURVE SMOOTH",
"382 -12 OFFCURVE",
"447 71 OFFCURVE",
"447 137 CURVE SMOOTH",
"447 165 OFFCURVE",
"434 188 OFFCURVE",
"401 216 CURVE SMOOTH",
"356 254 LINE SMOOTH",
"335 272 OFFCURVE",
"322 284 OFFCURVE",
"322 305 CURVE SMOOTH",
"322 372 OFFCURVE",
"500 438 OFFCURVE",
"500 545 CURVE SMOOTH",
"500 591 OFFCURVE",
"471 660 OFFCURVE",
"358 660 CURVE SMOOTH",
"243 660 OFFCURVE",
"171 552 OFFCURVE",
"142 402 CURVE SMOOTH",
"84 106 LINE SMOOTH",
"42 -109 OFFCURVE",
"22 -205 OFFCURVE",
"-35 -205 CURVE SMOOTH",
"-61 -205 OFFCURVE",
"-71 -186 OFFCURVE",
"-71 -162 CURVE SMOOTH",
"-71 -137 OFFCURVE",
"-58 -106 OFFCURVE",
"-41 -93 CURVE",
"-48 -85 OFFCURVE",
"-64 -80 OFFCURVE",
"-80 -80 CURVE SMOOTH",
"-113 -80 OFFCURVE",
"-125 -124 OFFCURVE",
"-125 -148 CURVE SMOOTH",
"-125 -191 OFFCURVE",
"-98 -228 OFFCURVE",
"-45 -228 CURVE SMOOTH",
"35 -228 OFFCURVE",
"91 -142 OFFCURVE",
"128 32 CURVE SMOOTH",
"222 471 LINE SMOOTH",
"242 565 OFFCURVE",
"282 637 OFFCURVE",
"359 637 CURVE SMOOTH",
"411 637 OFFCURVE",
"440 604 OFFCURVE",
"440 557 CURVE SMOOTH"
);
},
{
closed = 1;
nodes = (
"52 396 LINE",
"199 396 LINE",
"204 415 LINE",
"57 415 LINE"
);
}
);
};
hints = (
{
place = "{-125, 54}";
},
{
place = "{184, 54}";
},
{
place = "{264, 58}";
},
{
place = "{390, 57}";
},
{
place = "{441, 57}";
},
{
horizontal = 1;
place = "{-228, 23}";
},
{
horizontal = 1;
place = "{-12, 22}";
},
{
horizontal = 1;
place = "{637, 23}";
}
);
layerId = UUID0;
paths = (
{
closed = 1;
nodes = (
"441 435 OFFCURVE",
"264 367 OFFCURVE",
"264 262 CURVE SMOOTH",
"264 234 OFFCURVE",
"278 221 OFFCURVE",
"296 206 CURVE SMOOTH",
"354 157 LINE SMOOTH",
"382 133 OFFCURVE",
"390 119 OFFCURVE",
"390 101 CURVE SMOOTH",
"390 57 OFFCURVE",
"342 10 OFFCURVE",
"287 10 CURVE SMOOTH",
"255 10 OFFCURVE",
"238 27 OFFCURVE",
"238 54 CURVE SMOOTH",
"238 75 OFFCURVE",
"249 102 OFFCURVE",
"262 124 CURVE",
"256 133 OFFCURVE",
"242 138 OFFCURVE",
"227 138 CURVE SMOOTH",
"200 138 OFFCURVE",
"184 99 OFFCURVE",
"184 65 CURVE SMOOTH",
"184 12 OFFCURVE",
"229 -12 OFFCURVE",
"282 -12 CURVE SMOOTH",
"382 -12 OFFCURVE",
"447 71 OFFCURVE",
"447 137 CURVE SMOOTH",
"447 165 OFFCURVE",
"434 188 OFFCURVE",
"401 216 CURVE SMOOTH",
"356 254 LINE SMOOTH",
"335 272 OFFCURVE",
"322 284 OFFCURVE",
"322 305 CURVE SMOOTH",
"322 372 OFFCURVE",
"498 453 OFFCURVE",
"498 555 CURVE SMOOTH",
"498 599 OFFCURVE",
"471 660 OFFCURVE",
"358 660 CURVE SMOOTH",
"243 660 OFFCURVE",
"171 552 OFFCURVE",
"142 402 CURVE SMOOTH",
"84 106 LINE SMOOTH",
"42 -109 OFFCURVE",
"22 -205 OFFCURVE",
"-35 -205 CURVE SMOOTH",
"-61 -205 OFFCURVE",
"-71 -186 OFFCURVE",
"-71 -162 CURVE SMOOTH",
"-71 -137 OFFCURVE",
"-58 -106 OFFCURVE",
"-41 -93 CURVE",
"-48 -85 OFFCURVE",
"-64 -80 OFFCURVE",
"-80 -80 CURVE SMOOTH",
"-113 -80 OFFCURVE",
"-125 -124 OFFCURVE",
"-125 -148 CURVE SMOOTH",
"-125 -191 OFFCURVE",
"-98 -228 OFFCURVE",
"-45 -228 CURVE SMOOTH",
"35 -228 OFFCURVE",
"91 -142 OFFCURVE",
"128 32 CURVE SMOOTH",
"222 471 LINE SMOOTH",
"242 565 OFFCURVE",
"282 637 OFFCURVE",
"359 637 CURVE SMOOTH",
"411 637 OFFCURVE",
"441 602 OFFCURVE",
"441 557 CURVE SMOOTH"
);
},
{
closed = 1;
nodes = (
"52 396 LINE",
"199 396 LINE",
"204 415 LINE",
"57 415 LINE"
);
}
);
width = 483;
}
);
unicode = 00DF;
},
{
glyphname = t;
layers = (
{
anchors = (
{
name = bottom;
position = "{99, 0}";
},
{
name = center;
position = "{142, 219}";
},
{
name = top;
position = "{181, 432}";
},
{
name = topright;
position = "{257, 432}";
}
);
background = {
paths = (
{
closed = 1;
nodes = (
"65 396 LINE",
"287 396 LINE",
"292 415 LINE",
"70 415 LINE"
);
},
{
closed = 1;
nodes = (
"224 538 LINE",
"182 444 OFFCURVE",
"143 415 OFFCURVE",
"70 415 CURVE",
"142 409 LINE",
"104 263 OFFCURVE",
"68 109 OFFCURVE",
"68 63 CURVE SMOOTH",
"68 11 OFFCURVE",
"88 -12 OFFCURVE",
"130 -12 CURVE SMOOTH",
"170 -12 OFFCURVE",
"211 22 OFFCURVE",
"242 110 CURVE",
"226 114 LINE",
"204 48 OFFCURVE",
"171 16 OFFCURVE",
"147 16 CURVE SMOOTH",
"130 16 OFFCURVE",
"122 30 OFFCURVE",
"122 49 CURVE SMOOTH",
"122 128 OFFCURVE",
"208 420 OFFCURVE",
"238 528 CURVE"
);
}
);
};
hints = (
{
place = "{70, 54}";
},
{
horizontal = 1;
place = "{538, -20}";
target = down;
type = TopGhost;
},
{
horizontal = 1;
place = "{-12, 21}";
target = up;
type = BottomGhost;
}
);
layerId = UUID0;
paths = (
{
closed = 1;
nodes = (
"65 396 LINE",
"287 396 LINE",
"292 415 LINE",
"70 415 LINE"
);
},
{
closed = 1;
nodes = (
"224 538 LINE",
"182 444 OFFCURVE",
"143 415 OFFCURVE",
"70 415 CURVE",
"142 409 LINE",
"104 263 OFFCURVE",
"68 109 OFFCURVE",
"68 63 CURVE SMOOTH",
"68 11 OFFCURVE",
"88 -12 OFFCURVE",
"130 -12 CURVE SMOOTH",
"170 -12 OFFCURVE",
"211 22 OFFCURVE",
"242 110 CURVE",
"226 114 LINE",
"204 48 OFFCURVE",
"171 16 OFFCURVE",
"147 16 CURVE SMOOTH",
"130 16 OFFCURVE",
"122 30 OFFCURVE",
"122 49 CURVE SMOOTH",
"122 128 OFFCURVE",
"208 420 OFFCURVE",
"238 528 CURVE"
);
}
);
width = 304;
}
);
leftKerningGroup = m;
unicode = 0074;
},
{
glyphname = u;
layers = (
{
anchors = (
{
name = bottom;
position = "{204, 0}";
},
{
name = ogonek;
position = "{409, 0}";
},
{
name = top;
position = "{297, 432}";
},
{
name = topright;
position = "{452, 406}";
}
);
background = {
paths = (
{
closed = 1;
nodes = (
"200 -12 OFFCURVE",
"253 6 OFFCURVE",
"308 111 CURVE",
"318 111 LINE",
"356 298 LINE",
"306 113 OFFCURVE",
"249 18 OFFCURVE",
"183 18 CURVE SMOOTH",
"147 18 OFFCURVE",
"128 38 OFFCURVE",
"128 89 CURVE SMOOTH",
"128 160 OFFCURVE",
"165 279 OFFCURVE",
"212 425 CURVE",
"198 435 LINE",
"154 423 OFFCURVE",
"117 416 OFFCURVE",
"69 410 CURVE",
"70 393 LINE",
"134 398 LINE",
"104 278 OFFCURVE",
"70 165 OFFCURVE",
"70 88 CURVE SMOOTH",
"70 26 OFFCURVE",
"93 -12 OFFCURVE",
"160 -12 CURVE SMOOTH"
);
},
{
closed = 1;
nodes = (
"308 11 OFFCURVE",
"328 -12 OFFCURVE",
"370 -12 CURVE SMOOTH",
"410 -12 OFFCURVE",
"451 22 OFFCURVE",
"482 110 CURVE",
"466 114 LINE",
"444 48 OFFCURVE",
"411 16 OFFCURVE",
"387 16 CURVE SMOOTH",
"370 16 OFFCURVE",
"362 30 OFFCURVE",
"362 49 CURVE SMOOTH",
"362 94 OFFCURVE",
"412 287 OFFCURVE",
"459 425 CURVE",
"445 435 LINE",
"401 423 OFFCURVE",
"364 416 OFFCURVE",
"316 410 CURVE",
"317 393 LINE",
"381 398 LINE",
"351 282 OFFCURVE",
"308 115 OFFCURVE",
"308 63 CURVE SMOOTH"
);
}
);
};
hints = (
{
place = "{73, 58}";
},
{
place = "{311, 54}";
},
{
horizontal = 1;
place = "{-12, 30}";
},
{
horizontal = 1;
place = "{435, -20}";
target = down;
type = TopGhost;
}
);
layerId = UUID0;
paths = (
{
closed = 1;
nodes = (
"308 11 OFFCURVE",
"328 -12 OFFCURVE",
"370 -12 CURVE SMOOTH",
"410 -12 OFFCURVE",
"451 22 OFFCURVE",
"482 110 CURVE",
"466 114 LINE",
"444 48 OFFCURVE",
"411 16 OFFCURVE",
"387 16 CURVE SMOOTH",
"370 16 OFFCURVE",
"362 30 OFFCURVE",
"362 49 CURVE SMOOTH",
"362 94 OFFCURVE",
"412 287 OFFCURVE",
"459 425 CURVE",
"445 435 LINE",
"401 423 OFFCURVE",
"364 416 OFFCURVE",
"316 410 CURVE",
"317 393 LINE",
"381 398 LINE",
"347 267 LINE SMOOTH",
"308 116 OFFCURVE",
"245 18 OFFCURVE",
"183 18 CURVE SMOOTH",
"147 18 OFFCURVE",
"128 38 OFFCURVE",
"128 89 CURVE SMOOTH",
"128 160 OFFCURVE",
"165 279 OFFCURVE",
"212 425 CURVE",
"198 435 LINE",
"154 423 OFFCURVE",
"117 416 OFFCURVE",
"69 410 CURVE",
"70 393 LINE",
"134 398 LINE",
"104 278 OFFCURVE",
"70 165 OFFCURVE",
"70 88 CURVE SMOOTH",
"70 26 OFFCURVE",
"93 -12 OFFCURVE",
"160 -12 CURVE SMOOTH",
"200 -12 OFFCURVE",
"253 6 OFFCURVE",
"308 111 CURVE",
"313 111 LINE",
"310 91 OFFCURVE",
"308 74 OFFCURVE",
"308 63 CURVE SMOOTH"
);
}
);
width = 537;
}
);
leftKerningGroup = u;
unicode = 0075;
},
{
glyphname = uhorn;
layers = (
{
background = {
paths = (
{
closed = 1;
nodes = (
"366 424 LINE",
"362 406 LINE",
"409 406 LINE",
"483 406 OFFCURVE",
"546 460 OFFCURVE",
"546 524 CURVE SMOOTH",
"546 550 OFFCURVE",
"533 566 OFFCURVE",
"510 566 CURVE SMOOTH",
"498 566 OFFCURVE",
"484 564 OFFCURVE",
"473 560 CURVE",
"482 547 OFFCURVE",
"487 534 OFFCURVE",
"487 516 CURVE SMOOTH",
"487 457 OFFCURVE",
"453 424 OFFCURVE",
"392 424 CURVE SMOOTH"
);
}
);
};
components = (
{
name = u;
}
);
hints = (
{
horizontal = 1;
origin = "{0, 0}";
},
{
origin = "{0, 13}";
target = "{0, 4}";
}
);
layerId = UUID0;
paths = (
{
closed = 1;
nodes = (
"381 398 LINE",
"426 403 LINE",
"502 422 OFFCURVE",
"546 466 OFFCURVE",
"546 524 CURVE SMOOTH",
"546 550 OFFCURVE",
"533 566 OFFCURVE",
"510 566 CURVE SMOOTH",
"497 566 OFFCURVE",
"483 564 OFFCURVE",
"473 560 CURVE",
"483 546 OFFCURVE",
"487 533 OFFCURVE",
"487 516 CURVE SMOOTH",
"487 453 OFFCURVE",
"440 424 OFFCURVE",
"316 410 CURVE"
);
}
);
width = 517;
}
);
unicode = 01B0;
},
{
glyphname = v;
layers = (
{
anchors = (
{
name = bottom;
position = "{175, 0}";
},
{
name = top;
position = "{267, 432}";
}
);
background = {
paths = (
{
closed = 1;
nodes = (
"184 21 OFFCURVE",
"166 46 OFFCURVE",
"166 81 CURVE SMOOTH",
"166 162 OFFCURVE",
"228 313 OFFCURVE",
"228 374 CURVE SMOOTH",
"228 420 OFFCURVE",
"205 444 OFFCURVE",
"163 444 CURVE SMOOTH",
"123 444 OFFCURVE",
"83 410 OFFCURVE",
"56 322 CURVE",
"73 318 LINE",
"91 384 OFFCURVE",
"123 416 OFFCURVE",
"147 416 CURVE SMOOTH",
"166 416 OFFCURVE",
"173 400 OFFCURVE",
"173 378 CURVE SMOOTH",
"173 311 OFFCURVE",
"106 167 OFFCURVE",
"106 83 CURVE SMOOTH",
"106 23 OFFCURVE",
"139 -12 OFFCURVE",
"188 -12 CURVE SMOOTH",
"350 -12 OFFCURVE",
"439 226 OFFCURVE",
"439 362 CURVE SMOOTH",
"439 398 OFFCURVE",
"430 444 OFFCURVE",
"402 444 CURVE SMOOTH",
"386 444 OFFCURVE",
"368 433 OFFCURVE",
"356 423 CURVE",
"382 390 OFFCURVE",
"403 354 OFFCURVE",
"403 289 CURVE SMOOTH",
"403 185 OFFCURVE",
"306 21 OFFCURVE",
"217 21 CURVE SMOOTH"
);
}
);
};
hints = (
{
place = "{89, 60}";
},
{
place = "{156, 55}";
},
{
place = "{386, 36}";
},
{
horizontal = 1;
place = "{-12, 33}";
},
{
horizontal = 1;
place = "{444, -20}";
target = down;
type = TopGhost;
}
);
layerId = UUID0;
paths = (
{
closed = 1;
nodes = (
"184 21 OFFCURVE",
"166 46 OFFCURVE",
"166 81 CURVE SMOOTH",
"166 162 OFFCURVE",
"228 313 OFFCURVE",
"228 374 CURVE SMOOTH",
"228 420 OFFCURVE",
"205 444 OFFCURVE",
"163 444 CURVE SMOOTH",
"123 444 OFFCURVE",
"83 410 OFFCURVE",
"56 322 CURVE",
"73 318 LINE",
"91 384 OFFCURVE",
"123 416 OFFCURVE",
"147 416 CURVE SMOOTH",
"166 416 OFFCURVE",
"173 400 OFFCURVE",
"173 378 CURVE SMOOTH",
"173 311 OFFCURVE",
"106 167 OFFCURVE",
"106 83 CURVE SMOOTH",
"106 23 OFFCURVE",
"139 -12 OFFCURVE",
"188 -12 CURVE SMOOTH",
"350 -12 OFFCURVE",
"439 226 OFFCURVE",
"439 362 CURVE SMOOTH",
"439 398 OFFCURVE",
"430 444 OFFCURVE",
"402 444 CURVE SMOOTH",
"386 444 OFFCURVE",
"368 433 OFFCURVE",
"356 423 CURVE",
"382 390 OFFCURVE",
"403 354 OFFCURVE",
"403 289 CURVE SMOOTH",
"403 185 OFFCURVE",
"306 21 OFFCURVE",
"217 21 CURVE SMOOTH"
);
}
);
width = 473;
}
);
leftKerningGroup = v;
unicode = 0076;
},
{
glyphname = w;
layers = (
{
anchors = (
{
name = bottom;
position = "{305, 0}";
},
{
name = top;
position = "{397, 432}";
}
);
background = {
paths = (
{
closed = 1;
nodes = (
"375 198 LINE",
"344 110 OFFCURVE",
"278 21 OFFCURVE",
"215 21 CURVE SMOOTH",
"183 21 OFFCURVE",
"166 46 OFFCURVE",
"166 81 CURVE SMOOTH",
"166 162 OFFCURVE",
"228 313 OFFCURVE",
"228 374 CURVE SMOOTH",
"228 420 OFFCURVE",
"205 444 OFFCURVE",
"163 444 CURVE SMOOTH",
"123 444 OFFCURVE",
"83 410 OFFCURVE",
"56 322 CURVE",
"73 318 LINE",
"91 384 OFFCURVE",
"123 416 OFFCURVE",
"147 416 CURVE SMOOTH",
"166 416 OFFCURVE",
"173 400 OFFCURVE",
"173 378 CURVE SMOOTH",
"173 311 OFFCURVE",
"106 167 OFFCURVE",
"106 83 CURVE SMOOTH",
"106 23 OFFCURVE",
"139 -12 OFFCURVE",
"188 -12 CURVE SMOOTH",
"290 -12 OFFCURVE",
"353 90 OFFCURVE",
"390 199 CURVE"
);
},
{
closed = 1;
nodes = (
"336 23 OFFCURVE",
"370 -12 OFFCURVE",
"420 -12 CURVE SMOOTH",
"578 -12 OFFCURVE",
"659 226 OFFCURVE",
"659 362 CURVE SMOOTH",
"659 398 OFFCURVE",
"650 444 OFFCURVE",
"622 444 CURVE SMOOTH",
"606 444 OFFCURVE",
"588 433 OFFCURVE",
"576 423 CURVE",
"602 390 OFFCURVE",
"623 354 OFFCURVE",
"623 289 CURVE SMOOTH",
"623 185 OFFCURVE",
"529 21 OFFCURVE",
"444 21 CURVE SMOOTH",
"412 21 OFFCURVE",
"396 46 OFFCURVE",
"396 81 CURVE SMOOTH",
"396 162 OFFCURVE",
"457 267 OFFCURVE",
"457 362 CURVE SMOOTH",
"457 398 OFFCURVE",
"448 444 OFFCURVE",
"420 444 CURVE SMOOTH",
"404 444 OFFCURVE",
"386 433 OFFCURVE",
"374 423 CURVE",
"443 322 OFFCURVE",
"336 182 OFFCURVE",
"336 83 CURVE SMOOTH"
);
}
);
};
hints = (
{
place = "{89, 60}";
},
{
place = "{156, 55}";
},
{
place = "{319, 60}";
},
{
place = "{380, 60}";
},
{
place = "{606, 36}";
},
{
horizontal = 1;
place = "{-12, 33}";
},
{
horizontal = 1;
place = "{444, -20}";
target = down;
type = TopGhost;
}
);
layerId = UUID0;
paths = (
{
closed = 1;
nodes = (
"375 198 LINE",
"344 110 OFFCURVE",
"278 21 OFFCURVE",
"215 21 CURVE SMOOTH",
"183 21 OFFCURVE",
"166 46 OFFCURVE",
"166 81 CURVE SMOOTH",
"166 162 OFFCURVE",
"228 313 OFFCURVE",
"228 374 CURVE SMOOTH",
"228 420 OFFCURVE",
"205 444 OFFCURVE",
"163 444 CURVE SMOOTH",
"123 444 OFFCURVE",
"83 410 OFFCURVE",
"56 322 CURVE",
"73 318 LINE",
"91 384 OFFCURVE",
"123 416 OFFCURVE",
"147 416 CURVE SMOOTH",
"166 416 OFFCURVE",
"173 400 OFFCURVE",
"173 378 CURVE SMOOTH",
"173 311 OFFCURVE",
"106 167 OFFCURVE",
"106 83 CURVE SMOOTH",
"106 23 OFFCURVE",
"139 -12 OFFCURVE",
"188 -12 CURVE SMOOTH",
"290 -12 OFFCURVE",
"353 90 OFFCURVE",
"390 199 CURVE"
);
},
{
closed = 1;
nodes = (
"336 23 OFFCURVE",
"370 -12 OFFCURVE",
"420 -12 CURVE SMOOTH",
"578 -12 OFFCURVE",
"659 226 OFFCURVE",
"659 362 CURVE SMOOTH",
"659 398 OFFCURVE",
"650 444 OFFCURVE",
"622 444 CURVE SMOOTH",
"606 444 OFFCURVE",
"588 433 OFFCURVE",
"576 423 CURVE",
"602 390 OFFCURVE",
"623 354 OFFCURVE",
"623 289 CURVE SMOOTH",
"623 185 OFFCURVE",
"529 21 OFFCURVE",
"444 21 CURVE SMOOTH",
"412 21 OFFCURVE",
"396 46 OFFCURVE",
"396 81 CURVE SMOOTH",
"396 162 OFFCURVE",
"457 267 OFFCURVE",
"457 362 CURVE SMOOTH",
"457 398 OFFCURVE",
"448 444 OFFCURVE",
"420 444 CURVE SMOOTH",
"404 444 OFFCURVE",
"386 433 OFFCURVE",
"374 423 CURVE",
"391 398 OFFCURVE",
"397 371 OFFCURVE",
"397 343 CURVE SMOOTH",
"397 256 OFFCURVE",
"336 158 OFFCURVE",
"336 83 CURVE SMOOTH"
);
}
);
width = 695;
}
);
leftKerningGroup = v;
unicode = 0077;
},
{
glyphname = x;
layers = (
{
anchors = (
{
name = bottom;
position = "{177, 0}";
},
{
name = top;
position = "{269, 432}";
}
);
background = {
paths = (
{
closed = 1;
nodes = (
"131 444 OFFCURVE",
"90 410 OFFCURVE",
"59 322 CURVE",
"75 318 LINE",
"97 384 OFFCURVE",
"130 416 OFFCURVE",
"154 416 CURVE SMOOTH",
"239 416 OFFCURVE",
"181 -12 OFFCURVE",
"326 -12 CURVE SMOOTH",
"366 -12 OFFCURVE",
"407 22 OFFCURVE",
"438 110 CURVE",
"422 114 LINE",
"400 48 OFFCURVE",
"367 16 OFFCURVE",
"343 16 CURVE SMOOTH",
"258 16 OFFCURVE",
"316 444 OFFCURVE",
"171 444 CURVE SMOOTH"
);
},
{
closed = 1;
nodes = (
"190 153 LINE SMOOTH",
"141 68 OFFCURVE",
"84 47 OFFCURVE",
"28 42 CURVE",
"28 18 OFFCURVE",
"32 -12 OFFCURVE",
"58 -12 CURVE SMOOTH",
"107 -12 OFFCURVE",
"162 61 OFFCURVE",
"204 135 CURVE SMOOTH",
"252 219 LINE",
"227 217 LINE"
);
},
{
closed = 1;
nodes = (
"297 279 LINE SMOOTH",
"346 364 OFFCURVE",
"403 385 OFFCURVE",
"459 390 CURVE",
"459 414 OFFCURVE",
"455 444 OFFCURVE",
"429 444 CURVE SMOOTH",
"380 444 OFFCURVE",
"325 371 OFFCURVE",
"283 297 CURVE SMOOTH",
"235 213 LINE",
"260 215 LINE"
);
}
);
};
hints = (
{
horizontal = 1;
place = "{-12, 28}";
},
{
horizontal = 1;
place = "{416, 28}";
}
);
layerId = UUID0;
paths = (
{
closed = 1;
nodes = (
"131 444 OFFCURVE",
"90 410 OFFCURVE",
"59 322 CURVE",
"75 318 LINE",
"97 384 OFFCURVE",
"130 416 OFFCURVE",
"154 416 CURVE SMOOTH",
"239 416 OFFCURVE",
"181 -12 OFFCURVE",
"326 -12 CURVE SMOOTH",
"366 -12 OFFCURVE",
"407 22 OFFCURVE",
"438 110 CURVE",
"422 114 LINE",
"400 48 OFFCURVE",
"367 16 OFFCURVE",
"343 16 CURVE SMOOTH",
"258 16 OFFCURVE",
"316 444 OFFCURVE",
"171 444 CURVE SMOOTH"
);
},
{
closed = 1;
nodes = (
"190 153 LINE SMOOTH",
"141 68 OFFCURVE",
"84 47 OFFCURVE",
"28 42 CURVE",
"28 18 OFFCURVE",
"32 -12 OFFCURVE",
"58 -12 CURVE SMOOTH",
"107 -12 OFFCURVE",
"162 61 OFFCURVE",
"204 135 CURVE SMOOTH",
"252 219 LINE",
"227 217 LINE"
);
},
{
closed = 1;
nodes = (
"297 279 LINE SMOOTH",
"346 364 OFFCURVE",
"403 385 OFFCURVE",
"459 390 CURVE",
"459 414 OFFCURVE",
"455 444 OFFCURVE",
"429 444 CURVE SMOOTH",
"380 444 OFFCURVE",
"325 371 OFFCURVE",
"283 297 CURVE SMOOTH",
"235 213 LINE",
"260 215 LINE"
);
}
);
width = 495;
}
);
unicode = 0078;
},
{
glyphname = y;
layers = (
{
anchors = (
{
name = bottom;
position = "{359, -63}";
},
{
name = top;
position = "{287, 432}";
}
);
background = {
paths = (
{
closed = 1;
nodes = (
"408 185 OFFCURVE",
"306 21 OFFCURVE",
"217 21 CURVE SMOOTH",
"184 21 OFFCURVE",
"166 46 OFFCURVE",
"166 81 CURVE SMOOTH",
"166 162 OFFCURVE",
"228 313 OFFCURVE",
"228 374 CURVE SMOOTH",
"228 420 OFFCURVE",
"205 444 OFFCURVE",
"163 444 CURVE SMOOTH",
"123 444 OFFCURVE",
"83 410 OFFCURVE",
"56 322 CURVE",
"73 318 LINE",
"91 384 OFFCURVE",
"123 416 OFFCURVE",
"147 416 CURVE SMOOTH",
"166 416 OFFCURVE",
"173 400 OFFCURVE",
"173 378 CURVE SMOOTH",
"173 311 OFFCURVE",
"106 167 OFFCURVE",
"106 83 CURVE SMOOTH",
"106 23 OFFCURVE",
"139 -12 OFFCURVE",
"188 -12 CURVE SMOOTH",
"291 -12 OFFCURVE",
"364 84 OFFCURVE",
"404 189 CURVE",
"352 -74 OFFCURVE",
"177 -202 OFFCURVE",
"88 -202 CURVE SMOOTH",
"56 -202 OFFCURVE",
"35 -185 OFFCURVE",
"35 -152 CURVE SMOOTH",
"35 -130 OFFCURVE",
"46 -107 OFFCURVE",
"64 -84 CURVE",
"54 -75 OFFCURVE",
"40 -70 OFFCURVE",
"23 -70 CURVE SMOOTH",
"-14 -70 OFFCURVE",
"-27 -119 OFFCURVE",
"-27 -145 CURVE SMOOTH",
"-27 -192 OFFCURVE",
"4 -228 OFFCURVE",
"74 -228 CURVE SMOOTH",
"216 -228 OFFCURVE",
"439 -47 OFFCURVE",
"439 362 CURVE SMOOTH",
"439 398 OFFCURVE",
"430 444 OFFCURVE",
"402 444 CURVE SMOOTH",
"386 444 OFFCURVE",
"368 433 OFFCURVE",
"356 423 CURVE",
"382 397 OFFCURVE",
"408 354 OFFCURVE",
"408 289 CURVE SMOOTH"
);
}
);
};
hints = (
{
place = "{-44, 62}";
},
{
place = "{89, 60}";
},
{
place = "{156, 55}";
},
{
place = "{391, 33}";
},
{
horizontal = 1;
place = "{-228, 26}";
},
{
horizontal = 1;
place = "{-12, 33}";
},
{
horizontal = 1;
place = "{444, -20}";
target = down;
type = TopGhost;
}
);
layerId = UUID0;
paths = (
{
closed = 1;
nodes = (
"408 185 OFFCURVE",
"306 21 OFFCURVE",
"217 21 CURVE SMOOTH",
"184 21 OFFCURVE",
"166 46 OFFCURVE",
"166 81 CURVE SMOOTH",
"166 162 OFFCURVE",
"228 313 OFFCURVE",
"228 374 CURVE SMOOTH",
"228 420 OFFCURVE",
"205 444 OFFCURVE",
"163 444 CURVE SMOOTH",
"123 444 OFFCURVE",
"83 410 OFFCURVE",
"56 322 CURVE",
"73 318 LINE",
"91 384 OFFCURVE",
"123 416 OFFCURVE",
"147 416 CURVE SMOOTH",
"166 416 OFFCURVE",
"173 400 OFFCURVE",
"173 378 CURVE SMOOTH",
"173 311 OFFCURVE",
"106 167 OFFCURVE",
"106 83 CURVE SMOOTH",
"106 23 OFFCURVE",
"139 -12 OFFCURVE",
"188 -12 CURVE SMOOTH",
"291 -12 OFFCURVE",
"364 84 OFFCURVE",
"404 189 CURVE",
"359 -69 OFFCURVE",
"177 -202 OFFCURVE",
"88 -202 CURVE SMOOTH",
"56 -202 OFFCURVE",
"35 -185 OFFCURVE",
"35 -152 CURVE SMOOTH",
"35 -130 OFFCURVE",
"46 -107 OFFCURVE",
"64 -84 CURVE",
"54 -75 OFFCURVE",
"40 -70 OFFCURVE",
"23 -70 CURVE SMOOTH",
"-14 -70 OFFCURVE",
"-27 -119 OFFCURVE",
"-27 -145 CURVE SMOOTH",
"-27 -192 OFFCURVE",
"4 -228 OFFCURVE",
"74 -228 CURVE SMOOTH",
"222 -228 OFFCURVE",
"441 -29 OFFCURVE",
"441 326 CURVE SMOOTH",
"441 401 OFFCURVE",
"430 444 OFFCURVE",
"402 444 CURVE SMOOTH",
"386 444 OFFCURVE",
"368 433 OFFCURVE",
"356 423 CURVE",
"382 397 OFFCURVE",
"408 354 OFFCURVE",
"408 289 CURVE SMOOTH"
);
}
);
width = 500;
}
);
leftKerningGroup = v;
unicode = 0079;
},
{
glyphname = z;
layers = (
{
anchors = (
{
name = bottom;
position = "{132, 0}";
},
{
name = top;
position = "{231, 432}";
}
);
background = {
paths = (
{
closed = 1;
nodes = (
"360 438 LINE",
"349 400 OFFCURVE",
"331 388 OFFCURVE",
"313 388 CURVE SMOOTH",
"276 388 OFFCURVE",
"231 444 OFFCURVE",
"155 444 CURVE SMOOTH",
"115 444 OFFCURVE",
"83 416 OFFCURVE",
"72 314 CURVE",
"91 311 LINE",
"102 369 OFFCURVE",
"129 387 OFFCURVE",
"163 387 CURVE SMOOTH",
"214 387 OFFCURVE",
"260 353 OFFCURVE",
"300 350 CURVE",
"44 71 LINE SMOOTH",
"29 54 OFFCURVE",
"17 28 OFFCURVE",
"6 -7 CURVE",
"21 -12 LINE",
"32 25 OFFCURVE",
"49 52 OFFCURVE",
"75 52 CURVE SMOOTH",
"127 52 OFFCURVE",
"175 -12 OFFCURVE",
"253 -12 CURVE SMOOTH",
"293 -12 OFFCURVE",
"325 17 OFFCURVE",
"336 123 CURVE",
"317 126 LINE",
"306 64 OFFCURVE",
"279 46 OFFCURVE",
"245 46 CURVE SMOOTH",
"191 46 OFFCURVE",
"138 86 OFFCURVE",
"93 89 CURVE",
"347 365 LINE SMOOTH",
"369 389 OFFCURVE",
"372 410 OFFCURVE",
"376 434 CURVE"
);
}
);
};
hints = (
{
horizontal = 1;
place = "{-12, 58}";
},
{
horizontal = 1;
place = "{52, 37}";
},
{
horizontal = 1;
place = "{387, 57}";
}
);
layerId = UUID0;
paths = (
{
closed = 1;
nodes = (
"360 438 LINE",
"349 400 OFFCURVE",
"331 388 OFFCURVE",
"313 388 CURVE SMOOTH",
"276 388 OFFCURVE",
"231 444 OFFCURVE",
"155 444 CURVE SMOOTH",
"115 444 OFFCURVE",
"83 416 OFFCURVE",
"72 314 CURVE",
"91 311 LINE",
"102 369 OFFCURVE",
"129 387 OFFCURVE",
"163 387 CURVE SMOOTH",
"214 387 OFFCURVE",
"260 353 OFFCURVE",
"300 350 CURVE",
"44 71 LINE SMOOTH",
"29 54 OFFCURVE",
"17 28 OFFCURVE",
"6 -7 CURVE",
"21 -12 LINE",
"32 25 OFFCURVE",
"49 52 OFFCURVE",
"75 52 CURVE SMOOTH",
"127 52 OFFCURVE",
"175 -12 OFFCURVE",
"253 -12 CURVE SMOOTH",
"293 -12 OFFCURVE",
"325 17 OFFCURVE",
"336 123 CURVE",
"317 126 LINE",
"306 64 OFFCURVE",
"279 46 OFFCURVE",
"245 46 CURVE SMOOTH",
"191 46 OFFCURVE",
"138 86 OFFCURVE",
"93 89 CURVE",
"347 365 LINE SMOOTH",
"369 389 OFFCURVE",
"372 410 OFFCURVE",
"376 434 CURVE"
);
}
);
width = 403;
}
);
leftKerningGroup = m;
unicode = 007A;
},
{
glyphname = f.alt;
layers = (
{
anchors = (
{
name = bottom;
position = "{117, 0}";
},
{
name = top;
position = "{209, 432}";
}
);
background = {
paths = (
{
closed = 1;
nodes = (
"95 396 LINE",
"317 396 LINE",
"322 415 LINE",
"100 415 LINE"
);
},
{
closed = 1;
nodes = (
"235 471 LINE SMOOTH",
"255 565 OFFCURVE",
"285 637 OFFCURVE",
"347 637 CURVE SMOOTH",
"379 637 OFFCURVE",
"391 617 OFFCURVE",
"391 591 CURVE SMOOTH",
"391 569 OFFCURVE",
"380 539 OFFCURVE",
"362 516 CURVE",
"370 507 OFFCURVE",
"386 502 OFFCURVE",
"403 502 CURVE SMOOTH",
"440 502 OFFCURVE",
"453 551 OFFCURVE",
"453 577 CURVE SMOOTH",
"453 624 OFFCURVE",
"422 660 OFFCURVE",
"352 660 CURVE SMOOTH",
"253 660 OFFCURVE",
"181 531 OFFCURVE",
"155 402 CURVE SMOOTH",
"97 106 LINE SMOOTH",
"54 -109 OFFCURVE",
"36 -205 OFFCURVE",
"-22 -205 CURVE SMOOTH",
"-48 -205 OFFCURVE",
"-58 -186 OFFCURVE",
"-58 -162 CURVE SMOOTH",
"-58 -137 OFFCURVE",
"-45 -106 OFFCURVE",
"-28 -93 CURVE",
"-35 -85 OFFCURVE",
"-51 -80 OFFCURVE",
"-67 -80 CURVE SMOOTH",
"-100 -80 OFFCURVE",
"-112 -124 OFFCURVE",
"-112 -148 CURVE SMOOTH",
"-112 -191 OFFCURVE",
"-85 -228 OFFCURVE",
"-32 -228 CURVE SMOOTH",
"49 -228 OFFCURVE",
"103 -142 OFFCURVE",
"141 32 CURVE SMOOTH"
);
}
);
};
hints = (
{
place = "{-125, 54}";
},
{
place = "{378, 62}";
},
{
horizontal = 1;
place = "{-228, 23}";
},
{
horizontal = 1;
place = "{637, 23}";
}
);
layerId = UUID0;
paths = (
{
closed = 1;
nodes = (
"65 396 LINE",
"317 396 LINE",
"322 415 LINE",
"70 415 LINE"
);
},
{
closed = 1;
nodes = (
"305 677 OFFCURVE",
"221 608 OFFCURVE",
"158 415 CURVE",
"97 106 LINE SMOOTH",
"55 -109 OFFCURVE",
"36 -205 OFFCURVE",
"-22 -205 CURVE SMOOTH",
"-48 -205 OFFCURVE",
"-58 -186 OFFCURVE",
"-58 -162 CURVE SMOOTH",
"-58 -137 OFFCURVE",
"-45 -106 OFFCURVE",
"-28 -93 CURVE",
"-35 -85 OFFCURVE",
"-51 -80 OFFCURVE",
"-67 -80 CURVE SMOOTH",
"-100 -80 OFFCURVE",
"-112 -124 OFFCURVE",
"-112 -148 CURVE SMOOTH",
"-112 -191 OFFCURVE",
"-85 -228 OFFCURVE",
"-32 -228 CURVE SMOOTH",
"49 -228 OFFCURVE",
"104 -143 OFFCURVE",
"141 32 CURVE SMOOTH",
"222 415 LINE",
"220 430 OFFCURVE",
"219 445 OFFCURVE",
"219 458 CURVE SMOOTH",
"219 563 OFFCURVE",
"275 614 OFFCURVE",
"401 614 CURVE",
"404 626 OFFCURVE",
"405 636 OFFCURVE",
"405 644 CURVE SMOOTH",
"405 666 OFFCURVE",
"397 677 OFFCURVE",
"380 677 CURVE SMOOTH"
);
}
);
width = 306;
}
);
leftKerningGroup = f;
rightKerningGroup = f;
},
{
glyphname = f_f;
layers = (
{
background = {
paths = (
{
closed = 1;
nodes = (
"81 396 LINE",
"154 396 LINE",
"97 106 LINE SMOOTH",
"55 -109 OFFCURVE",
"35 -205 OFFCURVE",
"-22 -205 CURVE SMOOTH",
"-48 -205 OFFCURVE",
"-58 -186 OFFCURVE",
"-58 -162 CURVE SMOOTH",
"-58 -137 OFFCURVE",
"-45 -106 OFFCURVE",
"-28 -93 CURVE",
"-35 -85 OFFCURVE",
"-51 -80 OFFCURVE",
"-67 -80 CURVE SMOOTH",
"-100 -80 OFFCURVE",
"-112 -124 OFFCURVE",
"-112 -148 CURVE SMOOTH",
"-112 -191 OFFCURVE",
"-85 -228 OFFCURVE",
"-32 -228 CURVE SMOOTH",
"48 -228 OFFCURVE",
"104 -142 OFFCURVE",
"141 32 CURVE SMOOTH",
"219 396 LINE",
"394 396 LINE",
"337 106 LINE SMOOTH",
"294 -109 OFFCURVE",
"276 -205 OFFCURVE",
"218 -205 CURVE SMOOTH",
"192 -205 OFFCURVE",
"182 -186 OFFCURVE",
"182 -162 CURVE SMOOTH",
"182 -137 OFFCURVE",
"195 -106 OFFCURVE",
"212 -93 CURVE",
"205 -85 OFFCURVE",
"189 -80 OFFCURVE",
"173 -80 CURVE SMOOTH",
"140 -80 OFFCURVE",
"128 -124 OFFCURVE",
"128 -148 CURVE SMOOTH",
"128 -191 OFFCURVE",
"155 -228 OFFCURVE",
"208 -228 CURVE SMOOTH",
"289 -228 OFFCURVE",
"343 -142 OFFCURVE",
"381 32 CURVE SMOOTH",
"459 396 LINE",
"557 396 LINE",
"562 415 LINE",
"463 415 LINE",
"475 471 LINE SMOOTH",
"495 565 OFFCURVE",
"525 637 OFFCURVE",
"587 637 CURVE SMOOTH",
"619 637 OFFCURVE",
"631 617 OFFCURVE",
"631 591 CURVE SMOOTH",
"631 569 OFFCURVE",
"620 539 OFFCURVE",
"602 516 CURVE",
"610 507 OFFCURVE",
"626 502 OFFCURVE",
"643 502 CURVE SMOOTH",
"680 502 OFFCURVE",
"693 551 OFFCURVE",
"693 577 CURVE SMOOTH",
"693 624 OFFCURVE",
"662 660 OFFCURVE",
"592 660 CURVE SMOOTH",
"554 660 OFFCURVE",
"520 641 OFFCURVE",
"492 611 CURVE",
"470 638 OFFCURVE",
"429 660 OFFCURVE",
"361 660 CURVE SMOOTH",
"250 660 OFFCURVE",
"184 539 OFFCURVE",
"157 415 CURVE",
"86 415 LINE"
);
},
{
closed = 1;
nodes = (
"235 471 LINE SMOOTH",
"255 565 OFFCURVE",
"285 637 OFFCURVE",
"362 637 CURVE SMOOTH",
"413 637 OFFCURVE",
"449 609 OFFCURVE",
"449 568 CURVE SMOOTH",
"449 561 OFFCURVE",
"448 554 OFFCURVE",
"446 547 CURVE",
"425 508 OFFCURVE",
"408 462 OFFCURVE",
"397 415 CURVE",
"223 415 LINE"
);
}
);
};
hints = (
{
place = "{-125, 54}";
},
{
place = "{115, 54}";
},
{
place = "{618, 62}";
},
{
horizontal = 1;
place = "{-228, 23}";
},
{
horizontal = 1;
place = "{637, 23}";
}
);
layerId = UUID0;
paths = (
{
closed = 1;
nodes = (
"51 396 LINE",
"154 396 LINE",
"97 106 LINE SMOOTH",
"55 -109 OFFCURVE",
"35 -205 OFFCURVE",
"-22 -205 CURVE SMOOTH",
"-48 -205 OFFCURVE",
"-58 -186 OFFCURVE",
"-58 -162 CURVE SMOOTH",
"-58 -137 OFFCURVE",
"-45 -106 OFFCURVE",
"-28 -93 CURVE",
"-35 -85 OFFCURVE",
"-51 -80 OFFCURVE",
"-67 -80 CURVE SMOOTH",
"-100 -80 OFFCURVE",
"-112 -124 OFFCURVE",
"-112 -148 CURVE SMOOTH",
"-112 -191 OFFCURVE",
"-85 -228 OFFCURVE",
"-32 -228 CURVE SMOOTH",
"48 -228 OFFCURVE",
"104 -142 OFFCURVE",
"141 32 CURVE SMOOTH",
"219 396 LINE",
"394 396 LINE",
"337 106 LINE SMOOTH",
"294 -109 OFFCURVE",
"276 -205 OFFCURVE",
"218 -205 CURVE SMOOTH",
"192 -205 OFFCURVE",
"182 -186 OFFCURVE",
"182 -162 CURVE SMOOTH",
"182 -137 OFFCURVE",
"195 -106 OFFCURVE",
"212 -93 CURVE",
"205 -85 OFFCURVE",
"189 -80 OFFCURVE",
"173 -80 CURVE SMOOTH",
"140 -80 OFFCURVE",
"128 -124 OFFCURVE",
"128 -148 CURVE SMOOTH",
"128 -191 OFFCURVE",
"155 -228 OFFCURVE",
"208 -228 CURVE SMOOTH",
"289 -228 OFFCURVE",
"343 -142 OFFCURVE",
"381 32 CURVE SMOOTH",
"459 396 LINE",
"557 396 LINE",
"562 415 LINE",
"463 415 LINE",
"475 471 LINE SMOOTH",
"495 565 OFFCURVE",
"525 637 OFFCURVE",
"587 637 CURVE SMOOTH",
"619 637 OFFCURVE",
"631 617 OFFCURVE",
"631 591 CURVE SMOOTH",
"631 569 OFFCURVE",
"620 539 OFFCURVE",
"602 516 CURVE",
"610 507 OFFCURVE",
"626 502 OFFCURVE",
"643 502 CURVE SMOOTH",
"680 502 OFFCURVE",
"693 551 OFFCURVE",
"693 577 CURVE SMOOTH",
"693 624 OFFCURVE",
"662 660 OFFCURVE",
"592 660 CURVE SMOOTH",
"554 660 OFFCURVE",
"520 641 OFFCURVE",
"492 611 CURVE",
"470 638 OFFCURVE",
"429 660 OFFCURVE",
"361 660 CURVE SMOOTH",
"250 660 OFFCURVE",
"184 539 OFFCURVE",
"157 415 CURVE",
"56 415 LINE"
);
},
{
closed = 1;
nodes = (
"235 471 LINE SMOOTH",
"255 565 OFFCURVE",
"285 637 OFFCURVE",
"362 637 CURVE SMOOTH",
"419 637 OFFCURVE",
"451 603 OFFCURVE",
"452 560 CURVE",
"431 521 OFFCURVE",
"408 462 OFFCURVE",
"397 415 CURVE",
"223 415 LINE"
);
}
);
width = 546;
}
);
leftKerningGroup = f;
leftMetricsKey = f;
rightKerningGroup = f;
rightMetricsKey = f;
},
{
glyphname = f_f_i;
layers = (
{
background = {
paths = (
{
closed = 1;
nodes = (
"95 396 LINE",
"154 396 LINE",
"97 106 LINE SMOOTH",
"55 -109 OFFCURVE",
"35 -205 OFFCURVE",
"-22 -205 CURVE SMOOTH",
"-48 -205 OFFCURVE",
"-58 -186 OFFCURVE",
"-58 -162 CURVE SMOOTH",
"-58 -137 OFFCURVE",
"-45 -106 OFFCURVE",
"-28 -93 CURVE",
"-35 -85 OFFCURVE",
"-51 -80 OFFCURVE",
"-67 -80 CURVE SMOOTH",
"-100 -80 OFFCURVE",
"-112 -124 OFFCURVE",
"-112 -148 CURVE SMOOTH",
"-112 -191 OFFCURVE",
"-85 -228 OFFCURVE",
"-32 -228 CURVE SMOOTH",
"48 -228 OFFCURVE",
"104 -142 OFFCURVE",
"141 32 CURVE SMOOTH",
"219 396 LINE",
"394 396 LINE",
"337 106 LINE SMOOTH",
"294 -109 OFFCURVE",
"276 -205 OFFCURVE",
"218 -205 CURVE SMOOTH",
"192 -205 OFFCURVE",
"182 -186 OFFCURVE",
"182 -162 CURVE SMOOTH",
"182 -137 OFFCURVE",
"195 -106 OFFCURVE",
"212 -93 CURVE",
"205 -85 OFFCURVE",
"189 -80 OFFCURVE",
"173 -80 CURVE SMOOTH",
"140 -80 OFFCURVE",
"128 -124 OFFCURVE",
"128 -148 CURVE SMOOTH",
"128 -191 OFFCURVE",
"155 -228 OFFCURVE",
"208 -228 CURVE SMOOTH",
"289 -228 OFFCURVE",
"343 -142 OFFCURVE",
"381 32 CURVE SMOOTH",
"459 396 LINE",
"557 396 LINE",
"562 415 LINE",
"463 415 LINE",
"475 471 LINE SMOOTH",
"495 565 OFFCURVE",
"525 637 OFFCURVE",
"587 637 CURVE SMOOTH",
"619 637 OFFCURVE",
"631 617 OFFCURVE",
"631 591 CURVE SMOOTH",
"631 569 OFFCURVE",
"620 539 OFFCURVE",
"602 516 CURVE",
"610 507 OFFCURVE",
"626 502 OFFCURVE",
"643 502 CURVE SMOOTH",
"680 502 OFFCURVE",
"693 551 OFFCURVE",
"693 577 CURVE SMOOTH",
"693 624 OFFCURVE",
"662 660 OFFCURVE",
"592 660 CURVE SMOOTH",
"554 660 OFFCURVE",
"520 641 OFFCURVE",
"492 611 CURVE",
"470 638 OFFCURVE",
"429 660 OFFCURVE",
"361 660 CURVE SMOOTH",
"250 660 OFFCURVE",
"184 539 OFFCURVE",
"157 415 CURVE",
"100 415 LINE"
);
},
{
closed = 1;
nodes = (
"235 471 LINE SMOOTH",
"255 565 OFFCURVE",
"285 637 OFFCURVE",
"362 637 CURVE SMOOTH",
"419 637 OFFCURVE",
"451 603 OFFCURVE",
"452 560 CURVE",
"431 521 OFFCURVE",
"408 462 OFFCURVE",
"397 415 CURVE",
"223 415 LINE"
);
},
{
closed = 1;
nodes = (
"475 471 LINE",
"495 565 OFFCURVE",
"525 637 OFFCURVE",
"602 637 CURVE SMOOTH",
"653 637 OFFCURVE",
"689 609 OFFCURVE",
"689 568 CURVE SMOOTH",
"689 552 OFFCURVE",
"684 535 OFFCURVE",
"673 516 CURVE",
"681 507 OFFCURVE",
"697 502 OFFCURVE",
"714 502 CURVE SMOOTH",
"737 502 OFFCURVE",
"753 526 OFFCURVE",
"753 555 CURVE SMOOTH",
"753 601 OFFCURVE",
"714 660 OFFCURVE",
"601 660 CURVE SMOOTH",
"486 660 OFFCURVE",
"420 531 OFFCURVE",
"395 402 CURVE SMOOTH"
);
},
{
closed = 1;
nodes = (
"666 396 LINE",
"636 280 OFFCURVE",
"593 115 OFFCURVE",
"593 63 CURVE SMOOTH",
"593 11 OFFCURVE",
"613 -12 OFFCURVE",
"655 -12 CURVE SMOOTH",
"695 -12 OFFCURVE",
"736 22 OFFCURVE",
"767 110 CURVE",
"751 114 LINE",
"729 48 OFFCURVE",
"696 16 OFFCURVE",
"672 16 CURVE SMOOTH",
"655 16 OFFCURVE",
"647 30 OFFCURVE",
"647 49 CURVE SMOOTH",
"647 94 OFFCURVE",
"697 287 OFFCURVE",
"744 425 CURVE",
"730 435 LINE",
"686 421 OFFCURVE",
"630 415 OFFCURVE",
"582 415 CURVE SMOOTH",
"340 415 LINE",
"335 396 LINE"
);
}
);
};
hints = (
{
place = "{-125, 54}";
},
{
place = "{115, 54}";
},
{
place = "{560, 54}";
},
{
place = "{666, 64}";
},
{
horizontal = 1;
place = "{-228, 23}";
},
{
horizontal = 1;
place = "{637, 23}";
},
{
horizontal = 1;
place = "{-12, 21}";
target = up;
type = BottomGhost;
}
);
layerId = UUID0;
paths = (
{
closed = 1;
nodes = (
"48 -228 OFFCURVE",
"104 -142 OFFCURVE",
"141 32 CURVE SMOOTH",
"219 396 LINE",
"394 396 LINE",
"337 106 LINE SMOOTH",
"294 -109 OFFCURVE",
"276 -205 OFFCURVE",
"218 -205 CURVE SMOOTH",
"192 -205 OFFCURVE",
"182 -186 OFFCURVE",
"182 -162 CURVE SMOOTH",
"182 -137 OFFCURVE",
"195 -106 OFFCURVE",
"212 -93 CURVE",
"205 -85 OFFCURVE",
"189 -80 OFFCURVE",
"173 -80 CURVE SMOOTH",
"140 -80 OFFCURVE",
"128 -124 OFFCURVE",
"128 -148 CURVE SMOOTH",
"128 -191 OFFCURVE",
"155 -228 OFFCURVE",
"208 -228 CURVE SMOOTH",
"289 -228 OFFCURVE",
"343 -142 OFFCURVE",
"381 32 CURVE SMOOTH",
"459 396 LINE",
"646 396 LINE",
"616 280 OFFCURVE",
"573 115 OFFCURVE",
"573 63 CURVE SMOOTH",
"573 11 OFFCURVE",
"593 -12 OFFCURVE",
"635 -12 CURVE SMOOTH",
"675 -12 OFFCURVE",
"716 22 OFFCURVE",
"747 110 CURVE",
"731 114 LINE",
"709 48 OFFCURVE",
"676 16 OFFCURVE",
"652 16 CURVE SMOOTH",
"635 16 OFFCURVE",
"627 30 OFFCURVE",
"627 49 CURVE SMOOTH",
"627 94 OFFCURVE",
"677 287 OFFCURVE",
"724 425 CURVE",
"710 435 LINE",
"666 421 OFFCURVE",
"610 415 OFFCURVE",
"562 415 CURVE SMOOTH",
"463 415 LINE",
"475 471 LINE SMOOTH",
"495 565 OFFCURVE",
"525 637 OFFCURVE",
"602 637 CURVE SMOOTH",
"653 637 OFFCURVE",
"679 609 OFFCURVE",
"679 568 CURVE SMOOTH",
"679 552 OFFCURVE",
"674 535 OFFCURVE",
"663 516 CURVE",
"671 507 OFFCURVE",
"687 502 OFFCURVE",
"704 502 CURVE SMOOTH",
"727 502 OFFCURVE",
"743 526 OFFCURVE",
"743 555 CURVE SMOOTH",
"743 601 OFFCURVE",
"714 660 OFFCURVE",
"601 660 CURVE SMOOTH",
"560 660 OFFCURVE",
"523 644 OFFCURVE",
"492 611 CURVE",
"470 638 OFFCURVE",
"429 660 OFFCURVE",
"361 660 CURVE SMOOTH",
"250 660 OFFCURVE",
"184 539 OFFCURVE",
"157 415 CURVE",
"70 415 LINE",
"65 396 LINE",
"154 396 LINE",
"97 106 LINE SMOOTH",
"55 -109 OFFCURVE",
"35 -205 OFFCURVE",
"-22 -205 CURVE SMOOTH",
"-48 -205 OFFCURVE",
"-58 -186 OFFCURVE",
"-58 -162 CURVE SMOOTH",
"-58 -137 OFFCURVE",
"-45 -106 OFFCURVE",
"-28 -93 CURVE",
"-35 -85 OFFCURVE",
"-51 -80 OFFCURVE",
"-67 -80 CURVE SMOOTH",
"-100 -80 OFFCURVE",
"-112 -124 OFFCURVE",
"-112 -148 CURVE SMOOTH",
"-112 -191 OFFCURVE",
"-85 -228 OFFCURVE",
"-32 -228 CURVE SMOOTH"
);
},
{
closed = 1;
nodes = (
"235 471 LINE SMOOTH",
"255 565 OFFCURVE",
"285 637 OFFCURVE",
"362 637 CURVE SMOOTH",
"419 637 OFFCURVE",
"451 603 OFFCURVE",
"452 560 CURVE",
"431 521 OFFCURVE",
"408 462 OFFCURVE",
"397 415 CURVE",
"223 415 LINE"
);
}
);
width = 802;
}
);
leftKerningGroup = f;
leftMetricsKey = f;
rightMetricsKey = i;
},
{
glyphname = f_f_l;
layers = (
{
background = {
paths = (
{
closed = 1;
nodes = (
"492 611 LINE",
"470 638 OFFCURVE",
"429 660 OFFCURVE",
"361 660 CURVE SMOOTH",
"250 660 OFFCURVE",
"184 539 OFFCURVE",
"157 415 CURVE",
"70 415 LINE",
"65 396 LINE",
"154 396 LINE",
"97 106 LINE SMOOTH",
"55 -109 OFFCURVE",
"35 -205 OFFCURVE",
"-22 -205 CURVE SMOOTH",
"-48 -205 OFFCURVE",
"-58 -186 OFFCURVE",
"-58 -162 CURVE SMOOTH",
"-58 -137 OFFCURVE",
"-45 -106 OFFCURVE",
"-28 -93 CURVE",
"-35 -85 OFFCURVE",
"-51 -80 OFFCURVE",
"-67 -80 CURVE SMOOTH",
"-100 -80 OFFCURVE",
"-112 -124 OFFCURVE",
"-112 -148 CURVE SMOOTH",
"-112 -191 OFFCURVE",
"-85 -228 OFFCURVE",
"-32 -228 CURVE SMOOTH",
"48 -228 OFFCURVE",
"104 -142 OFFCURVE",
"141 32 CURVE SMOOTH",
"219 396 LINE",
"394 396 LINE"
);
},
{
closed = 1;
nodes = (
"235 471 LINE SMOOTH",
"255 565 OFFCURVE",
"285 637 OFFCURVE",
"362 637 CURVE SMOOTH",
"419 637 OFFCURVE",
"451 603 OFFCURVE",
"452 560 CURVE",
"431 521 OFFCURVE",
"408 462 OFFCURVE",
"397 415 CURVE",
"223 415 LINE"
);
},
{
closed = 1;
nodes = (
"335 396 LINE",
"557 396 LINE",
"562 415 LINE",
"340 415 LINE"
);
},
{
closed = 1;
nodes = (
"637 128 OFFCURVE",
"745 509 OFFCURVE",
"792 647 CURVE",
"778 657 LINE",
"702 575 LINE",
"662 429 OFFCURVE",
"583 127 OFFCURVE",
"583 63 CURVE SMOOTH",
"583 11 OFFCURVE",
"603 -12 OFFCURVE",
"645 -12 CURVE SMOOTH",
"685 -12 OFFCURVE",
"726 22 OFFCURVE",
"757 110 CURVE",
"741 114 LINE",
"719 48 OFFCURVE",
"686 16 OFFCURVE",
"662 16 CURVE SMOOTH",
"645 16 OFFCURVE",
"637 30 OFFCURVE",
"637 49 CURVE SMOOTH"
);
},
{
closed = 1;
nodes = (
"496 660 OFFCURVE",
"424 552 OFFCURVE",
"395 402 CURVE SMOOTH",
"337 106 LINE SMOOTH",
"295 -109 OFFCURVE",
"275 -205 OFFCURVE",
"218 -205 CURVE SMOOTH",
"192 -205 OFFCURVE",
"182 -186 OFFCURVE",
"182 -162 CURVE SMOOTH",
"182 -137 OFFCURVE",
"195 -106 OFFCURVE",
"212 -93 CURVE",
"205 -85 OFFCURVE",
"189 -80 OFFCURVE",
"173 -80 CURVE SMOOTH",
"140 -80 OFFCURVE",
"128 -124 OFFCURVE",
"128 -148 CURVE SMOOTH",
"128 -191 OFFCURVE",
"155 -228 OFFCURVE",
"208 -228 CURVE SMOOTH",
"288 -228 OFFCURVE",
"344 -142 OFFCURVE",
"381 32 CURVE SMOOTH",
"475 471 LINE SMOOTH",
"495 565 OFFCURVE",
"535 637 OFFCURVE",
"612 637 CURVE SMOOTH",
"678 637 OFFCURVE",
"707 583 OFFCURVE",
"686 516 CURVE",
"694 507 OFFCURVE",
"697 502 OFFCURVE",
"714 502 CURVE SMOOTH",
"737 502 OFFCURVE",
"753 516 OFFCURVE",
"753 545 CURVE SMOOTH",
"753 591 OFFCURVE",
"724 660 OFFCURVE",
"611 660 CURVE SMOOTH"
);
}
);
};
hints = (
{
place = "{-125, 54}";
},
{
place = "{115, 54}";
},
{
place = "{570, 54}";
},
{
horizontal = 1;
place = "{-228, 23}";
},
{
horizontal = 1;
place = "{637, 23}";
},
{
horizontal = 1;
place = "{-12, 21}";
target = up;
type = BottomGhost;
}
);
layerId = UUID0;
paths = (
{
closed = 1;
nodes = (
"48 -228 OFFCURVE",
"104 -142 OFFCURVE",
"141 32 CURVE SMOOTH",
"219 396 LINE",
"394 396 LINE",
"337 106 LINE SMOOTH",
"295 -109 OFFCURVE",
"275 -205 OFFCURVE",
"218 -205 CURVE SMOOTH",
"192 -205 OFFCURVE",
"182 -186 OFFCURVE",
"182 -162 CURVE SMOOTH",
"182 -137 OFFCURVE",
"195 -106 OFFCURVE",
"212 -93 CURVE",
"205 -85 OFFCURVE",
"189 -80 OFFCURVE",
"173 -80 CURVE SMOOTH",
"140 -80 OFFCURVE",
"128 -124 OFFCURVE",
"128 -148 CURVE SMOOTH",
"128 -191 OFFCURVE",
"155 -228 OFFCURVE",
"208 -228 CURVE SMOOTH",
"288 -228 OFFCURVE",
"344 -142 OFFCURVE",
"381 32 CURVE SMOOTH",
"459 396 LINE",
"557 396 LINE",
"562 415 LINE",
"463 415 LINE",
"475 471 LINE SMOOTH",
"495 565 OFFCURVE",
"535 637 OFFCURVE",
"612 637 CURVE SMOOTH",
"664 637 OFFCURVE",
"693 604 OFFCURVE",
"693 557 CURVE SMOOTH",
"693 522 OFFCURVE",
"583 139 OFFCURVE",
"583 63 CURVE SMOOTH",
"583 11 OFFCURVE",
"603 -12 OFFCURVE",
"645 -12 CURVE SMOOTH",
"685 -12 OFFCURVE",
"726 22 OFFCURVE",
"757 110 CURVE",
"741 114 LINE",
"719 48 OFFCURVE",
"686 16 OFFCURVE",
"662 16 CURVE SMOOTH",
"645 16 OFFCURVE",
"637 30 OFFCURVE",
"637 49 CURVE SMOOTH",
"637 128 OFFCURVE",
"745 509 OFFCURVE",
"792 647 CURVE",
"778 657 LINE",
"733 608 LINE",
"713 637 OFFCURVE",
"676 660 OFFCURVE",
"611 660 CURVE SMOOTH",
"564 660 OFFCURVE",
"524 642 OFFCURVE",
"492 611 CURVE",
"470 638 OFFCURVE",
"429 660 OFFCURVE",
"361 660 CURVE SMOOTH",
"250 660 OFFCURVE",
"184 539 OFFCURVE",
"157 415 CURVE",
"70 415 LINE",
"65 396 LINE",
"154 396 LINE",
"97 106 LINE SMOOTH",
"55 -109 OFFCURVE",
"35 -205 OFFCURVE",
"-22 -205 CURVE SMOOTH",
"-48 -205 OFFCURVE",
"-58 -186 OFFCURVE",
"-58 -162 CURVE SMOOTH",
"-58 -137 OFFCURVE",
"-45 -106 OFFCURVE",
"-28 -93 CURVE",
"-35 -85 OFFCURVE",
"-51 -80 OFFCURVE",
"-67 -80 CURVE SMOOTH",
"-100 -80 OFFCURVE",
"-112 -124 OFFCURVE",
"-112 -148 CURVE SMOOTH",
"-112 -191 OFFCURVE",
"-85 -228 OFFCURVE",
"-32 -228 CURVE SMOOTH"
);
},
{
closed = 1;
nodes = (
"235 471 LINE SMOOTH",
"255 565 OFFCURVE",
"285 637 OFFCURVE",
"362 637 CURVE SMOOTH",
"419 637 OFFCURVE",
"451 603 OFFCURVE",
"452 560 CURVE",
"423 513 OFFCURVE",
"413 464 OFFCURVE",
"397 415 CURVE",
"223 415 LINE"
);
}
);
width = 812;
}
);
leftKerningGroup = f;
leftMetricsKey = f;
rightMetricsKey = l;
},
{
glyphname = fi;
layers = (
{
background = {
paths = (
{
closed = 1;
nodes = (
"246 660 OFFCURVE",
"180 531 OFFCURVE",
"155 402 CURVE SMOOTH",
"97 106 LINE SMOOTH",
"55 -109 OFFCURVE",
"35 -205 OFFCURVE",
"-22 -205 CURVE SMOOTH",
"-48 -205 OFFCURVE",
"-58 -186 OFFCURVE",
"-58 -162 CURVE SMOOTH",
"-58 -137 OFFCURVE",
"-45 -106 OFFCURVE",
"-28 -93 CURVE",
"-35 -85 OFFCURVE",
"-51 -80 OFFCURVE",
"-67 -80 CURVE SMOOTH",
"-100 -80 OFFCURVE",
"-112 -124 OFFCURVE",
"-112 -148 CURVE SMOOTH",
"-112 -191 OFFCURVE",
"-85 -228 OFFCURVE",
"-32 -228 CURVE SMOOTH",
"48 -228 OFFCURVE",
"104 -142 OFFCURVE",
"141 32 CURVE SMOOTH",
"235 471 LINE SMOOTH",
"255 565 OFFCURVE",
"285 637 OFFCURVE",
"362 637 CURVE SMOOTH",
"413 637 OFFCURVE",
"449 609 OFFCURVE",
"449 568 CURVE SMOOTH",
"449 552 OFFCURVE",
"444 535 OFFCURVE",
"433 516 CURVE",
"441 507 OFFCURVE",
"457 502 OFFCURVE",
"474 502 CURVE SMOOTH",
"497 502 OFFCURVE",
"513 526 OFFCURVE",
"513 555 CURVE SMOOTH",
"513 601 OFFCURVE",
"474 660 OFFCURVE",
"361 660 CURVE SMOOTH"
);
},
{
closed = 1;
nodes = (
"426 396 LINE",
"396 280 OFFCURVE",
"353 115 OFFCURVE",
"353 63 CURVE SMOOTH",
"353 11 OFFCURVE",
"373 -12 OFFCURVE",
"415 -12 CURVE SMOOTH",
"455 -12 OFFCURVE",
"496 22 OFFCURVE",
"527 110 CURVE",
"511 114 LINE",
"489 48 OFFCURVE",
"456 16 OFFCURVE",
"432 16 CURVE SMOOTH",
"415 16 OFFCURVE",
"407 30 OFFCURVE",
"407 49 CURVE SMOOTH",
"407 94 OFFCURVE",
"457 287 OFFCURVE",
"504 425 CURVE",
"490 435 LINE",
"446 421 OFFCURVE",
"390 415 OFFCURVE",
"342 415 CURVE SMOOTH",
"100 415 LINE",
"95 396 LINE"
);
}
);
};
hints = (
{
place = "{-125, 54}";
},
{
place = "{320, 54}";
},
{
place = "{426, 64}";
},
{
horizontal = 1;
place = "{-228, 23}";
},
{
horizontal = 1;
place = "{637, 23}";
},
{
horizontal = 1;
place = "{-12, 21}";
target = up;
type = BottomGhost;
}
);
layerId = UUID0;
paths = (
{
closed = 1;
nodes = (
"246 660 OFFCURVE",
"180 531 OFFCURVE",
"155 402 CURVE SMOOTH",
"97 106 LINE SMOOTH",
"55 -109 OFFCURVE",
"35 -205 OFFCURVE",
"-22 -205 CURVE SMOOTH",
"-48 -205 OFFCURVE",
"-58 -186 OFFCURVE",
"-58 -162 CURVE SMOOTH",
"-58 -137 OFFCURVE",
"-45 -106 OFFCURVE",
"-28 -93 CURVE",
"-35 -85 OFFCURVE",
"-51 -80 OFFCURVE",
"-67 -80 CURVE SMOOTH",
"-100 -80 OFFCURVE",
"-112 -124 OFFCURVE",
"-112 -148 CURVE SMOOTH",
"-112 -191 OFFCURVE",
"-85 -228 OFFCURVE",
"-32 -228 CURVE SMOOTH",
"48 -228 OFFCURVE",
"104 -142 OFFCURVE",
"141 32 CURVE SMOOTH",
"235 471 LINE SMOOTH",
"255 565 OFFCURVE",
"285 637 OFFCURVE",
"362 637 CURVE SMOOTH",
"413 637 OFFCURVE",
"439 609 OFFCURVE",
"439 568 CURVE SMOOTH",
"439 552 OFFCURVE",
"434 535 OFFCURVE",
"423 516 CURVE",
"431 507 OFFCURVE",
"447 502 OFFCURVE",
"464 502 CURVE SMOOTH",
"487 502 OFFCURVE",
"503 526 OFFCURVE",
"503 555 CURVE SMOOTH",
"503 601 OFFCURVE",
"474 660 OFFCURVE",
"361 660 CURVE SMOOTH"
);
},
{
closed = 1;
nodes = (
"406 396 LINE",
"376 280 OFFCURVE",
"333 115 OFFCURVE",
"333 63 CURVE SMOOTH",
"333 11 OFFCURVE",
"353 -12 OFFCURVE",
"395 -12 CURVE SMOOTH",
"435 -12 OFFCURVE",
"476 22 OFFCURVE",
"507 110 CURVE",
"491 114 LINE",
"469 48 OFFCURVE",
"436 16 OFFCURVE",
"412 16 CURVE SMOOTH",
"395 16 OFFCURVE",
"387 30 OFFCURVE",
"387 49 CURVE SMOOTH",
"387 94 OFFCURVE",
"437 287 OFFCURVE",
"484 425 CURVE",
"470 435 LINE",
"426 421 OFFCURVE",
"370 415 OFFCURVE",
"322 415 CURVE SMOOTH",
"70 415 LINE",
"65 396 LINE"
);
}
);
width = 562;
}
);
leftKerningGroup = f;
leftMetricsKey = f;
rightMetricsKey = i;
unicode = FB01;
},
{
glyphname = fl;
layers = (
{
background = {
paths = (
{
closed = 1;
nodes = (
"65 396 LINE",
"317 396 LINE",
"322 415 LINE",
"70 415 LINE"
);
},
{
closed = 1;
nodes = (
"397 128 OFFCURVE",
"505 509 OFFCURVE",
"552 647 CURVE",
"538 657 LINE",
"462 575 LINE SMOOTH",
"422 429 OFFCURVE",
"343 127 OFFCURVE",
"343 63 CURVE SMOOTH",
"343 11 OFFCURVE",
"363 -12 OFFCURVE",
"405 -12 CURVE SMOOTH",
"445 -12 OFFCURVE",
"486 22 OFFCURVE",
"517 110 CURVE",
"501 114 LINE",
"479 48 OFFCURVE",
"446 16 OFFCURVE",
"422 16 CURVE SMOOTH",
"405 16 OFFCURVE",
"397 30 OFFCURVE",
"397 49 CURVE SMOOTH"
);
},
{
closed = 1;
nodes = (
"256 660 OFFCURVE",
"184 552 OFFCURVE",
"155 402 CURVE SMOOTH",
"97 106 LINE SMOOTH",
"55 -109 OFFCURVE",
"35 -205 OFFCURVE",
"-22 -205 CURVE SMOOTH",
"-48 -205 OFFCURVE",
"-58 -186 OFFCURVE",
"-58 -162 CURVE SMOOTH",
"-58 -137 OFFCURVE",
"-45 -106 OFFCURVE",
"-28 -93 CURVE",
"-35 -85 OFFCURVE",
"-51 -80 OFFCURVE",
"-67 -80 CURVE SMOOTH",
"-100 -80 OFFCURVE",
"-112 -124 OFFCURVE",
"-112 -148 CURVE SMOOTH",
"-112 -191 OFFCURVE",
"-85 -228 OFFCURVE",
"-32 -228 CURVE SMOOTH",
"48 -228 OFFCURVE",
"104 -142 OFFCURVE",
"141 32 CURVE SMOOTH",
"235 471 LINE SMOOTH",
"255 565 OFFCURVE",
"295 637 OFFCURVE",
"372 637 CURVE SMOOTH",
"438 637 OFFCURVE",
"467 583 OFFCURVE",
"446 516 CURVE",
"454 507 OFFCURVE",
"457 502 OFFCURVE",
"474 502 CURVE SMOOTH",
"497 502 OFFCURVE",
"513 516 OFFCURVE",
"513 545 CURVE SMOOTH",
"513 591 OFFCURVE",
"484 660 OFFCURVE",
"371 660 CURVE SMOOTH"
);
}
);
};
hints = (
{
place = "{-125, 54}";
},
{
place = "{330, 54}";
},
{
horizontal = 1;
place = "{-228, 23}";
},
{
horizontal = 1;
place = "{637, 23}";
},
{
horizontal = 1;
place = "{-12, 21}";
target = up;
type = BottomGhost;
}
);
layerId = UUID0;
paths = (
{
closed = 1;
nodes = (
"397 128 OFFCURVE",
"505 509 OFFCURVE",
"552 647 CURVE",
"538 657 LINE",
"493 608 LINE",
"473 637 OFFCURVE",
"436 660 OFFCURVE",
"371 660 CURVE SMOOTH",
"259 660 OFFCURVE",
"188 558 OFFCURVE",
"157 415 CURVE",
"70 415 LINE",
"65 396 LINE",
"154 396 LINE",
"97 106 LINE SMOOTH",
"55 -109 OFFCURVE",
"35 -205 OFFCURVE",
"-22 -205 CURVE SMOOTH",
"-48 -205 OFFCURVE",
"-58 -186 OFFCURVE",
"-58 -162 CURVE SMOOTH",
"-58 -137 OFFCURVE",
"-45 -106 OFFCURVE",
"-28 -93 CURVE",
"-35 -85 OFFCURVE",
"-51 -80 OFFCURVE",
"-67 -80 CURVE SMOOTH",
"-100 -80 OFFCURVE",
"-112 -124 OFFCURVE",
"-112 -148 CURVE SMOOTH",
"-112 -191 OFFCURVE",
"-85 -228 OFFCURVE",
"-32 -228 CURVE SMOOTH",
"48 -228 OFFCURVE",
"104 -142 OFFCURVE",
"141 32 CURVE SMOOTH",
"219 396 LINE",
"317 396 LINE",
"322 415 LINE",
"223 415 LINE",
"235 471 LINE SMOOTH",
"255 565 OFFCURVE",
"295 637 OFFCURVE",
"372 637 CURVE SMOOTH",
"424 637 OFFCURVE",
"453 604 OFFCURVE",
"453 557 CURVE SMOOTH",
"453 522 OFFCURVE",
"343 139 OFFCURVE",
"343 63 CURVE SMOOTH",
"343 11 OFFCURVE",
"363 -12 OFFCURVE",
"405 -12 CURVE SMOOTH",
"445 -12 OFFCURVE",
"486 22 OFFCURVE",
"517 110 CURVE",
"501 114 LINE",
"479 48 OFFCURVE",
"446 16 OFFCURVE",
"422 16 CURVE SMOOTH",
"405 16 OFFCURVE",
"397 30 OFFCURVE",
"397 49 CURVE SMOOTH"
);
}
);
width = 572;
}
);
leftKerningGroup = f;
leftMetricsKey = f;
rightMetricsKey = l;
unicode = FB02;
},
{
glyphname = ordfeminine;
layers = (
{
background = {
paths = (
{
closed = 1;
nodes = (
"301 437 OFFCURVE",
"331 553 OFFCURVE",
"359 636 CURVE",
"346 647 LINE",
"328 616 LINE",
"312 636 OFFCURVE",
"286 648 OFFCURVE",
"258 648 CURVE SMOOTH",
"159 648 OFFCURVE",
"108 545 OFFCURVE",
"108 467 CURVE SMOOTH",
"108 409 OFFCURVE",
"139 375 OFFCURVE",
"178 375 CURVE SMOOTH",
"200 375 OFFCURVE",
"232 383 OFFCURVE",
"261 434 CURVE",
"260 429 OFFCURVE",
"260 423 OFFCURVE",
"260 420 CURVE SMOOTH",
"260 389 OFFCURVE",
"273 375 OFFCURVE",
"302 375 CURVE SMOOTH",
"328 375 OFFCURVE",
"354 395 OFFCURVE",
"373 448 CURVE",
"355 450 LINE",
"342 411 OFFCURVE",
"324 392 OFFCURVE",
"312 392 CURVE SMOOTH",
"305 392 OFFCURVE",
"301 400 OFFCURVE",
"301 411 CURVE SMOOTH"
);
},
{
closed = 1;
nodes = (
"262 434 LINE",
"262 435 OFFCURVE",
"262 435 OFFCURVE",
"261 435 CURVE SMOOTH",
"261 435 OFFCURVE",
"262 435 OFFCURVE",
"262 436 CURVE"
);
},
{
closed = 1;
nodes = (
"171 393 OFFCURVE",
"156 414 OFFCURVE",
"156 460 CURVE SMOOTH",
"156 518 OFFCURVE",
"186 634 OFFCURVE",
"257 634 CURVE SMOOTH",
"274 634 OFFCURVE",
"288 628 OFFCURVE",
"303 614 CURVE",
"302 614 LINE",
"299 604 OFFCURVE",
"297 594 OFFCURVE",
"295 584 CURVE",
"284 543 LINE",
"258 448 OFFCURVE",
"221 393 OFFCURVE",
"192 393 CURVE SMOOTH"
);
},
{
closed = 1;
nodes = (
"355 637 LINE",
"347 643 LINE",
"328 611 LINE",
"312 635 OFFCURVE",
"287 648 OFFCURVE",
"258 648 CURVE"
);
},
{
closed = 1;
nodes = (
"257 634 LINE",
"276 634 OFFCURVE",
"292 628 OFFCURVE",
"307 614 CURVE"
);
}
);
};
hints = (
{
place = "{70, 48}";
},
{
horizontal = 1;
place = "{648, -20}";
target = down;
type = TopGhost;
},
{
horizontal = 1;
place = "{375, 21}";
target = up;
type = BottomGhost;
},
{
horizontal = 1;
place = "{634, -20}";
target = down;
type = TopGhost;
}
);
layerId = UUID0;
paths = (
{
closed = 1;
nodes = (
"301 437 OFFCURVE",
"330 550 OFFCURVE",
"358 633 CURVE",
"346 642 LINE",
"328 611 LINE",
"312 631 OFFCURVE",
"286 648 OFFCURVE",
"255 648 CURVE SMOOTH",
"159 648 OFFCURVE",
"108 545 OFFCURVE",
"108 467 CURVE SMOOTH",
"108 409 OFFCURVE",
"139 375 OFFCURVE",
"178 375 CURVE SMOOTH",
"199 375 OFFCURVE",
"231 384 OFFCURVE",
"257 434 CURVE",
"261 434 LINE",
"260 429 OFFCURVE",
"260 423 OFFCURVE",
"260 420 CURVE SMOOTH",
"260 392 OFFCURVE",
"273 375 OFFCURVE",
"299 375 CURVE SMOOTH",
"328 375 OFFCURVE",
"347 394 OFFCURVE",
"366 446 CURVE",
"355 450 LINE",
"342 411 OFFCURVE",
"324 392 OFFCURVE",
"312 392 CURVE SMOOTH",
"305 392 OFFCURVE",
"301 398 OFFCURVE",
"301 409 CURVE SMOOTH"
);
},
{
closed = 1;
nodes = (
"171 393 OFFCURVE",
"156 414 OFFCURVE",
"156 460 CURVE SMOOTH",
"156 518 OFFCURVE",
"186 634 OFFCURVE",
"257 634 CURVE SMOOTH",
"274 634 OFFCURVE",
"290 627 OFFCURVE",
"303 614 CURVE",
"268 459 OFFCURVE",
"230 393 OFFCURVE",
"192 393 CURVE SMOOTH"
);
}
);
width = 347;
}
);
unicode = 00AA;
},
{
glyphname = ordmasculine;
layers = (
{
hints = (
{
place = "{70, 46}";
},
{
place = "{260, 46}";
},
{
horizontal = 1;
place = "{375, 21}";
target = up;
type = BottomGhost;
},
{
horizontal = 1;
place = "{648, -20}";
target = down;
type = TopGhost;
},
{
horizontal = 1;
place = "{635, -20}";
target = down;
type = TopGhost;
}
);
layerId = UUID0;
paths = (
{
closed = 1;
nodes = (
"108 408 OFFCURVE",
"143 375 OFFCURVE",
"197 375 CURVE SMOOTH",
"294 375 OFFCURVE",
"344 477 OFFCURVE",
"344 555 CURVE SMOOTH",
"344 615 OFFCURVE",
"309 648 OFFCURVE",
"255 648 CURVE SMOOTH",
"159 648 OFFCURVE",
"108 546 OFFCURVE",
"108 469 CURVE SMOOTH"
);
},
{
closed = 1;
nodes = (
"281 635 OFFCURVE",
"298 609 OFFCURVE",
"298 562 CURVE SMOOTH",
"298 506 OFFCURVE",
"267 388 OFFCURVE",
"200 388 CURVE SMOOTH",
"172 388 OFFCURVE",
"154 414 OFFCURVE",
"154 462 CURVE SMOOTH",
"154 518 OFFCURVE",
"186 635 OFFCURVE",
"253 635 CURVE SMOOTH"
);
}
);
width = 326;
}
);
unicode = 00BA;
},
{
glyphname = pi;
layers = (
{
background = {
paths = (
{
closed = 1;
nodes = (
"355 0 LINE",
"439 399 LINE"
);
},
{
closed = 1;
nodes = (
"286 0 LINE",
"370 399 LINE"
);
}
);
};
hints = (
{
place = "{304, 66}";
},
{
horizontal = 1;
place = "{399, 33}";
},
{
horizontal = 1;
place = "{-12, 21}";
target = up;
type = BottomGhost;
}
);
layerId = UUID0;
paths = (
{
closed = 1;
nodes = (
"132 0 LINE",
"216 399 LINE",
"370 399 LINE",
"311 118 LINE SMOOTH",
"307 98 OFFCURVE",
"304 80 OFFCURVE",
"304 63 CURVE SMOOTH",
"304 18 OFFCURVE",
"329 -12 OFFCURVE",
"397 -12 CURVE",
"404 9 LINE",
"387 9 OFFCURVE",
"370 24 OFFCURVE",
"370 48 CURVE SMOOTH",
"370 68 OFFCURVE",
"395 200 OFFCURVE",
"439 399 CURVE",
"506 399 LINE",
"513 432 LINE",
"88 432 LINE",
"81 399 LINE",
"148 399 LINE",
"62 -6 LINE"
);
}
);
width = 505;
}
);
unicode = 03C0;
},
{
glyphname = zero;
layers = (
{
guideLines = (
{
angle = 180;
position = "{119, 283}";
}
);
hints = (
{
horizontal = 1;
origin = "{0, 11}";
target = "{1, 11}";
},
{
horizontal = 1;
origin = "{1, 5}";
target = "{0, 5}";
},
{
origin = "{0, 8}";
target = "{1, 2}";
},
{
origin = "{1, 8}";
target = "{0, 2}";
}
);
layerId = UUID0;
paths = (
{
closed = 1;
nodes = (
"347 -12 OFFCURVE",
"477 176 OFFCURVE",
"477 385 CURVE SMOOTH",
"477 508 OFFCURVE",
"423 579 OFFCURVE",
"329 579 CURVE SMOOTH",
"184 579 OFFCURVE",
"56 393 OFFCURVE",
"56 183 CURVE SMOOTH",
"56 58 OFFCURVE",
"109 -12 OFFCURVE",
"203 -12 CURVE SMOOTH"
);
},
{
closed = 1;
nodes = (
"159 9 OFFCURVE",
"128 63 OFFCURVE",
"128 154 CURVE SMOOTH",
"128 345 OFFCURVE",
"230 557 OFFCURVE",
"321 557 CURVE SMOOTH",
"374 557 OFFCURVE",
"405 502 OFFCURVE",
"405 410 CURVE SMOOTH",
"405 219 OFFCURVE",
"303 9 OFFCURVE",
"211 9 CURVE SMOOTH"
);
}
);
width = 503;
}
);
rightKerningGroup = zero;
unicode = 0030;
},
{
glyphname = one;
layers = (
{
hints = (
{
place = "{-1566, -1593}";
},
{
horizontal = 1;
place = "{-1611, -1608}";
},
{
horizontal = 1;
place = "{-1478, -20}";
target = down;
type = TopGhost;
}
);
layerId = UUID0;
paths = (
{
closed = 1;
nodes = (
"-2 0 LINE",
"303 0 LINE",
"307 19 LINE",
"216 19 LINE SMOOTH",
"205 19 OFFCURVE",
"202 25 OFFCURVE",
"204 33 CURVE SMOOTH",
"296 465 LINE SMOOTH",
"308 522 OFFCURVE",
"321 560 OFFCURVE",
"330 579 CURVE",
"306 570 OFFCURVE",
"246 555 OFFCURVE",
"191 547 CURVE SMOOTH",
"100 534 LINE",
"97 510 LINE",
"206 516 LINE SMOOTH",
"225 516 OFFCURVE",
"233 509 OFFCURVE",
"230 491 CURVE SMOOTH",
"132 31 LINE SMOOTH",
"130 22 OFFCURVE",
"126 19 OFFCURVE",
"116 19 CURVE SMOOTH",
"2 19 LINE"
);
}
);
width = 374;
}
);
rightKerningGroup = zero;
unicode = 0031;
},
{
glyphname = two;
layers = (
{
background = {
paths = (
{
closed = 1;
nodes = (
"371 557 OFFCURVE",
"395 510 OFFCURVE",
"379 434 CURVE SMOOTH",
"369 386 OFFCURVE",
"339 313 OFFCURVE",
"270 250 CURVE SMOOTH",
"-3 0 LINE",
"273 0 LINE SMOOTH",
"330 0 OFFCURVE",
"366 -4 OFFCURVE",
"383 -9 CURVE",
"383 9 OFFCURVE",
"389 67 OFFCURVE",
"401 124 CURVE SMOOTH",
"412 172 LINE",
"389 172 LINE",
"358 85 LINE SMOOTH",
"352 67 OFFCURVE",
"342 63 OFFCURVE",
"326 63 CURVE SMOOTH",
"103 63 LINE",
"282 224 LINE SMOOTH",
"356 291 OFFCURVE",
"438 354 OFFCURVE",
"458 447 CURVE SMOOTH",
"472 513 OFFCURVE",
"430 579 OFFCURVE",
"312 579 CURVE SMOOTH",
"204 579 OFFCURVE",
"146 520 OFFCURVE",
"132 454 CURVE SMOOTH",
"126 424 OFFCURVE",
"131 399 OFFCURVE",
"155 399 CURVE SMOOTH",
"176 399 OFFCURVE",
"194 407 OFFCURVE",
"203 414 CURVE",
"198 433 OFFCURVE",
"199 455 OFFCURVE",
"204 475 CURVE SMOOTH",
"213 520 OFFCURVE",
"251 557 OFFCURVE",
"311 557 CURVE SMOOTH"
);
}
);
};
hints = (
{
horizontal = 1;
origin = "{0, 6}";
target = "{0, 21}";
},
{
horizontal = 1;
origin = "{0, 43}";
target = "{0, 28}";
},
{
origin = "{0, 31}";
target = "{0, 40}";
},
{
origin = "{0, 2}";
target = "{0, 25}";
},
{
origin = "{0, 15}";
target = "{0, 13}";
}
);
layerId = UUID0;
paths = (
{
closed = 1;
nodes = (
"344 557 OFFCURVE",
"371 529 OFFCURVE",
"371 476 CURVE SMOOTH",
"371 392 OFFCURVE",
"336 324 OFFCURVE",
"255 250 CURVE SMOOTH",
"-18 0 LINE",
"258 0 LINE SMOOTH",
"311 0 OFFCURVE",
"350 -3 OFFCURVE",
"368 -9 CURVE",
"368 18 OFFCURVE",
"376 78 OFFCURVE",
"386 124 CURVE SMOOTH",
"397 172 LINE",
"374 172 LINE",
"343 85 LINE SMOOTH",
"338 69 OFFCURVE",
"329 63 OFFCURVE",
"311 63 CURVE SMOOTH",
"64 63 LINE",
"70 47 LINE",
"267 224 LINE SMOOTH",
"404 348 OFFCURVE",
"446 405 OFFCURVE",
"446 467 CURVE SMOOTH",
"446 536 OFFCURVE",
"390 579 OFFCURVE",
"302 579 CURVE SMOOTH",
"195 579 OFFCURVE",
"115 518 OFFCURVE",
"115 436 CURVE SMOOTH",
"115 410 OFFCURVE",
"123 399 OFFCURVE",
"143 399 CURVE SMOOTH",
"157 399 OFFCURVE",
"176 405 OFFCURVE",
"188 414 CURVE",
"186 423 OFFCURVE",
"185 432 OFFCURVE",
"185 442 CURVE SMOOTH",
"185 510 OFFCURVE",
"229 557 OFFCURVE",
"293 557 CURVE SMOOTH"
);
}
);
width = 464;
}
);
rightKerningGroup = zero;
unicode = 0032;
},
{
glyphname = three;
layers = (
{
hints = (
{
horizontal = 1;
origin = "{0, 24}";
target = "{0, 9}";
},
{
horizontal = 1;
place = "{144, -123}";
},
{
horizontal = 1;
origin = "{0, 52}";
target = "{0, 37}";
},
{
origin = "{0, 21}";
target = "{0, 12}";
},
{
origin = "{0, 40}";
target = "{0, 49}";
},
{
origin = "{0, 6}";
target = "{0, 27}";
},
{
origin = "{0, 55}";
target = "{0, 34}";
}
);
layerId = UUID0;
paths = (
{
closed = 1;
nodes = (
"127 282 LINE",
"141 285 OFFCURVE",
"157 286 OFFCURVE",
"173 286 CURVE SMOOTH",
"256 286 OFFCURVE",
"302 249 OFFCURVE",
"302 181 CURVE SMOOTH",
"302 91 OFFCURVE",
"228 9 OFFCURVE",
"147 9 CURVE SMOOTH",
"103 9 OFFCURVE",
"79 31 OFFCURVE",
"79 70 CURVE SMOOTH",
"79 95 OFFCURVE",
"91 129 OFFCURVE",
"107 152 CURVE",
"100 161 OFFCURVE",
"83 168 OFFCURVE",
"68 168 CURVE SMOOTH",
"39 168 OFFCURVE",
"16 132 OFFCURVE",
"16 86 CURVE SMOOTH",
"16 25 OFFCURVE",
"62 -12 OFFCURVE",
"140 -12 CURVE SMOOTH",
"266 -12 OFFCURVE",
"377 80 OFFCURVE",
"377 184 CURVE SMOOTH",
"377 258 OFFCURVE",
"321 305 OFFCURVE",
"226 310 CURVE",
"226 303 LINE",
"327 323 OFFCURVE",
"407 400 OFFCURVE",
"407 475 CURVE SMOOTH",
"407 536 OFFCURVE",
"356 579 OFFCURVE",
"282 579 CURVE SMOOTH",
"191 579 OFFCURVE",
"112 517 OFFCURVE",
"112 445 CURVE SMOOTH",
"112 420 OFFCURVE",
"121 408 OFFCURVE",
"141 408 CURVE SMOOTH",
"156 408 OFFCURVE",
"176 414 OFFCURVE",
"187 423 CURVE",
"184 432 OFFCURVE",
"183 445 OFFCURVE",
"183 457 CURVE SMOOTH",
"183 515 OFFCURVE",
"220 557 OFFCURVE",
"270 557 CURVE SMOOTH",
"311 557 OFFCURVE",
"336 529 OFFCURVE",
"336 484 CURVE SMOOTH",
"336 402 OFFCURVE",
"264 326 OFFCURVE",
"171 309 CURVE SMOOTH",
"128 301 LINE"
);
}
);
width = 429;
}
);
rightKerningGroup = zero;
unicode = 0033;
},
{
glyphname = four;
layers = (
{
hints = (
{
horizontal = 1;
origin = "{0, 14}";
target = "{0, 13}";
},
{
horizontal = 1;
origin = "{0, 2}";
target = "{0, 5}";
}
);
layerId = UUID0;
paths = (
{
closed = 1;
nodes = (
"402 579 LINE",
"370 579 LINE",
"-32 134 LINE",
"389 134 LINE",
"395 165 LINE",
"7 165 LINE",
"12 146 LINE",
"325 491 LINE",
"313 496 LINE",
"214 33 LINE SMOOTH",
"212 22 OFFCURVE",
"208 19 OFFCURVE",
"198 19 CURVE SMOOTH",
"131 19 LINE",
"127 0 LINE",
"360 0 LINE",
"364 19 LINE",
"298 19 LINE SMOOTH",
"288 19 OFFCURVE",
"284 23 OFFCURVE",
"286 31 CURVE SMOOTH"
);
}
);
width = 440;
}
);
rightKerningGroup = zero;
unicode = 0034;
},
{
glyphname = five;
layers = (
{
background = {
paths = (
{
closed = 1;
nodes = (
"107 288 LINE",
"137 298 OFFCURVE",
"166 302 OFFCURVE",
"192 302 CURVE SMOOTH",
"279 302 OFFCURVE",
"336 253 OFFCURVE",
"314 149 CURVE SMOOTH",
"299 77 OFFCURVE",
"243 9 OFFCURVE",
"161 9 CURVE SMOOTH",
"106 9 OFFCURVE",
"87 46 OFFCURVE",
"97 92 CURVE SMOOTH",
"101 111 OFFCURVE",
"110 134 OFFCURVE",
"123 152 CURVE",
"117 160 OFFCURVE",
"101 168 OFFCURVE",
"81 168 CURVE SMOOTH",
"57 168 OFFCURVE",
"41 142 OFFCURVE",
"35 112 CURVE SMOOTH",
"20 46 OFFCURVE",
"54 -12 OFFCURVE",
"157 -12 CURVE SMOOTH",
"288 -12 OFFCURVE",
"372 73 OFFCURVE",
"390 160 CURVE SMOOTH",
"408 245 OFFCURVE",
"360 331 OFFCURVE",
"229 331 CURVE SMOOTH",
"204 331 OFFCURVE",
"176 328 OFFCURVE",
"145 321 CURVE",
"198 501 LINE",
"363 501 LINE SMOOTH",
"419 501 OFFCURVE",
"438 504 OFFCURVE",
"459 575 CURVE SMOOTH",
"469 609 LINE",
"449 609 LINE",
"442 589 LINE SMOOTH",
"437 571 OFFCURVE",
"425 566 OFFCURVE",
"409 566 CURVE SMOOTH",
"187 566 LINE"
);
}
);
};
hints = (
{
horizontal = 1;
origin = "{0, 24}";
target = "{0, 9}";
},
{
horizontal = 1;
origin = "{0, 3}";
target = "{0, 30}";
},
{
horizontal = 1;
origin = "{0, 34}";
target = "{0, 45}";
},
{
origin = "{0, 21}";
target = "{0, 12}";
},
{
origin = "{0, 6}";
target = "{0, 27}";
}
);
layerId = UUID0;
paths = (
{
closed = 1;
nodes = (
"92 288 LINE",
"120 297 OFFCURVE",
"149 302 OFFCURVE",
"177 302 CURVE SMOOTH",
"258 302 OFFCURVE",
"304 261 OFFCURVE",
"304 189 CURVE SMOOTH",
"304 93 OFFCURVE",
"231 9 OFFCURVE",
"148 9 CURVE SMOOTH",
"105 9 OFFCURVE",
"79 31 OFFCURVE",
"79 67 CURVE SMOOTH",
"79 92 OFFCURVE",
"92 131 OFFCURVE",
"108 152 CURVE",
"102 160 OFFCURVE",
"84 168 OFFCURVE",
"69 168 CURVE SMOOTH",
"39 168 OFFCURVE",
"17 132 OFFCURVE",
"17 84 CURVE SMOOTH",
"17 23 OFFCURVE",
"63 -12 OFFCURVE",
"141 -12 CURVE SMOOTH",
"271 -12 OFFCURVE",
"379 80 OFFCURVE",
"379 191 CURVE SMOOTH",
"379 277 OFFCURVE",
"316 331 OFFCURVE",
"214 331 CURVE SMOOTH",
"188 331 OFFCURVE",
"159 328 OFFCURVE",
"130 321 CURVE",
"183 501 LINE",
"348 501 LINE SMOOTH",
"412 501 OFFCURVE",
"425 512 OFFCURVE",
"444 575 CURVE SMOOTH",
"454 609 LINE",
"434 609 LINE",
"427 589 LINE SMOOTH",
"422 573 OFFCURVE",
"412 566 OFFCURVE",
"394 566 CURVE SMOOTH",
"172 566 LINE"
);
}
);
width = 431;
}
);
rightKerningGroup = zero;
unicode = 0035;
},
{
glyphname = six;
layers = (
{
background = {
paths = (
{
closed = 1;
nodes = (
"428 579 LINE",
"217 515 OFFCURVE",
"76 334 OFFCURVE",
"45 188 CURVE SMOOTH",
"41 168 OFFCURVE",
"38 149 OFFCURVE",
"38 130 CURVE SMOOTH",
"38 48 OFFCURVE",
"84 -12 OFFCURVE",
"185 -12 CURVE SMOOTH",
"288 -12 OFFCURVE",
"378 54 OFFCURVE",
"402 166 CURVE SMOOTH",
"405 180 OFFCURVE",
"406 194 OFFCURVE",
"406 207 CURVE SMOOTH",
"406 293 OFFCURVE",
"344 344 OFFCURVE",
"275 344 CURVE SMOOTH",
"233 344 OFFCURVE",
"188 325 OFFCURVE",
"154 286 CURVE",
"228 457 OFFCURVE",
"365 535 OFFCURVE",
"430 555 CURVE"
);
},
{
closed = 1;
nodes = (
"141 269 OFFCURVE",
"201 315 OFFCURVE",
"253 315 CURVE SMOOTH",
"297 315 OFFCURVE",
"333 281 OFFCURVE",
"333 213 CURVE SMOOTH",
"333 198 OFFCURVE",
"331 181 OFFCURVE",
"327 163 CURVE SMOOTH",
"306 66 OFFCURVE",
"246 9 OFFCURVE",
"189 9 CURVE SMOOTH",
"145 9 OFFCURVE",
"114 48 OFFCURVE",
"114 116 CURVE SMOOTH",
"114 134 OFFCURVE",
"116 154 OFFCURVE",
"121 176 CURVE SMOOTH"
);
}
);
};
hints = (
{
horizontal = 1;
origin = "{0, 6}";
target = "{1, 7}";
},
{
horizontal = 1;
origin = "{1, 1}";
target = "{0, 12}";
},
{
origin = "{0, 3}";
target = "{1, 10}";
},
{
origin = "{1, 4}";
target = "{0, 9}";
}
);
layerId = UUID0;
paths = (
{
closed = 1;
nodes = (
"413 579 LINE",
"214 519 OFFCURVE",
"23 317 OFFCURVE",
"23 130 CURVE SMOOTH",
"23 48 OFFCURVE",
"69 -12 OFFCURVE",
"170 -12 CURVE SMOOTH",
"293 -12 OFFCURVE",
"391 85 OFFCURVE",
"391 207 CURVE SMOOTH",
"391 293 OFFCURVE",
"329 344 OFFCURVE",
"260 344 CURVE SMOOTH",
"213 344 OFFCURVE",
"162 320 OFFCURVE",
"128 271 CURVE",
"130 265 LINE",
"203 452 OFFCURVE",
"351 536 OFFCURVE",
"420 557 CURVE"
);
},
{
closed = 1;
nodes = (
"152 315 OFFCURVE",
"238 315 CURVE SMOOTH",
"281 315 OFFCURVE",
"316 281 OFFCURVE",
"316 213 CURVE SMOOTH",
"316 126 OFFCURVE",
"259 9 OFFCURVE",
"174 9 CURVE SMOOTH",
"129 9 OFFCURVE",
"98 48 OFFCURVE",
"98 116 CURVE SMOOTH",
"98 210 OFFCURVE"
);
}
);
width = 428;
}
);
rightKerningGroup = zero;
unicode = 0036;
},
